<?xml version="1.0" encoding="utf-8" standalone="no"?>
<!DOCTYPE svg PUBLIC "-//W3C//DTD SVG 1.1//EN"
  "http://www.w3.org/Graphics/SVG/1.1/DTD/svg11.dtd">
<svg xmlns:xlink="http://www.w3.org/1999/xlink" width="720pt" height="432pt" viewBox="0 0 720 432" xmlns="http://www.w3.org/2000/svg" version="1.1">
 <metadata>
  <rdf:RDF xmlns:dc="http://purl.org/dc/elements/1.1/" xmlns:cc="http://creativecommons.org/ns#" xmlns:rdf="http://www.w3.org/1999/02/22-rdf-syntax-ns#">
   <cc:Work>
    <dc:type rdf:resource="http://purl.org/dc/dcmitype/StillImage"/>
    <dc:date>2025-04-18T10:55:10.825366</dc:date>
    <dc:format>image/svg+xml</dc:format>
    <dc:creator>
     <cc:Agent>
      <dc:title>Matplotlib v3.9.2, https://matplotlib.org/</dc:title>
     </cc:Agent>
    </dc:creator>
   </cc:Work>
  </rdf:RDF>
 </metadata>
 <defs>
  <style type="text/css">*{stroke-linejoin: round; stroke-linecap: butt}</style>
 </defs>
 <g id="figure_1">
  <g id="patch_1">
   <path d="M 0 432 
L 720 432 
L 720 0 
L 0 0 
z
" style="fill: #ffffff"/>
  </g>
  <g id="axes_1">
   <g id="patch_2">
    <path d="M 54.92 363.39775 
L 709.2 363.39775 
L 709.2 26.88 
L 54.92 26.88 
z
" style="fill: #ffffff"/>
   </g>
   <g id="matplotlib.axis_1">
    <g id="xtick_1">
     <g id="line2d_1">
      <path d="M 150.748889 363.39775 
L 150.748889 26.88 
" clip-path="url(#p8c9d966e5f)" style="fill: none; stroke-dasharray: 2.96,1.28; stroke-dashoffset: 0; stroke: #b0b0b0; stroke-opacity: 0.3; stroke-width: 0.8"/>
     </g>
     <g id="line2d_2">
      <defs>
       <path id="m6537139fa6" d="M 0 0 
L 0 3.5 
" style="stroke: #000000; stroke-width: 0.8"/>
      </defs>
      <g>
       <use xlink:href="#m6537139fa6" x="150.748889" y="363.39775" style="stroke: #000000; stroke-width: 0.8"/>
      </g>
     </g>
     <g id="text_1">
      <!-- 2 -->
      <g transform="translate(147.567639 377.996188) scale(0.1 -0.1)">
       <defs>
        <path id="DejaVuSans-32" d="M 1228 531 
L 3431 531 
L 3431 0 
L 469 0 
L 469 531 
Q 828 903 1448 1529 
Q 2069 2156 2228 2338 
Q 2531 2678 2651 2914 
Q 2772 3150 2772 3378 
Q 2772 3750 2511 3984 
Q 2250 4219 1831 4219 
Q 1534 4219 1204 4116 
Q 875 4013 500 3803 
L 500 4441 
Q 881 4594 1212 4672 
Q 1544 4750 1819 4750 
Q 2544 4750 2975 4387 
Q 3406 4025 3406 3419 
Q 3406 3131 3298 2873 
Q 3191 2616 2906 2266 
Q 2828 2175 2409 1742 
Q 1991 1309 1228 531 
z
" transform="scale(0.015625)"/>
       </defs>
       <use xlink:href="#DejaVuSans-32"/>
      </g>
     </g>
    </g>
    <g id="xtick_2">
     <g id="line2d_3">
      <path d="M 282.926667 363.39775 
L 282.926667 26.88 
" clip-path="url(#p8c9d966e5f)" style="fill: none; stroke-dasharray: 2.96,1.28; stroke-dashoffset: 0; stroke: #b0b0b0; stroke-opacity: 0.3; stroke-width: 0.8"/>
     </g>
     <g id="line2d_4">
      <g>
       <use xlink:href="#m6537139fa6" x="282.926667" y="363.39775" style="stroke: #000000; stroke-width: 0.8"/>
      </g>
     </g>
     <g id="text_2">
      <!-- 4 -->
      <g transform="translate(279.745417 377.996188) scale(0.1 -0.1)">
       <defs>
        <path id="DejaVuSans-34" d="M 2419 4116 
L 825 1625 
L 2419 1625 
L 2419 4116 
z
M 2253 4666 
L 3047 4666 
L 3047 1625 
L 3713 1625 
L 3713 1100 
L 3047 1100 
L 3047 0 
L 2419 0 
L 2419 1100 
L 313 1100 
L 313 1709 
L 2253 4666 
z
" transform="scale(0.015625)"/>
       </defs>
       <use xlink:href="#DejaVuSans-34"/>
      </g>
     </g>
    </g>
    <g id="xtick_3">
     <g id="line2d_5">
      <path d="M 415.104444 363.39775 
L 415.104444 26.88 
" clip-path="url(#p8c9d966e5f)" style="fill: none; stroke-dasharray: 2.96,1.28; stroke-dashoffset: 0; stroke: #b0b0b0; stroke-opacity: 0.3; stroke-width: 0.8"/>
     </g>
     <g id="line2d_6">
      <g>
       <use xlink:href="#m6537139fa6" x="415.104444" y="363.39775" style="stroke: #000000; stroke-width: 0.8"/>
      </g>
     </g>
     <g id="text_3">
      <!-- 6 -->
      <g transform="translate(411.923194 377.996188) scale(0.1 -0.1)">
       <defs>
        <path id="DejaVuSans-36" d="M 2113 2584 
Q 1688 2584 1439 2293 
Q 1191 2003 1191 1497 
Q 1191 994 1439 701 
Q 1688 409 2113 409 
Q 2538 409 2786 701 
Q 3034 994 3034 1497 
Q 3034 2003 2786 2293 
Q 2538 2584 2113 2584 
z
M 3366 4563 
L 3366 3988 
Q 3128 4100 2886 4159 
Q 2644 4219 2406 4219 
Q 1781 4219 1451 3797 
Q 1122 3375 1075 2522 
Q 1259 2794 1537 2939 
Q 1816 3084 2150 3084 
Q 2853 3084 3261 2657 
Q 3669 2231 3669 1497 
Q 3669 778 3244 343 
Q 2819 -91 2113 -91 
Q 1303 -91 875 529 
Q 447 1150 447 2328 
Q 447 3434 972 4092 
Q 1497 4750 2381 4750 
Q 2619 4750 2861 4703 
Q 3103 4656 3366 4563 
z
" transform="scale(0.015625)"/>
       </defs>
       <use xlink:href="#DejaVuSans-36"/>
      </g>
     </g>
    </g>
    <g id="xtick_4">
     <g id="line2d_7">
      <path d="M 547.282222 363.39775 
L 547.282222 26.88 
" clip-path="url(#p8c9d966e5f)" style="fill: none; stroke-dasharray: 2.96,1.28; stroke-dashoffset: 0; stroke: #b0b0b0; stroke-opacity: 0.3; stroke-width: 0.8"/>
     </g>
     <g id="line2d_8">
      <g>
       <use xlink:href="#m6537139fa6" x="547.282222" y="363.39775" style="stroke: #000000; stroke-width: 0.8"/>
      </g>
     </g>
     <g id="text_4">
      <!-- 8 -->
      <g transform="translate(544.100972 377.996188) scale(0.1 -0.1)">
       <defs>
        <path id="DejaVuSans-38" d="M 2034 2216 
Q 1584 2216 1326 1975 
Q 1069 1734 1069 1313 
Q 1069 891 1326 650 
Q 1584 409 2034 409 
Q 2484 409 2743 651 
Q 3003 894 3003 1313 
Q 3003 1734 2745 1975 
Q 2488 2216 2034 2216 
z
M 1403 2484 
Q 997 2584 770 2862 
Q 544 3141 544 3541 
Q 544 4100 942 4425 
Q 1341 4750 2034 4750 
Q 2731 4750 3128 4425 
Q 3525 4100 3525 3541 
Q 3525 3141 3298 2862 
Q 3072 2584 2669 2484 
Q 3125 2378 3379 2068 
Q 3634 1759 3634 1313 
Q 3634 634 3220 271 
Q 2806 -91 2034 -91 
Q 1263 -91 848 271 
Q 434 634 434 1313 
Q 434 1759 690 2068 
Q 947 2378 1403 2484 
z
M 1172 3481 
Q 1172 3119 1398 2916 
Q 1625 2713 2034 2713 
Q 2441 2713 2670 2916 
Q 2900 3119 2900 3481 
Q 2900 3844 2670 4047 
Q 2441 4250 2034 4250 
Q 1625 4250 1398 4047 
Q 1172 3844 1172 3481 
z
" transform="scale(0.015625)"/>
       </defs>
       <use xlink:href="#DejaVuSans-38"/>
      </g>
     </g>
    </g>
    <g id="xtick_5">
     <g id="line2d_9">
      <path d="M 679.46 363.39775 
L 679.46 26.88 
" clip-path="url(#p8c9d966e5f)" style="fill: none; stroke-dasharray: 2.96,1.28; stroke-dashoffset: 0; stroke: #b0b0b0; stroke-opacity: 0.3; stroke-width: 0.8"/>
     </g>
     <g id="line2d_10">
      <g>
       <use xlink:href="#m6537139fa6" x="679.46" y="363.39775" style="stroke: #000000; stroke-width: 0.8"/>
      </g>
     </g>
     <g id="text_5">
      <!-- 10 -->
      <g transform="translate(673.0975 377.996188) scale(0.1 -0.1)">
       <defs>
        <path id="DejaVuSans-31" d="M 794 531 
L 1825 531 
L 1825 4091 
L 703 3866 
L 703 4441 
L 1819 4666 
L 2450 4666 
L 2450 531 
L 3481 531 
L 3481 0 
L 794 0 
L 794 531 
z
" transform="scale(0.015625)"/>
        <path id="DejaVuSans-30" d="M 2034 4250 
Q 1547 4250 1301 3770 
Q 1056 3291 1056 2328 
Q 1056 1369 1301 889 
Q 1547 409 2034 409 
Q 2525 409 2770 889 
Q 3016 1369 3016 2328 
Q 3016 3291 2770 3770 
Q 2525 4250 2034 4250 
z
M 2034 4750 
Q 2819 4750 3233 4129 
Q 3647 3509 3647 2328 
Q 3647 1150 3233 529 
Q 2819 -91 2034 -91 
Q 1250 -91 836 529 
Q 422 1150 422 2328 
Q 422 3509 836 4129 
Q 1250 4750 2034 4750 
z
" transform="scale(0.015625)"/>
       </defs>
       <use xlink:href="#DejaVuSans-31"/>
       <use xlink:href="#DejaVuSans-30" x="63.623047"/>
      </g>
     </g>
    </g>
    <g id="text_6">
     <!-- Communication Round -->
     <g transform="translate(313.878438 393.194) scale(0.12 -0.12)">
      <defs>
       <path id="DejaVuSans-43" d="M 4122 4306 
L 4122 3641 
Q 3803 3938 3442 4084 
Q 3081 4231 2675 4231 
Q 1875 4231 1450 3742 
Q 1025 3253 1025 2328 
Q 1025 1406 1450 917 
Q 1875 428 2675 428 
Q 3081 428 3442 575 
Q 3803 722 4122 1019 
L 4122 359 
Q 3791 134 3420 21 
Q 3050 -91 2638 -91 
Q 1578 -91 968 557 
Q 359 1206 359 2328 
Q 359 3453 968 4101 
Q 1578 4750 2638 4750 
Q 3056 4750 3426 4639 
Q 3797 4528 4122 4306 
z
" transform="scale(0.015625)"/>
       <path id="DejaVuSans-6f" d="M 1959 3097 
Q 1497 3097 1228 2736 
Q 959 2375 959 1747 
Q 959 1119 1226 758 
Q 1494 397 1959 397 
Q 2419 397 2687 759 
Q 2956 1122 2956 1747 
Q 2956 2369 2687 2733 
Q 2419 3097 1959 3097 
z
M 1959 3584 
Q 2709 3584 3137 3096 
Q 3566 2609 3566 1747 
Q 3566 888 3137 398 
Q 2709 -91 1959 -91 
Q 1206 -91 779 398 
Q 353 888 353 1747 
Q 353 2609 779 3096 
Q 1206 3584 1959 3584 
z
" transform="scale(0.015625)"/>
       <path id="DejaVuSans-6d" d="M 3328 2828 
Q 3544 3216 3844 3400 
Q 4144 3584 4550 3584 
Q 5097 3584 5394 3201 
Q 5691 2819 5691 2113 
L 5691 0 
L 5113 0 
L 5113 2094 
Q 5113 2597 4934 2840 
Q 4756 3084 4391 3084 
Q 3944 3084 3684 2787 
Q 3425 2491 3425 1978 
L 3425 0 
L 2847 0 
L 2847 2094 
Q 2847 2600 2669 2842 
Q 2491 3084 2119 3084 
Q 1678 3084 1418 2786 
Q 1159 2488 1159 1978 
L 1159 0 
L 581 0 
L 581 3500 
L 1159 3500 
L 1159 2956 
Q 1356 3278 1631 3431 
Q 1906 3584 2284 3584 
Q 2666 3584 2933 3390 
Q 3200 3197 3328 2828 
z
" transform="scale(0.015625)"/>
       <path id="DejaVuSans-75" d="M 544 1381 
L 544 3500 
L 1119 3500 
L 1119 1403 
Q 1119 906 1312 657 
Q 1506 409 1894 409 
Q 2359 409 2629 706 
Q 2900 1003 2900 1516 
L 2900 3500 
L 3475 3500 
L 3475 0 
L 2900 0 
L 2900 538 
Q 2691 219 2414 64 
Q 2138 -91 1772 -91 
Q 1169 -91 856 284 
Q 544 659 544 1381 
z
M 1991 3584 
L 1991 3584 
z
" transform="scale(0.015625)"/>
       <path id="DejaVuSans-6e" d="M 3513 2113 
L 3513 0 
L 2938 0 
L 2938 2094 
Q 2938 2591 2744 2837 
Q 2550 3084 2163 3084 
Q 1697 3084 1428 2787 
Q 1159 2491 1159 1978 
L 1159 0 
L 581 0 
L 581 3500 
L 1159 3500 
L 1159 2956 
Q 1366 3272 1645 3428 
Q 1925 3584 2291 3584 
Q 2894 3584 3203 3211 
Q 3513 2838 3513 2113 
z
" transform="scale(0.015625)"/>
       <path id="DejaVuSans-69" d="M 603 3500 
L 1178 3500 
L 1178 0 
L 603 0 
L 603 3500 
z
M 603 4863 
L 1178 4863 
L 1178 4134 
L 603 4134 
L 603 4863 
z
" transform="scale(0.015625)"/>
       <path id="DejaVuSans-63" d="M 3122 3366 
L 3122 2828 
Q 2878 2963 2633 3030 
Q 2388 3097 2138 3097 
Q 1578 3097 1268 2742 
Q 959 2388 959 1747 
Q 959 1106 1268 751 
Q 1578 397 2138 397 
Q 2388 397 2633 464 
Q 2878 531 3122 666 
L 3122 134 
Q 2881 22 2623 -34 
Q 2366 -91 2075 -91 
Q 1284 -91 818 406 
Q 353 903 353 1747 
Q 353 2603 823 3093 
Q 1294 3584 2113 3584 
Q 2378 3584 2631 3529 
Q 2884 3475 3122 3366 
z
" transform="scale(0.015625)"/>
       <path id="DejaVuSans-61" d="M 2194 1759 
Q 1497 1759 1228 1600 
Q 959 1441 959 1056 
Q 959 750 1161 570 
Q 1363 391 1709 391 
Q 2188 391 2477 730 
Q 2766 1069 2766 1631 
L 2766 1759 
L 2194 1759 
z
M 3341 1997 
L 3341 0 
L 2766 0 
L 2766 531 
Q 2569 213 2275 61 
Q 1981 -91 1556 -91 
Q 1019 -91 701 211 
Q 384 513 384 1019 
Q 384 1609 779 1909 
Q 1175 2209 1959 2209 
L 2766 2209 
L 2766 2266 
Q 2766 2663 2505 2880 
Q 2244 3097 1772 3097 
Q 1472 3097 1187 3025 
Q 903 2953 641 2809 
L 641 3341 
Q 956 3463 1253 3523 
Q 1550 3584 1831 3584 
Q 2591 3584 2966 3190 
Q 3341 2797 3341 1997 
z
" transform="scale(0.015625)"/>
       <path id="DejaVuSans-74" d="M 1172 4494 
L 1172 3500 
L 2356 3500 
L 2356 3053 
L 1172 3053 
L 1172 1153 
Q 1172 725 1289 603 
Q 1406 481 1766 481 
L 2356 481 
L 2356 0 
L 1766 0 
Q 1100 0 847 248 
Q 594 497 594 1153 
L 594 3053 
L 172 3053 
L 172 3500 
L 594 3500 
L 594 4494 
L 1172 4494 
z
" transform="scale(0.015625)"/>
       <path id="DejaVuSans-20" transform="scale(0.015625)"/>
       <path id="DejaVuSans-52" d="M 2841 2188 
Q 3044 2119 3236 1894 
Q 3428 1669 3622 1275 
L 4263 0 
L 3584 0 
L 2988 1197 
Q 2756 1666 2539 1819 
Q 2322 1972 1947 1972 
L 1259 1972 
L 1259 0 
L 628 0 
L 628 4666 
L 2053 4666 
Q 2853 4666 3247 4331 
Q 3641 3997 3641 3322 
Q 3641 2881 3436 2590 
Q 3231 2300 2841 2188 
z
M 1259 4147 
L 1259 2491 
L 2053 2491 
Q 2509 2491 2742 2702 
Q 2975 2913 2975 3322 
Q 2975 3731 2742 3939 
Q 2509 4147 2053 4147 
L 1259 4147 
z
" transform="scale(0.015625)"/>
       <path id="DejaVuSans-64" d="M 2906 2969 
L 2906 4863 
L 3481 4863 
L 3481 0 
L 2906 0 
L 2906 525 
Q 2725 213 2448 61 
Q 2172 -91 1784 -91 
Q 1150 -91 751 415 
Q 353 922 353 1747 
Q 353 2572 751 3078 
Q 1150 3584 1784 3584 
Q 2172 3584 2448 3432 
Q 2725 3281 2906 2969 
z
M 947 1747 
Q 947 1113 1208 752 
Q 1469 391 1925 391 
Q 2381 391 2643 752 
Q 2906 1113 2906 1747 
Q 2906 2381 2643 2742 
Q 2381 3103 1925 3103 
Q 1469 3103 1208 2742 
Q 947 2381 947 1747 
z
" transform="scale(0.015625)"/>
      </defs>
      <use xlink:href="#DejaVuSans-43"/>
      <use xlink:href="#DejaVuSans-6f" x="69.824219"/>
      <use xlink:href="#DejaVuSans-6d" x="131.005859"/>
      <use xlink:href="#DejaVuSans-6d" x="228.417969"/>
      <use xlink:href="#DejaVuSans-75" x="325.830078"/>
      <use xlink:href="#DejaVuSans-6e" x="389.208984"/>
      <use xlink:href="#DejaVuSans-69" x="452.587891"/>
      <use xlink:href="#DejaVuSans-63" x="480.371094"/>
      <use xlink:href="#DejaVuSans-61" x="535.351562"/>
      <use xlink:href="#DejaVuSans-74" x="596.630859"/>
      <use xlink:href="#DejaVuSans-69" x="635.839844"/>
      <use xlink:href="#DejaVuSans-6f" x="663.623047"/>
      <use xlink:href="#DejaVuSans-6e" x="724.804688"/>
      <use xlink:href="#DejaVuSans-20" x="788.183594"/>
      <use xlink:href="#DejaVuSans-52" x="819.970703"/>
      <use xlink:href="#DejaVuSans-6f" x="884.953125"/>
      <use xlink:href="#DejaVuSans-75" x="946.134766"/>
      <use xlink:href="#DejaVuSans-6e" x="1009.513672"/>
      <use xlink:href="#DejaVuSans-64" x="1072.892578"/>
     </g>
     <!-- (Experiments with 10 clients, local_epochs = 1, total rounds = 10, total client participation 80%  -->
     <g transform="translate(92.032188 406.631375) scale(0.12 -0.12)">
      <defs>
       <path id="DejaVuSans-28" d="M 1984 4856 
Q 1566 4138 1362 3434 
Q 1159 2731 1159 2009 
Q 1159 1288 1364 580 
Q 1569 -128 1984 -844 
L 1484 -844 
Q 1016 -109 783 600 
Q 550 1309 550 2009 
Q 550 2706 781 3412 
Q 1013 4119 1484 4856 
L 1984 4856 
z
" transform="scale(0.015625)"/>
       <path id="DejaVuSans-45" d="M 628 4666 
L 3578 4666 
L 3578 4134 
L 1259 4134 
L 1259 2753 
L 3481 2753 
L 3481 2222 
L 1259 2222 
L 1259 531 
L 3634 531 
L 3634 0 
L 628 0 
L 628 4666 
z
" transform="scale(0.015625)"/>
       <path id="DejaVuSans-78" d="M 3513 3500 
L 2247 1797 
L 3578 0 
L 2900 0 
L 1881 1375 
L 863 0 
L 184 0 
L 1544 1831 
L 300 3500 
L 978 3500 
L 1906 2253 
L 2834 3500 
L 3513 3500 
z
" transform="scale(0.015625)"/>
       <path id="DejaVuSans-70" d="M 1159 525 
L 1159 -1331 
L 581 -1331 
L 581 3500 
L 1159 3500 
L 1159 2969 
Q 1341 3281 1617 3432 
Q 1894 3584 2278 3584 
Q 2916 3584 3314 3078 
Q 3713 2572 3713 1747 
Q 3713 922 3314 415 
Q 2916 -91 2278 -91 
Q 1894 -91 1617 61 
Q 1341 213 1159 525 
z
M 3116 1747 
Q 3116 2381 2855 2742 
Q 2594 3103 2138 3103 
Q 1681 3103 1420 2742 
Q 1159 2381 1159 1747 
Q 1159 1113 1420 752 
Q 1681 391 2138 391 
Q 2594 391 2855 752 
Q 3116 1113 3116 1747 
z
" transform="scale(0.015625)"/>
       <path id="DejaVuSans-65" d="M 3597 1894 
L 3597 1613 
L 953 1613 
Q 991 1019 1311 708 
Q 1631 397 2203 397 
Q 2534 397 2845 478 
Q 3156 559 3463 722 
L 3463 178 
Q 3153 47 2828 -22 
Q 2503 -91 2169 -91 
Q 1331 -91 842 396 
Q 353 884 353 1716 
Q 353 2575 817 3079 
Q 1281 3584 2069 3584 
Q 2775 3584 3186 3129 
Q 3597 2675 3597 1894 
z
M 3022 2063 
Q 3016 2534 2758 2815 
Q 2500 3097 2075 3097 
Q 1594 3097 1305 2825 
Q 1016 2553 972 2059 
L 3022 2063 
z
" transform="scale(0.015625)"/>
       <path id="DejaVuSans-72" d="M 2631 2963 
Q 2534 3019 2420 3045 
Q 2306 3072 2169 3072 
Q 1681 3072 1420 2755 
Q 1159 2438 1159 1844 
L 1159 0 
L 581 0 
L 581 3500 
L 1159 3500 
L 1159 2956 
Q 1341 3275 1631 3429 
Q 1922 3584 2338 3584 
Q 2397 3584 2469 3576 
Q 2541 3569 2628 3553 
L 2631 2963 
z
" transform="scale(0.015625)"/>
       <path id="DejaVuSans-73" d="M 2834 3397 
L 2834 2853 
Q 2591 2978 2328 3040 
Q 2066 3103 1784 3103 
Q 1356 3103 1142 2972 
Q 928 2841 928 2578 
Q 928 2378 1081 2264 
Q 1234 2150 1697 2047 
L 1894 2003 
Q 2506 1872 2764 1633 
Q 3022 1394 3022 966 
Q 3022 478 2636 193 
Q 2250 -91 1575 -91 
Q 1294 -91 989 -36 
Q 684 19 347 128 
L 347 722 
Q 666 556 975 473 
Q 1284 391 1588 391 
Q 1994 391 2212 530 
Q 2431 669 2431 922 
Q 2431 1156 2273 1281 
Q 2116 1406 1581 1522 
L 1381 1569 
Q 847 1681 609 1914 
Q 372 2147 372 2553 
Q 372 3047 722 3315 
Q 1072 3584 1716 3584 
Q 2034 3584 2315 3537 
Q 2597 3491 2834 3397 
z
" transform="scale(0.015625)"/>
       <path id="DejaVuSans-77" d="M 269 3500 
L 844 3500 
L 1563 769 
L 2278 3500 
L 2956 3500 
L 3675 769 
L 4391 3500 
L 4966 3500 
L 4050 0 
L 3372 0 
L 2619 2869 
L 1863 0 
L 1184 0 
L 269 3500 
z
" transform="scale(0.015625)"/>
       <path id="DejaVuSans-68" d="M 3513 2113 
L 3513 0 
L 2938 0 
L 2938 2094 
Q 2938 2591 2744 2837 
Q 2550 3084 2163 3084 
Q 1697 3084 1428 2787 
Q 1159 2491 1159 1978 
L 1159 0 
L 581 0 
L 581 4863 
L 1159 4863 
L 1159 2956 
Q 1366 3272 1645 3428 
Q 1925 3584 2291 3584 
Q 2894 3584 3203 3211 
Q 3513 2838 3513 2113 
z
" transform="scale(0.015625)"/>
       <path id="DejaVuSans-6c" d="M 603 4863 
L 1178 4863 
L 1178 0 
L 603 0 
L 603 4863 
z
" transform="scale(0.015625)"/>
       <path id="DejaVuSans-2c" d="M 750 794 
L 1409 794 
L 1409 256 
L 897 -744 
L 494 -744 
L 750 256 
L 750 794 
z
" transform="scale(0.015625)"/>
       <path id="DejaVuSans-5f" d="M 3263 -1063 
L 3263 -1509 
L -63 -1509 
L -63 -1063 
L 3263 -1063 
z
" transform="scale(0.015625)"/>
       <path id="DejaVuSans-3d" d="M 678 2906 
L 4684 2906 
L 4684 2381 
L 678 2381 
L 678 2906 
z
M 678 1631 
L 4684 1631 
L 4684 1100 
L 678 1100 
L 678 1631 
z
" transform="scale(0.015625)"/>
       <path id="DejaVuSans-25" d="M 4653 2053 
Q 4381 2053 4226 1822 
Q 4072 1591 4072 1178 
Q 4072 772 4226 539 
Q 4381 306 4653 306 
Q 4919 306 5073 539 
Q 5228 772 5228 1178 
Q 5228 1588 5073 1820 
Q 4919 2053 4653 2053 
z
M 4653 2450 
Q 5147 2450 5437 2106 
Q 5728 1763 5728 1178 
Q 5728 594 5436 251 
Q 5144 -91 4653 -91 
Q 4153 -91 3862 251 
Q 3572 594 3572 1178 
Q 3572 1766 3864 2108 
Q 4156 2450 4653 2450 
z
M 1428 4353 
Q 1159 4353 1004 4120 
Q 850 3888 850 3481 
Q 850 3069 1003 2837 
Q 1156 2606 1428 2606 
Q 1700 2606 1854 2837 
Q 2009 3069 2009 3481 
Q 2009 3884 1853 4118 
Q 1697 4353 1428 4353 
z
M 4250 4750 
L 4750 4750 
L 1831 -91 
L 1331 -91 
L 4250 4750 
z
M 1428 4750 
Q 1922 4750 2215 4408 
Q 2509 4066 2509 3481 
Q 2509 2891 2217 2550 
Q 1925 2209 1428 2209 
Q 931 2209 642 2551 
Q 353 2894 353 3481 
Q 353 4063 643 4406 
Q 934 4750 1428 4750 
z
" transform="scale(0.015625)"/>
      </defs>
      <use xlink:href="#DejaVuSans-28"/>
      <use xlink:href="#DejaVuSans-45" x="39.013672"/>
      <use xlink:href="#DejaVuSans-78" x="102.197266"/>
      <use xlink:href="#DejaVuSans-70" x="161.376953"/>
      <use xlink:href="#DejaVuSans-65" x="224.853516"/>
      <use xlink:href="#DejaVuSans-72" x="286.376953"/>
      <use xlink:href="#DejaVuSans-69" x="327.490234"/>
      <use xlink:href="#DejaVuSans-6d" x="355.273438"/>
      <use xlink:href="#DejaVuSans-65" x="452.685547"/>
      <use xlink:href="#DejaVuSans-6e" x="514.208984"/>
      <use xlink:href="#DejaVuSans-74" x="577.587891"/>
      <use xlink:href="#DejaVuSans-73" x="616.796875"/>
      <use xlink:href="#DejaVuSans-20" x="668.896484"/>
      <use xlink:href="#DejaVuSans-77" x="700.683594"/>
      <use xlink:href="#DejaVuSans-69" x="782.470703"/>
      <use xlink:href="#DejaVuSans-74" x="810.253906"/>
      <use xlink:href="#DejaVuSans-68" x="849.462891"/>
      <use xlink:href="#DejaVuSans-20" x="912.841797"/>
      <use xlink:href="#DejaVuSans-31" x="944.628906"/>
      <use xlink:href="#DejaVuSans-30" x="1008.251953"/>
      <use xlink:href="#DejaVuSans-20" x="1071.875"/>
      <use xlink:href="#DejaVuSans-63" x="1103.662109"/>
      <use xlink:href="#DejaVuSans-6c" x="1158.642578"/>
      <use xlink:href="#DejaVuSans-69" x="1186.425781"/>
      <use xlink:href="#DejaVuSans-65" x="1214.208984"/>
      <use xlink:href="#DejaVuSans-6e" x="1275.732422"/>
      <use xlink:href="#DejaVuSans-74" x="1339.111328"/>
      <use xlink:href="#DejaVuSans-73" x="1378.320312"/>
      <use xlink:href="#DejaVuSans-2c" x="1430.419922"/>
      <use xlink:href="#DejaVuSans-20" x="1462.207031"/>
      <use xlink:href="#DejaVuSans-6c" x="1493.994141"/>
      <use xlink:href="#DejaVuSans-6f" x="1521.777344"/>
      <use xlink:href="#DejaVuSans-63" x="1582.958984"/>
      <use xlink:href="#DejaVuSans-61" x="1637.939453"/>
      <use xlink:href="#DejaVuSans-6c" x="1699.21875"/>
      <use xlink:href="#DejaVuSans-5f" x="1727.001953"/>
      <use xlink:href="#DejaVuSans-65" x="1777.001953"/>
      <use xlink:href="#DejaVuSans-70" x="1838.525391"/>
      <use xlink:href="#DejaVuSans-6f" x="1902.001953"/>
      <use xlink:href="#DejaVuSans-63" x="1963.183594"/>
      <use xlink:href="#DejaVuSans-68" x="2018.164062"/>
      <use xlink:href="#DejaVuSans-73" x="2081.542969"/>
      <use xlink:href="#DejaVuSans-20" x="2133.642578"/>
      <use xlink:href="#DejaVuSans-3d" x="2165.429688"/>
      <use xlink:href="#DejaVuSans-20" x="2249.21875"/>
      <use xlink:href="#DejaVuSans-31" x="2281.005859"/>
      <use xlink:href="#DejaVuSans-2c" x="2344.628906"/>
      <use xlink:href="#DejaVuSans-20" x="2376.416016"/>
      <use xlink:href="#DejaVuSans-74" x="2408.203125"/>
      <use xlink:href="#DejaVuSans-6f" x="2447.412109"/>
      <use xlink:href="#DejaVuSans-74" x="2508.59375"/>
      <use xlink:href="#DejaVuSans-61" x="2547.802734"/>
      <use xlink:href="#DejaVuSans-6c" x="2609.082031"/>
      <use xlink:href="#DejaVuSans-20" x="2636.865234"/>
      <use xlink:href="#DejaVuSans-72" x="2668.652344"/>
      <use xlink:href="#DejaVuSans-6f" x="2707.515625"/>
      <use xlink:href="#DejaVuSans-75" x="2768.697266"/>
      <use xlink:href="#DejaVuSans-6e" x="2832.076172"/>
      <use xlink:href="#DejaVuSans-64" x="2895.455078"/>
      <use xlink:href="#DejaVuSans-73" x="2958.931641"/>
      <use xlink:href="#DejaVuSans-20" x="3011.03125"/>
      <use xlink:href="#DejaVuSans-3d" x="3042.818359"/>
      <use xlink:href="#DejaVuSans-20" x="3126.607422"/>
      <use xlink:href="#DejaVuSans-31" x="3158.394531"/>
      <use xlink:href="#DejaVuSans-30" x="3222.017578"/>
      <use xlink:href="#DejaVuSans-2c" x="3285.640625"/>
      <use xlink:href="#DejaVuSans-20" x="3317.427734"/>
      <use xlink:href="#DejaVuSans-74" x="3349.214844"/>
      <use xlink:href="#DejaVuSans-6f" x="3388.423828"/>
      <use xlink:href="#DejaVuSans-74" x="3449.605469"/>
      <use xlink:href="#DejaVuSans-61" x="3488.814453"/>
      <use xlink:href="#DejaVuSans-6c" x="3550.09375"/>
      <use xlink:href="#DejaVuSans-20" x="3577.876953"/>
      <use xlink:href="#DejaVuSans-63" x="3609.664062"/>
      <use xlink:href="#DejaVuSans-6c" x="3664.644531"/>
      <use xlink:href="#DejaVuSans-69" x="3692.427734"/>
      <use xlink:href="#DejaVuSans-65" x="3720.210938"/>
      <use xlink:href="#DejaVuSans-6e" x="3781.734375"/>
      <use xlink:href="#DejaVuSans-74" x="3845.113281"/>
      <use xlink:href="#DejaVuSans-20" x="3884.322266"/>
      <use xlink:href="#DejaVuSans-70" x="3916.109375"/>
      <use xlink:href="#DejaVuSans-61" x="3979.585938"/>
      <use xlink:href="#DejaVuSans-72" x="4040.865234"/>
      <use xlink:href="#DejaVuSans-74" x="4081.978516"/>
      <use xlink:href="#DejaVuSans-69" x="4121.1875"/>
      <use xlink:href="#DejaVuSans-63" x="4148.970703"/>
      <use xlink:href="#DejaVuSans-69" x="4203.951172"/>
      <use xlink:href="#DejaVuSans-70" x="4231.734375"/>
      <use xlink:href="#DejaVuSans-61" x="4295.210938"/>
      <use xlink:href="#DejaVuSans-74" x="4356.490234"/>
      <use xlink:href="#DejaVuSans-69" x="4395.699219"/>
      <use xlink:href="#DejaVuSans-6f" x="4423.482422"/>
      <use xlink:href="#DejaVuSans-6e" x="4484.664062"/>
      <use xlink:href="#DejaVuSans-20" x="4548.042969"/>
      <use xlink:href="#DejaVuSans-38" x="4579.830078"/>
      <use xlink:href="#DejaVuSans-30" x="4643.453125"/>
      <use xlink:href="#DejaVuSans-25" x="4707.076172"/>
      <use xlink:href="#DejaVuSans-20" x="4802.095703"/>
     </g>
     <!-- (FedAvg, FedAvg with non-iid and FedAvgM with non-iid and momentum(β) = 0.2) -->
     <g transform="translate(136.981563 420.4925) scale(0.12 -0.12)">
      <defs>
       <path id="DejaVuSans-46" d="M 628 4666 
L 3309 4666 
L 3309 4134 
L 1259 4134 
L 1259 2759 
L 3109 2759 
L 3109 2228 
L 1259 2228 
L 1259 0 
L 628 0 
L 628 4666 
z
" transform="scale(0.015625)"/>
       <path id="DejaVuSans-41" d="M 2188 4044 
L 1331 1722 
L 3047 1722 
L 2188 4044 
z
M 1831 4666 
L 2547 4666 
L 4325 0 
L 3669 0 
L 3244 1197 
L 1141 1197 
L 716 0 
L 50 0 
L 1831 4666 
z
" transform="scale(0.015625)"/>
       <path id="DejaVuSans-76" d="M 191 3500 
L 800 3500 
L 1894 563 
L 2988 3500 
L 3597 3500 
L 2284 0 
L 1503 0 
L 191 3500 
z
" transform="scale(0.015625)"/>
       <path id="DejaVuSans-67" d="M 2906 1791 
Q 2906 2416 2648 2759 
Q 2391 3103 1925 3103 
Q 1463 3103 1205 2759 
Q 947 2416 947 1791 
Q 947 1169 1205 825 
Q 1463 481 1925 481 
Q 2391 481 2648 825 
Q 2906 1169 2906 1791 
z
M 3481 434 
Q 3481 -459 3084 -895 
Q 2688 -1331 1869 -1331 
Q 1566 -1331 1297 -1286 
Q 1028 -1241 775 -1147 
L 775 -588 
Q 1028 -725 1275 -790 
Q 1522 -856 1778 -856 
Q 2344 -856 2625 -561 
Q 2906 -266 2906 331 
L 2906 616 
Q 2728 306 2450 153 
Q 2172 0 1784 0 
Q 1141 0 747 490 
Q 353 981 353 1791 
Q 353 2603 747 3093 
Q 1141 3584 1784 3584 
Q 2172 3584 2450 3431 
Q 2728 3278 2906 2969 
L 2906 3500 
L 3481 3500 
L 3481 434 
z
" transform="scale(0.015625)"/>
       <path id="DejaVuSans-2d" d="M 313 2009 
L 1997 2009 
L 1997 1497 
L 313 1497 
L 313 2009 
z
" transform="scale(0.015625)"/>
       <path id="DejaVuSans-4d" d="M 628 4666 
L 1569 4666 
L 2759 1491 
L 3956 4666 
L 4897 4666 
L 4897 0 
L 4281 0 
L 4281 4097 
L 3078 897 
L 2444 897 
L 1241 4097 
L 1241 0 
L 628 0 
L 628 4666 
z
" transform="scale(0.015625)"/>
       <path id="DejaVuSans-3b2" d="M 1178 216 
L 1178 -1331 
L 600 -1331 
L 600 3478 
Q 600 4903 1931 4903 
Q 3288 4903 3288 3700 
Q 3288 2844 2750 2531 
Q 3625 2250 3625 1416 
Q 3625 -66 2119 -66 
Q 1456 -66 1178 216 
z
M 1178 966 
Q 1525 425 2141 425 
Q 3041 425 3041 1406 
Q 3041 2288 1591 2219 
L 1591 2750 
Q 2725 2750 2725 3750 
Q 2725 4434 1994 4434 
Q 1178 4434 1178 3459 
L 1178 966 
z
" transform="scale(0.015625)"/>
       <path id="DejaVuSans-29" d="M 513 4856 
L 1013 4856 
Q 1481 4119 1714 3412 
Q 1947 2706 1947 2009 
Q 1947 1309 1714 600 
Q 1481 -109 1013 -844 
L 513 -844 
Q 928 -128 1133 580 
Q 1338 1288 1338 2009 
Q 1338 2731 1133 3434 
Q 928 4138 513 4856 
z
" transform="scale(0.015625)"/>
       <path id="DejaVuSans-2e" d="M 684 794 
L 1344 794 
L 1344 0 
L 684 0 
L 684 794 
z
" transform="scale(0.015625)"/>
      </defs>
      <use xlink:href="#DejaVuSans-28"/>
      <use xlink:href="#DejaVuSans-46" x="39.013672"/>
      <use xlink:href="#DejaVuSans-65" x="91.033203"/>
      <use xlink:href="#DejaVuSans-64" x="152.556641"/>
      <use xlink:href="#DejaVuSans-41" x="216.033203"/>
      <use xlink:href="#DejaVuSans-76" x="278.566406"/>
      <use xlink:href="#DejaVuSans-67" x="337.746094"/>
      <use xlink:href="#DejaVuSans-2c" x="401.222656"/>
      <use xlink:href="#DejaVuSans-20" x="433.009766"/>
      <use xlink:href="#DejaVuSans-46" x="464.796875"/>
      <use xlink:href="#DejaVuSans-65" x="516.816406"/>
      <use xlink:href="#DejaVuSans-64" x="578.339844"/>
      <use xlink:href="#DejaVuSans-41" x="641.816406"/>
      <use xlink:href="#DejaVuSans-76" x="704.349609"/>
      <use xlink:href="#DejaVuSans-67" x="763.529297"/>
      <use xlink:href="#DejaVuSans-20" x="827.005859"/>
      <use xlink:href="#DejaVuSans-77" x="858.792969"/>
      <use xlink:href="#DejaVuSans-69" x="940.580078"/>
      <use xlink:href="#DejaVuSans-74" x="968.363281"/>
      <use xlink:href="#DejaVuSans-68" x="1007.572266"/>
      <use xlink:href="#DejaVuSans-20" x="1070.951172"/>
      <use xlink:href="#DejaVuSans-6e" x="1102.738281"/>
      <use xlink:href="#DejaVuSans-6f" x="1166.117188"/>
      <use xlink:href="#DejaVuSans-6e" x="1227.298828"/>
      <use xlink:href="#DejaVuSans-2d" x="1290.677734"/>
      <use xlink:href="#DejaVuSans-69" x="1326.761719"/>
      <use xlink:href="#DejaVuSans-69" x="1354.544922"/>
      <use xlink:href="#DejaVuSans-64" x="1382.328125"/>
      <use xlink:href="#DejaVuSans-20" x="1445.804688"/>
      <use xlink:href="#DejaVuSans-61" x="1477.591797"/>
      <use xlink:href="#DejaVuSans-6e" x="1538.871094"/>
      <use xlink:href="#DejaVuSans-64" x="1602.25"/>
      <use xlink:href="#DejaVuSans-20" x="1665.726562"/>
      <use xlink:href="#DejaVuSans-46" x="1697.513672"/>
      <use xlink:href="#DejaVuSans-65" x="1749.533203"/>
      <use xlink:href="#DejaVuSans-64" x="1811.056641"/>
      <use xlink:href="#DejaVuSans-41" x="1874.533203"/>
      <use xlink:href="#DejaVuSans-76" x="1937.066406"/>
      <use xlink:href="#DejaVuSans-67" x="1996.246094"/>
      <use xlink:href="#DejaVuSans-4d" x="2059.722656"/>
      <use xlink:href="#DejaVuSans-20" x="2146.001953"/>
      <use xlink:href="#DejaVuSans-77" x="2177.789062"/>
      <use xlink:href="#DejaVuSans-69" x="2259.576172"/>
      <use xlink:href="#DejaVuSans-74" x="2287.359375"/>
      <use xlink:href="#DejaVuSans-68" x="2326.568359"/>
      <use xlink:href="#DejaVuSans-20" x="2389.947266"/>
      <use xlink:href="#DejaVuSans-6e" x="2421.734375"/>
      <use xlink:href="#DejaVuSans-6f" x="2485.113281"/>
      <use xlink:href="#DejaVuSans-6e" x="2546.294922"/>
      <use xlink:href="#DejaVuSans-2d" x="2609.673828"/>
      <use xlink:href="#DejaVuSans-69" x="2645.757812"/>
      <use xlink:href="#DejaVuSans-69" x="2673.541016"/>
      <use xlink:href="#DejaVuSans-64" x="2701.324219"/>
      <use xlink:href="#DejaVuSans-20" x="2764.800781"/>
      <use xlink:href="#DejaVuSans-61" x="2796.587891"/>
      <use xlink:href="#DejaVuSans-6e" x="2857.867188"/>
      <use xlink:href="#DejaVuSans-64" x="2921.246094"/>
      <use xlink:href="#DejaVuSans-20" x="2984.722656"/>
      <use xlink:href="#DejaVuSans-6d" x="3016.509766"/>
      <use xlink:href="#DejaVuSans-6f" x="3113.921875"/>
      <use xlink:href="#DejaVuSans-6d" x="3175.103516"/>
      <use xlink:href="#DejaVuSans-65" x="3272.515625"/>
      <use xlink:href="#DejaVuSans-6e" x="3334.039062"/>
      <use xlink:href="#DejaVuSans-74" x="3397.417969"/>
      <use xlink:href="#DejaVuSans-75" x="3436.626953"/>
      <use xlink:href="#DejaVuSans-6d" x="3500.005859"/>
      <use xlink:href="#DejaVuSans-28" x="3597.417969"/>
      <use xlink:href="#DejaVuSans-3b2" x="3636.431641"/>
      <use xlink:href="#DejaVuSans-29" x="3700.25"/>
      <use xlink:href="#DejaVuSans-20" x="3739.263672"/>
      <use xlink:href="#DejaVuSans-3d" x="3771.050781"/>
      <use xlink:href="#DejaVuSans-20" x="3854.839844"/>
      <use xlink:href="#DejaVuSans-30" x="3886.626953"/>
      <use xlink:href="#DejaVuSans-2e" x="3950.25"/>
      <use xlink:href="#DejaVuSans-32" x="3982.037109"/>
      <use xlink:href="#DejaVuSans-29" x="4045.660156"/>
     </g>
    </g>
   </g>
   <g id="matplotlib.axis_2">
    <g id="ytick_1">
     <g id="line2d_11">
      <path d="M 54.92 348.868699 
L 709.2 348.868699 
" clip-path="url(#p8c9d966e5f)" style="fill: none; stroke-dasharray: 2.96,1.28; stroke-dashoffset: 0; stroke: #b0b0b0; stroke-opacity: 0.3; stroke-width: 0.8"/>
     </g>
     <g id="line2d_12">
      <defs>
       <path id="m14d1dc0654" d="M 0 0 
L -3.5 0 
" style="stroke: #000000; stroke-width: 0.8"/>
      </defs>
      <g>
       <use xlink:href="#m14d1dc0654" x="54.92" y="348.868699" style="stroke: #000000; stroke-width: 0.8"/>
      </g>
     </g>
     <g id="text_7">
      <!-- 0.78 -->
      <g transform="translate(25.654375 352.667918) scale(0.1 -0.1)">
       <defs>
        <path id="DejaVuSans-37" d="M 525 4666 
L 3525 4666 
L 3525 4397 
L 1831 0 
L 1172 0 
L 2766 4134 
L 525 4134 
L 525 4666 
z
" transform="scale(0.015625)"/>
       </defs>
       <use xlink:href="#DejaVuSans-30"/>
       <use xlink:href="#DejaVuSans-2e" x="63.623047"/>
       <use xlink:href="#DejaVuSans-37" x="95.410156"/>
       <use xlink:href="#DejaVuSans-38" x="159.033203"/>
      </g>
     </g>
    </g>
    <g id="ytick_2">
     <g id="line2d_13">
      <path d="M 54.92 310.508169 
L 709.2 310.508169 
" clip-path="url(#p8c9d966e5f)" style="fill: none; stroke-dasharray: 2.96,1.28; stroke-dashoffset: 0; stroke: #b0b0b0; stroke-opacity: 0.3; stroke-width: 0.8"/>
     </g>
     <g id="line2d_14">
      <g>
       <use xlink:href="#m14d1dc0654" x="54.92" y="310.508169" style="stroke: #000000; stroke-width: 0.8"/>
      </g>
     </g>
     <g id="text_8">
      <!-- 0.80 -->
      <g transform="translate(25.654375 314.307388) scale(0.1 -0.1)">
       <use xlink:href="#DejaVuSans-30"/>
       <use xlink:href="#DejaVuSans-2e" x="63.623047"/>
       <use xlink:href="#DejaVuSans-38" x="95.410156"/>
       <use xlink:href="#DejaVuSans-30" x="159.033203"/>
      </g>
     </g>
    </g>
    <g id="ytick_3">
     <g id="line2d_15">
      <path d="M 54.92 272.147639 
L 709.2 272.147639 
" clip-path="url(#p8c9d966e5f)" style="fill: none; stroke-dasharray: 2.96,1.28; stroke-dashoffset: 0; stroke: #b0b0b0; stroke-opacity: 0.3; stroke-width: 0.8"/>
     </g>
     <g id="line2d_16">
      <g>
       <use xlink:href="#m14d1dc0654" x="54.92" y="272.147639" style="stroke: #000000; stroke-width: 0.8"/>
      </g>
     </g>
     <g id="text_9">
      <!-- 0.82 -->
      <g transform="translate(25.654375 275.946858) scale(0.1 -0.1)">
       <use xlink:href="#DejaVuSans-30"/>
       <use xlink:href="#DejaVuSans-2e" x="63.623047"/>
       <use xlink:href="#DejaVuSans-38" x="95.410156"/>
       <use xlink:href="#DejaVuSans-32" x="159.033203"/>
      </g>
     </g>
    </g>
    <g id="ytick_4">
     <g id="line2d_17">
      <path d="M 54.92 233.787109 
L 709.2 233.787109 
" clip-path="url(#p8c9d966e5f)" style="fill: none; stroke-dasharray: 2.96,1.28; stroke-dashoffset: 0; stroke: #b0b0b0; stroke-opacity: 0.3; stroke-width: 0.8"/>
     </g>
     <g id="line2d_18">
      <g>
       <use xlink:href="#m14d1dc0654" x="54.92" y="233.787109" style="stroke: #000000; stroke-width: 0.8"/>
      </g>
     </g>
     <g id="text_10">
      <!-- 0.84 -->
      <g transform="translate(25.654375 237.586328) scale(0.1 -0.1)">
       <use xlink:href="#DejaVuSans-30"/>
       <use xlink:href="#DejaVuSans-2e" x="63.623047"/>
       <use xlink:href="#DejaVuSans-38" x="95.410156"/>
       <use xlink:href="#DejaVuSans-34" x="159.033203"/>
      </g>
     </g>
    </g>
    <g id="ytick_5">
     <g id="line2d_19">
      <path d="M 54.92 195.426579 
L 709.2 195.426579 
" clip-path="url(#p8c9d966e5f)" style="fill: none; stroke-dasharray: 2.96,1.28; stroke-dashoffset: 0; stroke: #b0b0b0; stroke-opacity: 0.3; stroke-width: 0.8"/>
     </g>
     <g id="line2d_20">
      <g>
       <use xlink:href="#m14d1dc0654" x="54.92" y="195.426579" style="stroke: #000000; stroke-width: 0.8"/>
      </g>
     </g>
     <g id="text_11">
      <!-- 0.86 -->
      <g transform="translate(25.654375 199.225798) scale(0.1 -0.1)">
       <use xlink:href="#DejaVuSans-30"/>
       <use xlink:href="#DejaVuSans-2e" x="63.623047"/>
       <use xlink:href="#DejaVuSans-38" x="95.410156"/>
       <use xlink:href="#DejaVuSans-36" x="159.033203"/>
      </g>
     </g>
    </g>
    <g id="ytick_6">
     <g id="line2d_21">
      <path d="M 54.92 157.066049 
L 709.2 157.066049 
" clip-path="url(#p8c9d966e5f)" style="fill: none; stroke-dasharray: 2.96,1.28; stroke-dashoffset: 0; stroke: #b0b0b0; stroke-opacity: 0.3; stroke-width: 0.8"/>
     </g>
     <g id="line2d_22">
      <g>
       <use xlink:href="#m14d1dc0654" x="54.92" y="157.066049" style="stroke: #000000; stroke-width: 0.8"/>
      </g>
     </g>
     <g id="text_12">
      <!-- 0.88 -->
      <g transform="translate(25.654375 160.865268) scale(0.1 -0.1)">
       <use xlink:href="#DejaVuSans-30"/>
       <use xlink:href="#DejaVuSans-2e" x="63.623047"/>
       <use xlink:href="#DejaVuSans-38" x="95.410156"/>
       <use xlink:href="#DejaVuSans-38" x="159.033203"/>
      </g>
     </g>
    </g>
    <g id="ytick_7">
     <g id="line2d_23">
      <path d="M 54.92 118.705519 
L 709.2 118.705519 
" clip-path="url(#p8c9d966e5f)" style="fill: none; stroke-dasharray: 2.96,1.28; stroke-dashoffset: 0; stroke: #b0b0b0; stroke-opacity: 0.3; stroke-width: 0.8"/>
     </g>
     <g id="line2d_24">
      <g>
       <use xlink:href="#m14d1dc0654" x="54.92" y="118.705519" style="stroke: #000000; stroke-width: 0.8"/>
      </g>
     </g>
     <g id="text_13">
      <!-- 0.90 -->
      <g transform="translate(25.654375 122.504738) scale(0.1 -0.1)">
       <defs>
        <path id="DejaVuSans-39" d="M 703 97 
L 703 672 
Q 941 559 1184 500 
Q 1428 441 1663 441 
Q 2288 441 2617 861 
Q 2947 1281 2994 2138 
Q 2813 1869 2534 1725 
Q 2256 1581 1919 1581 
Q 1219 1581 811 2004 
Q 403 2428 403 3163 
Q 403 3881 828 4315 
Q 1253 4750 1959 4750 
Q 2769 4750 3195 4129 
Q 3622 3509 3622 2328 
Q 3622 1225 3098 567 
Q 2575 -91 1691 -91 
Q 1453 -91 1209 -44 
Q 966 3 703 97 
z
M 1959 2075 
Q 2384 2075 2632 2365 
Q 2881 2656 2881 3163 
Q 2881 3666 2632 3958 
Q 2384 4250 1959 4250 
Q 1534 4250 1286 3958 
Q 1038 3666 1038 3163 
Q 1038 2656 1286 2365 
Q 1534 2075 1959 2075 
z
" transform="scale(0.015625)"/>
       </defs>
       <use xlink:href="#DejaVuSans-30"/>
       <use xlink:href="#DejaVuSans-2e" x="63.623047"/>
       <use xlink:href="#DejaVuSans-39" x="95.410156"/>
       <use xlink:href="#DejaVuSans-30" x="159.033203"/>
      </g>
     </g>
    </g>
    <g id="ytick_8">
     <g id="line2d_25">
      <path d="M 54.92 80.344989 
L 709.2 80.344989 
" clip-path="url(#p8c9d966e5f)" style="fill: none; stroke-dasharray: 2.96,1.28; stroke-dashoffset: 0; stroke: #b0b0b0; stroke-opacity: 0.3; stroke-width: 0.8"/>
     </g>
     <g id="line2d_26">
      <g>
       <use xlink:href="#m14d1dc0654" x="54.92" y="80.344989" style="stroke: #000000; stroke-width: 0.8"/>
      </g>
     </g>
     <g id="text_14">
      <!-- 0.92 -->
      <g transform="translate(25.654375 84.144208) scale(0.1 -0.1)">
       <use xlink:href="#DejaVuSans-30"/>
       <use xlink:href="#DejaVuSans-2e" x="63.623047"/>
       <use xlink:href="#DejaVuSans-39" x="95.410156"/>
       <use xlink:href="#DejaVuSans-32" x="159.033203"/>
      </g>
     </g>
    </g>
    <g id="ytick_9">
     <g id="line2d_27">
      <path d="M 54.92 41.984459 
L 709.2 41.984459 
" clip-path="url(#p8c9d966e5f)" style="fill: none; stroke-dasharray: 2.96,1.28; stroke-dashoffset: 0; stroke: #b0b0b0; stroke-opacity: 0.3; stroke-width: 0.8"/>
     </g>
     <g id="line2d_28">
      <g>
       <use xlink:href="#m14d1dc0654" x="54.92" y="41.984459" style="stroke: #000000; stroke-width: 0.8"/>
      </g>
     </g>
     <g id="text_15">
      <!-- 0.94 -->
      <g transform="translate(25.654375 45.783677) scale(0.1 -0.1)">
       <use xlink:href="#DejaVuSans-30"/>
       <use xlink:href="#DejaVuSans-2e" x="63.623047"/>
       <use xlink:href="#DejaVuSans-39" x="95.410156"/>
       <use xlink:href="#DejaVuSans-34" x="159.033203"/>
      </g>
     </g>
    </g>
    <g id="text_16">
     <!-- Global Accuracy -->
     <g transform="translate(19.15875 243.5795) rotate(-90) scale(0.12 -0.12)">
      <defs>
       <path id="DejaVuSans-47" d="M 3809 666 
L 3809 1919 
L 2778 1919 
L 2778 2438 
L 4434 2438 
L 4434 434 
Q 4069 175 3628 42 
Q 3188 -91 2688 -91 
Q 1594 -91 976 548 
Q 359 1188 359 2328 
Q 359 3472 976 4111 
Q 1594 4750 2688 4750 
Q 3144 4750 3555 4637 
Q 3966 4525 4313 4306 
L 4313 3634 
Q 3963 3931 3569 4081 
Q 3175 4231 2741 4231 
Q 1884 4231 1454 3753 
Q 1025 3275 1025 2328 
Q 1025 1384 1454 906 
Q 1884 428 2741 428 
Q 3075 428 3337 486 
Q 3600 544 3809 666 
z
" transform="scale(0.015625)"/>
       <path id="DejaVuSans-62" d="M 3116 1747 
Q 3116 2381 2855 2742 
Q 2594 3103 2138 3103 
Q 1681 3103 1420 2742 
Q 1159 2381 1159 1747 
Q 1159 1113 1420 752 
Q 1681 391 2138 391 
Q 2594 391 2855 752 
Q 3116 1113 3116 1747 
z
M 1159 2969 
Q 1341 3281 1617 3432 
Q 1894 3584 2278 3584 
Q 2916 3584 3314 3078 
Q 3713 2572 3713 1747 
Q 3713 922 3314 415 
Q 2916 -91 2278 -91 
Q 1894 -91 1617 61 
Q 1341 213 1159 525 
L 1159 0 
L 581 0 
L 581 4863 
L 1159 4863 
L 1159 2969 
z
" transform="scale(0.015625)"/>
       <path id="DejaVuSans-79" d="M 2059 -325 
Q 1816 -950 1584 -1140 
Q 1353 -1331 966 -1331 
L 506 -1331 
L 506 -850 
L 844 -850 
Q 1081 -850 1212 -737 
Q 1344 -625 1503 -206 
L 1606 56 
L 191 3500 
L 800 3500 
L 1894 763 
L 2988 3500 
L 3597 3500 
L 2059 -325 
z
" transform="scale(0.015625)"/>
      </defs>
      <use xlink:href="#DejaVuSans-47"/>
      <use xlink:href="#DejaVuSans-6c" x="77.490234"/>
      <use xlink:href="#DejaVuSans-6f" x="105.273438"/>
      <use xlink:href="#DejaVuSans-62" x="166.455078"/>
      <use xlink:href="#DejaVuSans-61" x="229.931641"/>
      <use xlink:href="#DejaVuSans-6c" x="291.210938"/>
      <use xlink:href="#DejaVuSans-20" x="318.994141"/>
      <use xlink:href="#DejaVuSans-41" x="350.78125"/>
      <use xlink:href="#DejaVuSans-63" x="417.439453"/>
      <use xlink:href="#DejaVuSans-63" x="472.419922"/>
      <use xlink:href="#DejaVuSans-75" x="527.400391"/>
      <use xlink:href="#DejaVuSans-72" x="590.779297"/>
      <use xlink:href="#DejaVuSans-61" x="631.892578"/>
      <use xlink:href="#DejaVuSans-63" x="693.171875"/>
      <use xlink:href="#DejaVuSans-79" x="748.152344"/>
     </g>
    </g>
   </g>
   <g id="line2d_29">
    <path d="M 84.66 160.710299 
L 90.668081 155.252642 
L 96.676162 149.794985 
L 102.684242 144.337328 
L 108.692323 138.87967 
L 114.700404 133.422013 
L 120.708485 127.964356 
L 126.716566 122.506699 
L 132.724646 117.049041 
L 138.732727 111.591384 
L 144.740808 106.133727 
L 150.748889 100.67607 
L 156.75697 98.949846 
L 162.765051 97.223622 
L 168.773131 95.497398 
L 174.781212 93.771174 
L 180.789293 92.04495 
L 186.797374 90.318727 
L 192.805455 88.592503 
L 198.813535 86.866279 
L 204.821616 85.140055 
L 210.829697 83.413831 
L 216.837778 81.687607 
L 222.845859 80.746031 
L 228.853939 79.804454 
L 234.86202 78.862877 
L 240.870101 77.921301 
L 246.878182 76.979724 
L 252.886263 76.038147 
L 258.894343 75.096571 
L 264.902424 74.154994 
L 270.910505 73.213418 
L 276.918586 72.271841 
L 282.926667 71.330264 
L 288.934747 70.597927 
L 294.942828 69.865589 
L 300.950909 69.133252 
L 306.95899 68.400915 
L 312.967071 67.668577 
L 318.975152 66.93624 
L 324.983232 66.203902 
L 330.991313 65.471565 
L 336.999394 64.739228 
L 343.007475 64.00689 
L 349.015556 63.274553 
L 355.023636 62.803765 
L 361.031717 62.332976 
L 367.039798 61.862188 
L 373.047879 61.3914 
L 379.05596 60.920611 
L 385.06404 60.449823 
L 391.072121 59.979035 
L 397.080202 59.508246 
L 403.088283 59.037458 
L 409.096364 58.56667 
L 415.104444 58.095881 
L 421.112525 58.026135 
L 427.120606 57.956389 
L 433.128687 57.886642 
L 439.136768 57.816896 
L 445.144848 57.747149 
L 451.152929 57.677403 
L 457.16101 57.607656 
L 463.169091 57.53791 
L 469.177172 57.468164 
L 475.185253 57.398417 
L 481.193333 57.328671 
L 487.201414 56.700953 
L 493.209495 56.073235 
L 499.217576 55.445517 
L 505.225657 54.8178 
L 511.233737 54.190082 
L 517.241818 53.562364 
L 523.249899 52.934646 
L 529.25798 52.306929 
L 535.266061 51.679211 
L 541.274141 51.051493 
L 547.282222 50.423775 
L 553.290303 50.162226 
L 559.298384 49.900677 
L 565.306465 49.639128 
L 571.314545 49.377579 
L 577.322626 49.11603 
L 583.330707 48.854481 
L 589.338788 48.592932 
L 595.346869 48.331383 
L 601.354949 48.069834 
L 607.36303 47.808285 
L 613.371111 47.546736 
L 619.379192 47.058511 
L 625.387273 46.570286 
L 631.395354 46.082061 
L 637.403434 45.593836 
L 643.411515 45.105611 
L 649.419596 44.617386 
L 655.427677 44.129161 
L 661.435758 43.640936 
L 667.443838 43.152711 
L 673.451919 42.664486 
L 679.46 42.176261 
" clip-path="url(#p8c9d966e5f)" style="fill: none; stroke: #ed1c24; stroke-width: 2; stroke-linecap: square"/>
   </g>
   <g id="line2d_30">
    <defs>
     <path id="maea7aaecf7" d="M 0 3 
C 0.795609 3 1.55874 2.683901 2.12132 2.12132 
C 2.683901 1.55874 3 0.795609 3 0 
C 3 -0.795609 2.683901 -1.55874 2.12132 -2.12132 
C 1.55874 -2.683901 0.795609 -3 0 -3 
C -0.795609 -3 -1.55874 -2.683901 -2.12132 -2.12132 
C -2.683901 -1.55874 -3 -0.795609 -3 0 
C -3 0.795609 -2.683901 1.55874 -2.12132 2.12132 
C -1.55874 2.683901 -0.795609 3 0 3 
z
" style="stroke: #ed1c24"/>
    </defs>
    <g clip-path="url(#p8c9d966e5f)">
     <use xlink:href="#maea7aaecf7" x="84.66" y="160.710299" style="fill: #ed1c24; stroke: #ed1c24"/>
     <use xlink:href="#maea7aaecf7" x="150.748889" y="100.67607" style="fill: #ed1c24; stroke: #ed1c24"/>
     <use xlink:href="#maea7aaecf7" x="216.837778" y="81.687607" style="fill: #ed1c24; stroke: #ed1c24"/>
     <use xlink:href="#maea7aaecf7" x="282.926667" y="71.330264" style="fill: #ed1c24; stroke: #ed1c24"/>
     <use xlink:href="#maea7aaecf7" x="349.015556" y="63.274553" style="fill: #ed1c24; stroke: #ed1c24"/>
     <use xlink:href="#maea7aaecf7" x="415.104444" y="58.095881" style="fill: #ed1c24; stroke: #ed1c24"/>
     <use xlink:href="#maea7aaecf7" x="481.193333" y="57.328671" style="fill: #ed1c24; stroke: #ed1c24"/>
     <use xlink:href="#maea7aaecf7" x="547.282222" y="50.423775" style="fill: #ed1c24; stroke: #ed1c24"/>
     <use xlink:href="#maea7aaecf7" x="613.371111" y="47.546736" style="fill: #ed1c24; stroke: #ed1c24"/>
     <use xlink:href="#maea7aaecf7" x="679.46" y="42.176261" style="fill: #ed1c24; stroke: #ed1c24"/>
    </g>
   </g>
   <g id="line2d_31">
    <path d="M 84.66 250.282137 
L 90.668081 243.377242 
L 96.676162 236.472346 
L 102.684242 229.567451 
L 108.692323 222.662555 
L 114.700404 215.75766 
L 120.708485 208.852764 
L 126.716566 201.947869 
L 132.724646 195.042974 
L 138.732727 188.138078 
L 144.740808 181.233183 
L 150.748889 174.328287 
L 156.75697 170.405051 
L 162.765051 166.481815 
L 168.773131 162.558579 
L 174.781212 158.635343 
L 180.789293 154.712107 
L 186.797374 150.788871 
L 192.805455 146.865635 
L 198.813535 142.942399 
L 204.821616 139.019163 
L 210.829697 135.095927 
L 216.837778 131.172691 
L 222.845859 129.045425 
L 228.853939 126.91816 
L 234.86202 124.790894 
L 240.870101 122.663628 
L 246.878182 120.536362 
L 252.886263 118.409097 
L 258.894343 116.281831 
L 264.902424 114.154565 
L 270.910505 112.027299 
L 276.918586 109.900034 
L 282.926667 107.772768 
L 288.934747 106.639388 
L 294.942828 105.506009 
L 300.950909 104.37263 
L 306.95899 103.239251 
L 312.967071 102.105871 
L 318.975152 100.972492 
L 324.983232 99.839113 
L 330.991313 98.705733 
L 336.999394 97.572354 
L 343.007475 96.438975 
L 349.015556 95.305596 
L 355.023636 94.904554 
L 361.031717 94.503512 
L 367.039798 94.10247 
L 373.047879 93.701428 
L 379.05596 93.300386 
L 385.06404 92.899344 
L 391.072121 92.498302 
L 397.080202 92.09726 
L 403.088283 91.696218 
L 409.096364 91.295176 
L 415.104444 90.894135 
L 421.112525 90.597712 
L 427.120606 90.30129 
L 433.128687 90.004868 
L 439.136768 89.708445 
L 445.144848 89.412023 
L 451.152929 89.115601 
L 457.16101 88.819179 
L 463.169091 88.522756 
L 469.177172 88.226334 
L 475.185253 87.929912 
L 481.193333 87.633489 
L 487.201414 87.197574 
L 493.209495 86.761659 
L 499.217576 86.325744 
L 505.225657 85.889829 
L 511.233737 85.453914 
L 517.241818 85.017999 
L 523.249899 84.582084 
L 529.25798 84.146169 
L 535.266061 83.710253 
L 541.274141 83.274338 
L 547.282222 82.838423 
L 553.290303 82.646621 
L 559.298384 82.454818 
L 565.306465 82.263015 
L 571.314545 82.071213 
L 577.322626 81.87941 
L 583.330707 81.687607 
L 589.338788 81.495805 
L 595.346869 81.304002 
L 601.354949 81.112199 
L 607.36303 80.920397 
L 613.371111 80.728594 
L 619.379192 80.519355 
L 625.387273 80.310116 
L 631.395354 80.100876 
L 637.403434 79.891637 
L 643.411515 79.682398 
L 649.419596 79.473159 
L 655.427677 79.263919 
L 661.435758 79.05468 
L 667.443838 78.845441 
L 673.451919 78.636202 
L 679.46 78.426962 
" clip-path="url(#p8c9d966e5f)" style="fill: none; stroke: #0072bd; stroke-width: 2; stroke-linecap: square"/>
   </g>
   <g id="line2d_32">
    <defs>
     <path id="m22403183da" d="M 0 3 
C 0.795609 3 1.55874 2.683901 2.12132 2.12132 
C 2.683901 1.55874 3 0.795609 3 0 
C 3 -0.795609 2.683901 -1.55874 2.12132 -2.12132 
C 1.55874 -2.683901 0.795609 -3 0 -3 
C -0.795609 -3 -1.55874 -2.683901 -2.12132 -2.12132 
C -2.683901 -1.55874 -3 -0.795609 -3 0 
C -3 0.795609 -2.683901 1.55874 -2.12132 2.12132 
C -1.55874 2.683901 -0.795609 3 0 3 
z
" style="stroke: #0072bd"/>
    </defs>
    <g clip-path="url(#p8c9d966e5f)">
     <use xlink:href="#m22403183da" x="84.66" y="250.282137" style="fill: #0072bd; stroke: #0072bd"/>
     <use xlink:href="#m22403183da" x="150.748889" y="174.328287" style="fill: #0072bd; stroke: #0072bd"/>
     <use xlink:href="#m22403183da" x="216.837778" y="131.172691" style="fill: #0072bd; stroke: #0072bd"/>
     <use xlink:href="#m22403183da" x="282.926667" y="107.772768" style="fill: #0072bd; stroke: #0072bd"/>
     <use xlink:href="#m22403183da" x="349.015556" y="95.305596" style="fill: #0072bd; stroke: #0072bd"/>
     <use xlink:href="#m22403183da" x="415.104444" y="90.894135" style="fill: #0072bd; stroke: #0072bd"/>
     <use xlink:href="#m22403183da" x="481.193333" y="87.633489" style="fill: #0072bd; stroke: #0072bd"/>
     <use xlink:href="#m22403183da" x="547.282222" y="82.838423" style="fill: #0072bd; stroke: #0072bd"/>
     <use xlink:href="#m22403183da" x="613.371111" y="80.728594" style="fill: #0072bd; stroke: #0072bd"/>
     <use xlink:href="#m22403183da" x="679.46" y="78.426962" style="fill: #0072bd; stroke: #0072bd"/>
    </g>
   </g>
   <g id="line2d_33">
    <path d="M 84.66 348.101489 
L 90.668081 329.479195 
L 96.676162 310.856901 
L 102.684242 292.234608 
L 108.692323 273.612314 
L 114.700404 254.99002 
L 120.708485 236.367727 
L 126.716566 217.745433 
L 132.724646 199.123139 
L 138.732727 180.500845 
L 144.740808 161.878552 
L 150.748889 143.256258 
L 156.75697 141.285922 
L 162.765051 139.315585 
L 168.773131 137.345249 
L 174.781212 135.374913 
L 180.789293 133.404577 
L 186.797374 131.43424 
L 192.805455 129.463904 
L 198.813535 127.493568 
L 204.821616 125.523231 
L 210.829697 123.552895 
L 216.837778 121.582559 
L 222.845859 119.856335 
L 228.853939 118.130111 
L 234.86202 116.403887 
L 240.870101 114.677663 
L 246.878182 112.951439 
L 252.886263 111.225215 
L 258.894343 109.498992 
L 264.902424 107.772768 
L 270.910505 106.046544 
L 276.918586 104.32032 
L 282.926667 102.594096 
L 288.934747 101.530463 
L 294.942828 100.46683 
L 300.950909 99.403198 
L 306.95899 98.339565 
L 312.967071 97.275932 
L 318.975152 96.212299 
L 324.983232 95.148666 
L 330.991313 94.085033 
L 336.999394 93.0214 
L 343.007475 91.957767 
L 349.015556 90.894135 
L 355.023636 89.691009 
L 361.031717 88.487883 
L 367.039798 87.284757 
L 373.047879 86.081632 
L 379.05596 84.878506 
L 385.06404 83.67538 
L 391.072121 82.472255 
L 397.080202 81.269129 
L 403.088283 80.066003 
L 409.096364 78.862877 
L 415.104444 77.659752 
L 421.112525 77.15409 
L 427.120606 76.648429 
L 433.128687 76.142767 
L 439.136768 75.637106 
L 445.144848 75.131444 
L 451.152929 74.625782 
L 457.16101 74.120121 
L 463.169091 73.614459 
L 469.177172 73.108798 
L 475.185253 72.603136 
L 481.193333 72.097475 
L 487.201414 72.062602 
L 493.209495 72.027728 
L 499.217576 71.992855 
L 505.225657 71.957982 
L 511.233737 71.923109 
L 517.241818 71.888236 
L 523.249899 71.853362 
L 529.25798 71.818489 
L 535.266061 71.783616 
L 541.274141 71.748743 
L 547.282222 71.71387 
L 553.290303 71.417447 
L 559.298384 71.121025 
L 565.306465 70.824603 
L 571.314545 70.52818 
L 577.322626 70.231758 
L 583.330707 69.935336 
L 589.338788 69.638914 
L 595.346869 69.342491 
L 601.354949 69.046069 
L 607.36303 68.749647 
L 613.371111 68.453224 
L 619.379192 67.773197 
L 625.387273 67.093169 
L 631.395354 66.413142 
L 637.403434 65.733114 
L 643.411515 65.053087 
L 649.419596 64.373059 
L 655.427677 63.693031 
L 661.435758 63.013004 
L 667.443838 62.332976 
L 673.451919 61.652949 
L 679.46 60.972921 
" clip-path="url(#p8c9d966e5f)" style="fill: none; stroke: #77ac30; stroke-width: 2; stroke-linecap: square"/>
   </g>
   <g id="line2d_34">
    <defs>
     <path id="ma192cf84e2" d="M 0 3 
C 0.795609 3 1.55874 2.683901 2.12132 2.12132 
C 2.683901 1.55874 3 0.795609 3 0 
C 3 -0.795609 2.683901 -1.55874 2.12132 -2.12132 
C 1.55874 -2.683901 0.795609 -3 0 -3 
C -0.795609 -3 -1.55874 -2.683901 -2.12132 -2.12132 
C -2.683901 -1.55874 -3 -0.795609 -3 0 
C -3 0.795609 -2.683901 1.55874 -2.12132 2.12132 
C -1.55874 2.683901 -0.795609 3 0 3 
z
" style="stroke: #77ac30"/>
    </defs>
    <g clip-path="url(#p8c9d966e5f)">
     <use xlink:href="#ma192cf84e2" x="84.66" y="348.101489" style="fill: #77ac30; stroke: #77ac30"/>
     <use xlink:href="#ma192cf84e2" x="150.748889" y="143.256258" style="fill: #77ac30; stroke: #77ac30"/>
     <use xlink:href="#ma192cf84e2" x="216.837778" y="121.582559" style="fill: #77ac30; stroke: #77ac30"/>
     <use xlink:href="#ma192cf84e2" x="282.926667" y="102.594096" style="fill: #77ac30; stroke: #77ac30"/>
     <use xlink:href="#ma192cf84e2" x="349.015556" y="90.894135" style="fill: #77ac30; stroke: #77ac30"/>
     <use xlink:href="#ma192cf84e2" x="415.104444" y="77.659752" style="fill: #77ac30; stroke: #77ac30"/>
     <use xlink:href="#ma192cf84e2" x="481.193333" y="72.097475" style="fill: #77ac30; stroke: #77ac30"/>
     <use xlink:href="#ma192cf84e2" x="547.282222" y="71.71387" style="fill: #77ac30; stroke: #77ac30"/>
     <use xlink:href="#ma192cf84e2" x="613.371111" y="68.453224" style="fill: #77ac30; stroke: #77ac30"/>
     <use xlink:href="#ma192cf84e2" x="679.46" y="60.972921" style="fill: #77ac30; stroke: #77ac30"/>
    </g>
   </g>
   <g id="patch_3">
    <path d="M 54.92 363.39775 
L 54.92 26.88 
" style="fill: none; stroke: #000000; stroke-width: 0.8; stroke-linejoin: miter; stroke-linecap: square"/>
   </g>
   <g id="patch_4">
    <path d="M 54.92 363.39775 
L 709.2 363.39775 
" style="fill: none; stroke: #000000; stroke-width: 0.8; stroke-linejoin: miter; stroke-linecap: square"/>
   </g>
   <g id="text_17">
    <!-- Global Accuracy per Round (FedAvg vs FedAvgM) -->
    <g transform="translate(222.885156 20.88) scale(0.13 -0.13)">
     <use xlink:href="#DejaVuSans-47"/>
     <use xlink:href="#DejaVuSans-6c" x="77.490234"/>
     <use xlink:href="#DejaVuSans-6f" x="105.273438"/>
     <use xlink:href="#DejaVuSans-62" x="166.455078"/>
     <use xlink:href="#DejaVuSans-61" x="229.931641"/>
     <use xlink:href="#DejaVuSans-6c" x="291.210938"/>
     <use xlink:href="#DejaVuSans-20" x="318.994141"/>
     <use xlink:href="#DejaVuSans-41" x="350.78125"/>
     <use xlink:href="#DejaVuSans-63" x="417.439453"/>
     <use xlink:href="#DejaVuSans-63" x="472.419922"/>
     <use xlink:href="#DejaVuSans-75" x="527.400391"/>
     <use xlink:href="#DejaVuSans-72" x="590.779297"/>
     <use xlink:href="#DejaVuSans-61" x="631.892578"/>
     <use xlink:href="#DejaVuSans-63" x="693.171875"/>
     <use xlink:href="#DejaVuSans-79" x="748.152344"/>
     <use xlink:href="#DejaVuSans-20" x="807.332031"/>
     <use xlink:href="#DejaVuSans-70" x="839.119141"/>
     <use xlink:href="#DejaVuSans-65" x="902.595703"/>
     <use xlink:href="#DejaVuSans-72" x="964.119141"/>
     <use xlink:href="#DejaVuSans-20" x="1005.232422"/>
     <use xlink:href="#DejaVuSans-52" x="1037.019531"/>
     <use xlink:href="#DejaVuSans-6f" x="1102.001953"/>
     <use xlink:href="#DejaVuSans-75" x="1163.183594"/>
     <use xlink:href="#DejaVuSans-6e" x="1226.5625"/>
     <use xlink:href="#DejaVuSans-64" x="1289.941406"/>
     <use xlink:href="#DejaVuSans-20" x="1353.417969"/>
     <use xlink:href="#DejaVuSans-28" x="1385.205078"/>
     <use xlink:href="#DejaVuSans-46" x="1424.21875"/>
     <use xlink:href="#DejaVuSans-65" x="1476.238281"/>
     <use xlink:href="#DejaVuSans-64" x="1537.761719"/>
     <use xlink:href="#DejaVuSans-41" x="1601.238281"/>
     <use xlink:href="#DejaVuSans-76" x="1663.771484"/>
     <use xlink:href="#DejaVuSans-67" x="1722.951172"/>
     <use xlink:href="#DejaVuSans-20" x="1786.427734"/>
     <use xlink:href="#DejaVuSans-76" x="1818.214844"/>
     <use xlink:href="#DejaVuSans-73" x="1877.394531"/>
     <use xlink:href="#DejaVuSans-20" x="1929.494141"/>
     <use xlink:href="#DejaVuSans-46" x="1961.28125"/>
     <use xlink:href="#DejaVuSans-65" x="2013.300781"/>
     <use xlink:href="#DejaVuSans-64" x="2074.824219"/>
     <use xlink:href="#DejaVuSans-41" x="2138.300781"/>
     <use xlink:href="#DejaVuSans-76" x="2200.833984"/>
     <use xlink:href="#DejaVuSans-67" x="2260.013672"/>
     <use xlink:href="#DejaVuSans-4d" x="2323.490234"/>
     <use xlink:href="#DejaVuSans-29" x="2409.769531"/>
    </g>
   </g>
   <g id="legend_1">
    <g id="patch_5">
     <path d="M 475.421875 358.39775 
L 702.2 358.39775 
Q 704.2 358.39775 704.2 356.39775 
L 704.2 313.300875 
Q 704.2 311.300875 702.2 311.300875 
L 475.421875 311.300875 
Q 473.421875 311.300875 473.421875 313.300875 
L 473.421875 356.39775 
Q 473.421875 358.39775 475.421875 358.39775 
z
" style="fill: #ffffff; opacity: 0.8; stroke: #cccccc; stroke-linejoin: miter"/>
    </g>
    <g id="line2d_35">
     <path d="M 477.421875 319.399313 
L 487.421875 319.399313 
L 497.421875 319.399313 
" style="fill: none; stroke: #ed1c24; stroke-width: 2; stroke-linecap: square"/>
    </g>
    <g id="text_18">
     <!-- FedAvg (IID) -->
     <g transform="translate(505.421875 322.899313) scale(0.1 -0.1)">
      <defs>
       <path id="DejaVuSans-49" d="M 628 4666 
L 1259 4666 
L 1259 0 
L 628 0 
L 628 4666 
z
" transform="scale(0.015625)"/>
       <path id="DejaVuSans-44" d="M 1259 4147 
L 1259 519 
L 2022 519 
Q 2988 519 3436 956 
Q 3884 1394 3884 2338 
Q 3884 3275 3436 3711 
Q 2988 4147 2022 4147 
L 1259 4147 
z
M 628 4666 
L 1925 4666 
Q 3281 4666 3915 4102 
Q 4550 3538 4550 2338 
Q 4550 1131 3912 565 
Q 3275 0 1925 0 
L 628 0 
L 628 4666 
z
" transform="scale(0.015625)"/>
      </defs>
      <use xlink:href="#DejaVuSans-46"/>
      <use xlink:href="#DejaVuSans-65" x="52.019531"/>
      <use xlink:href="#DejaVuSans-64" x="113.542969"/>
      <use xlink:href="#DejaVuSans-41" x="177.019531"/>
      <use xlink:href="#DejaVuSans-76" x="239.552734"/>
      <use xlink:href="#DejaVuSans-67" x="298.732422"/>
      <use xlink:href="#DejaVuSans-20" x="362.208984"/>
      <use xlink:href="#DejaVuSans-28" x="393.996094"/>
      <use xlink:href="#DejaVuSans-49" x="433.009766"/>
      <use xlink:href="#DejaVuSans-49" x="462.501953"/>
      <use xlink:href="#DejaVuSans-44" x="491.994141"/>
      <use xlink:href="#DejaVuSans-29" x="568.996094"/>
     </g>
    </g>
    <g id="line2d_36">
     <path d="M 477.421875 334.077437 
L 487.421875 334.077437 
L 497.421875 334.077437 
" style="fill: none; stroke: #0072bd; stroke-width: 2; stroke-linecap: square"/>
    </g>
    <g id="text_19">
     <!-- FedAvg (Non-IID) -->
     <g transform="translate(505.421875 337.577437) scale(0.1 -0.1)">
      <defs>
       <path id="DejaVuSans-4e" d="M 628 4666 
L 1478 4666 
L 3547 763 
L 3547 4666 
L 4159 4666 
L 4159 0 
L 3309 0 
L 1241 3903 
L 1241 0 
L 628 0 
L 628 4666 
z
" transform="scale(0.015625)"/>
      </defs>
      <use xlink:href="#DejaVuSans-46"/>
      <use xlink:href="#DejaVuSans-65" x="52.019531"/>
      <use xlink:href="#DejaVuSans-64" x="113.542969"/>
      <use xlink:href="#DejaVuSans-41" x="177.019531"/>
      <use xlink:href="#DejaVuSans-76" x="239.552734"/>
      <use xlink:href="#DejaVuSans-67" x="298.732422"/>
      <use xlink:href="#DejaVuSans-20" x="362.208984"/>
      <use xlink:href="#DejaVuSans-28" x="393.996094"/>
      <use xlink:href="#DejaVuSans-4e" x="433.009766"/>
      <use xlink:href="#DejaVuSans-6f" x="507.814453"/>
      <use xlink:href="#DejaVuSans-6e" x="568.996094"/>
      <use xlink:href="#DejaVuSans-2d" x="632.375"/>
      <use xlink:href="#DejaVuSans-49" x="668.458984"/>
      <use xlink:href="#DejaVuSans-49" x="697.951172"/>
      <use xlink:href="#DejaVuSans-44" x="727.443359"/>
      <use xlink:href="#DejaVuSans-29" x="804.445312"/>
     </g>
    </g>
    <g id="line2d_37">
     <path d="M 477.421875 348.818062 
L 487.421875 348.818062 
L 497.421875 348.818062 
" style="fill: none; stroke: #77ac30; stroke-width: 2; stroke-linecap: square"/>
    </g>
    <g id="text_20">
     <!-- FedAvgM (Non-IID, Momentum(β)=0.2) -->
     <g transform="translate(505.421875 352.318062) scale(0.1 -0.1)">
      <use xlink:href="#DejaVuSans-46"/>
      <use xlink:href="#DejaVuSans-65" x="52.019531"/>
      <use xlink:href="#DejaVuSans-64" x="113.542969"/>
      <use xlink:href="#DejaVuSans-41" x="177.019531"/>
      <use xlink:href="#DejaVuSans-76" x="239.552734"/>
      <use xlink:href="#DejaVuSans-67" x="298.732422"/>
      <use xlink:href="#DejaVuSans-4d" x="362.208984"/>
      <use xlink:href="#DejaVuSans-20" x="448.488281"/>
      <use xlink:href="#DejaVuSans-28" x="480.275391"/>
      <use xlink:href="#DejaVuSans-4e" x="519.289062"/>
      <use xlink:href="#DejaVuSans-6f" x="594.09375"/>
      <use xlink:href="#DejaVuSans-6e" x="655.275391"/>
      <use xlink:href="#DejaVuSans-2d" x="718.654297"/>
      <use xlink:href="#DejaVuSans-49" x="754.738281"/>
      <use xlink:href="#DejaVuSans-49" x="784.230469"/>
      <use xlink:href="#DejaVuSans-44" x="813.722656"/>
      <use xlink:href="#DejaVuSans-2c" x="890.724609"/>
      <use xlink:href="#DejaVuSans-20" x="922.511719"/>
      <use xlink:href="#DejaVuSans-4d" x="954.298828"/>
      <use xlink:href="#DejaVuSans-6f" x="1040.578125"/>
      <use xlink:href="#DejaVuSans-6d" x="1101.759766"/>
      <use xlink:href="#DejaVuSans-65" x="1199.171875"/>
      <use xlink:href="#DejaVuSans-6e" x="1260.695312"/>
      <use xlink:href="#DejaVuSans-74" x="1324.074219"/>
      <use xlink:href="#DejaVuSans-75" x="1363.283203"/>
      <use xlink:href="#DejaVuSans-6d" x="1426.662109"/>
      <use xlink:href="#DejaVuSans-28" x="1524.074219"/>
      <use xlink:href="#DejaVuSans-3b2" x="1563.087891"/>
      <use xlink:href="#DejaVuSans-29" x="1626.90625"/>
      <use xlink:href="#DejaVuSans-3d" x="1665.919922"/>
      <use xlink:href="#DejaVuSans-30" x="1749.708984"/>
      <use xlink:href="#DejaVuSans-2e" x="1813.332031"/>
      <use xlink:href="#DejaVuSans-32" x="1845.119141"/>
      <use xlink:href="#DejaVuSans-29" x="1908.742188"/>
     </g>
    </g>
   </g>
  </g>
 </g>
 <defs>
  <clipPath id="p8c9d966e5f">
   <rect x="54.92" y="26.88" width="654.28" height="336.51775"/>
  </clipPath>
 </defs>
</svg>
