<?xml version="1.0" encoding="utf-8" standalone="no"?>
<!DOCTYPE svg PUBLIC "-//W3C//DTD SVG 1.1//EN"
  "http://www.w3.org/Graphics/SVG/1.1/DTD/svg11.dtd">
<svg xmlns:xlink="http://www.w3.org/1999/xlink" width="720pt" height="432pt" viewBox="0 0 720 432" xmlns="http://www.w3.org/2000/svg" version="1.1">
 <metadata>
  <rdf:RDF xmlns:dc="http://purl.org/dc/elements/1.1/" xmlns:cc="http://creativecommons.org/ns#" xmlns:rdf="http://www.w3.org/1999/02/22-rdf-syntax-ns#">
   <cc:Work>
    <dc:type rdf:resource="http://purl.org/dc/dcmitype/StillImage"/>
    <dc:date>2025-04-18T10:54:58.066391</dc:date>
    <dc:format>image/svg+xml</dc:format>
    <dc:creator>
     <cc:Agent>
      <dc:title>Matplotlib v3.9.2, https://matplotlib.org/</dc:title>
     </cc:Agent>
    </dc:creator>
   </cc:Work>
  </rdf:RDF>
 </metadata>
 <defs>
  <style type="text/css">*{stroke-linejoin: round; stroke-linecap: butt}</style>
 </defs>
 <g id="figure_1">
  <g id="patch_1">
   <path d="M 0 432 
L 720 432 
L 720 0 
L 0 0 
z
" style="fill: #ffffff"/>
  </g>
  <g id="axes_1">
   <g id="patch_2">
    <path d="M 54.92 375.92575 
L 709.2 375.92575 
L 709.2 25.44 
L 54.92 25.44 
z
" style="fill: #ffffff"/>
   </g>
   <g id="matplotlib.axis_1">
    <g id="xtick_1">
     <g id="line2d_1">
      <path d="M 150.748889 375.92575 
L 150.748889 25.44 
" clip-path="url(#pd325c66210)" style="fill: none; stroke-dasharray: 2.96,1.28; stroke-dashoffset: 0; stroke: #b0b0b0; stroke-opacity: 0.2; stroke-width: 0.8"/>
     </g>
     <g id="line2d_2">
      <defs>
       <path id="m9db94e525f" d="M 0 0 
L 0 3.5 
" style="stroke: #000000; stroke-width: 0.8"/>
      </defs>
      <g>
       <use xlink:href="#m9db94e525f" x="150.748889" y="375.92575" style="stroke: #000000; stroke-width: 0.8"/>
      </g>
     </g>
     <g id="text_1">
      <!-- 2 -->
      <g transform="translate(147.567639 390.524188) scale(0.1 -0.1)">
       <defs>
        <path id="DejaVuSans-32" d="M 1228 531 
L 3431 531 
L 3431 0 
L 469 0 
L 469 531 
Q 828 903 1448 1529 
Q 2069 2156 2228 2338 
Q 2531 2678 2651 2914 
Q 2772 3150 2772 3378 
Q 2772 3750 2511 3984 
Q 2250 4219 1831 4219 
Q 1534 4219 1204 4116 
Q 875 4013 500 3803 
L 500 4441 
Q 881 4594 1212 4672 
Q 1544 4750 1819 4750 
Q 2544 4750 2975 4387 
Q 3406 4025 3406 3419 
Q 3406 3131 3298 2873 
Q 3191 2616 2906 2266 
Q 2828 2175 2409 1742 
Q 1991 1309 1228 531 
z
" transform="scale(0.015625)"/>
       </defs>
       <use xlink:href="#DejaVuSans-32"/>
      </g>
     </g>
    </g>
    <g id="xtick_2">
     <g id="line2d_3">
      <path d="M 282.926667 375.92575 
L 282.926667 25.44 
" clip-path="url(#pd325c66210)" style="fill: none; stroke-dasharray: 2.96,1.28; stroke-dashoffset: 0; stroke: #b0b0b0; stroke-opacity: 0.2; stroke-width: 0.8"/>
     </g>
     <g id="line2d_4">
      <g>
       <use xlink:href="#m9db94e525f" x="282.926667" y="375.92575" style="stroke: #000000; stroke-width: 0.8"/>
      </g>
     </g>
     <g id="text_2">
      <!-- 4 -->
      <g transform="translate(279.745417 390.524188) scale(0.1 -0.1)">
       <defs>
        <path id="DejaVuSans-34" d="M 2419 4116 
L 825 1625 
L 2419 1625 
L 2419 4116 
z
M 2253 4666 
L 3047 4666 
L 3047 1625 
L 3713 1625 
L 3713 1100 
L 3047 1100 
L 3047 0 
L 2419 0 
L 2419 1100 
L 313 1100 
L 313 1709 
L 2253 4666 
z
" transform="scale(0.015625)"/>
       </defs>
       <use xlink:href="#DejaVuSans-34"/>
      </g>
     </g>
    </g>
    <g id="xtick_3">
     <g id="line2d_5">
      <path d="M 415.104444 375.92575 
L 415.104444 25.44 
" clip-path="url(#pd325c66210)" style="fill: none; stroke-dasharray: 2.96,1.28; stroke-dashoffset: 0; stroke: #b0b0b0; stroke-opacity: 0.2; stroke-width: 0.8"/>
     </g>
     <g id="line2d_6">
      <g>
       <use xlink:href="#m9db94e525f" x="415.104444" y="375.92575" style="stroke: #000000; stroke-width: 0.8"/>
      </g>
     </g>
     <g id="text_3">
      <!-- 6 -->
      <g transform="translate(411.923194 390.524188) scale(0.1 -0.1)">
       <defs>
        <path id="DejaVuSans-36" d="M 2113 2584 
Q 1688 2584 1439 2293 
Q 1191 2003 1191 1497 
Q 1191 994 1439 701 
Q 1688 409 2113 409 
Q 2538 409 2786 701 
Q 3034 994 3034 1497 
Q 3034 2003 2786 2293 
Q 2538 2584 2113 2584 
z
M 3366 4563 
L 3366 3988 
Q 3128 4100 2886 4159 
Q 2644 4219 2406 4219 
Q 1781 4219 1451 3797 
Q 1122 3375 1075 2522 
Q 1259 2794 1537 2939 
Q 1816 3084 2150 3084 
Q 2853 3084 3261 2657 
Q 3669 2231 3669 1497 
Q 3669 778 3244 343 
Q 2819 -91 2113 -91 
Q 1303 -91 875 529 
Q 447 1150 447 2328 
Q 447 3434 972 4092 
Q 1497 4750 2381 4750 
Q 2619 4750 2861 4703 
Q 3103 4656 3366 4563 
z
" transform="scale(0.015625)"/>
       </defs>
       <use xlink:href="#DejaVuSans-36"/>
      </g>
     </g>
    </g>
    <g id="xtick_4">
     <g id="line2d_7">
      <path d="M 547.282222 375.92575 
L 547.282222 25.44 
" clip-path="url(#pd325c66210)" style="fill: none; stroke-dasharray: 2.96,1.28; stroke-dashoffset: 0; stroke: #b0b0b0; stroke-opacity: 0.2; stroke-width: 0.8"/>
     </g>
     <g id="line2d_8">
      <g>
       <use xlink:href="#m9db94e525f" x="547.282222" y="375.92575" style="stroke: #000000; stroke-width: 0.8"/>
      </g>
     </g>
     <g id="text_4">
      <!-- 8 -->
      <g transform="translate(544.100972 390.524188) scale(0.1 -0.1)">
       <defs>
        <path id="DejaVuSans-38" d="M 2034 2216 
Q 1584 2216 1326 1975 
Q 1069 1734 1069 1313 
Q 1069 891 1326 650 
Q 1584 409 2034 409 
Q 2484 409 2743 651 
Q 3003 894 3003 1313 
Q 3003 1734 2745 1975 
Q 2488 2216 2034 2216 
z
M 1403 2484 
Q 997 2584 770 2862 
Q 544 3141 544 3541 
Q 544 4100 942 4425 
Q 1341 4750 2034 4750 
Q 2731 4750 3128 4425 
Q 3525 4100 3525 3541 
Q 3525 3141 3298 2862 
Q 3072 2584 2669 2484 
Q 3125 2378 3379 2068 
Q 3634 1759 3634 1313 
Q 3634 634 3220 271 
Q 2806 -91 2034 -91 
Q 1263 -91 848 271 
Q 434 634 434 1313 
Q 434 1759 690 2068 
Q 947 2378 1403 2484 
z
M 1172 3481 
Q 1172 3119 1398 2916 
Q 1625 2713 2034 2713 
Q 2441 2713 2670 2916 
Q 2900 3119 2900 3481 
Q 2900 3844 2670 4047 
Q 2441 4250 2034 4250 
Q 1625 4250 1398 4047 
Q 1172 3844 1172 3481 
z
" transform="scale(0.015625)"/>
       </defs>
       <use xlink:href="#DejaVuSans-38"/>
      </g>
     </g>
    </g>
    <g id="xtick_5">
     <g id="line2d_9">
      <path d="M 679.46 375.92575 
L 679.46 25.44 
" clip-path="url(#pd325c66210)" style="fill: none; stroke-dasharray: 2.96,1.28; stroke-dashoffset: 0; stroke: #b0b0b0; stroke-opacity: 0.2; stroke-width: 0.8"/>
     </g>
     <g id="line2d_10">
      <g>
       <use xlink:href="#m9db94e525f" x="679.46" y="375.92575" style="stroke: #000000; stroke-width: 0.8"/>
      </g>
     </g>
     <g id="text_5">
      <!-- 10 -->
      <g transform="translate(673.0975 390.524188) scale(0.1 -0.1)">
       <defs>
        <path id="DejaVuSans-31" d="M 794 531 
L 1825 531 
L 1825 4091 
L 703 3866 
L 703 4441 
L 1819 4666 
L 2450 4666 
L 2450 531 
L 3481 531 
L 3481 0 
L 794 0 
L 794 531 
z
" transform="scale(0.015625)"/>
        <path id="DejaVuSans-30" d="M 2034 4250 
Q 1547 4250 1301 3770 
Q 1056 3291 1056 2328 
Q 1056 1369 1301 889 
Q 1547 409 2034 409 
Q 2525 409 2770 889 
Q 3016 1369 3016 2328 
Q 3016 3291 2770 3770 
Q 2525 4250 2034 4250 
z
M 2034 4750 
Q 2819 4750 3233 4129 
Q 3647 3509 3647 2328 
Q 3647 1150 3233 529 
Q 2819 -91 2034 -91 
Q 1250 -91 836 529 
Q 422 1150 422 2328 
Q 422 3509 836 4129 
Q 1250 4750 2034 4750 
z
" transform="scale(0.015625)"/>
       </defs>
       <use xlink:href="#DejaVuSans-31"/>
       <use xlink:href="#DejaVuSans-30" x="63.623047"/>
      </g>
     </g>
    </g>
    <g id="text_6">
     <!-- Communication Round -->
     <g transform="translate(313.878438 405.722) scale(0.12 -0.12)">
      <defs>
       <path id="DejaVuSans-43" d="M 4122 4306 
L 4122 3641 
Q 3803 3938 3442 4084 
Q 3081 4231 2675 4231 
Q 1875 4231 1450 3742 
Q 1025 3253 1025 2328 
Q 1025 1406 1450 917 
Q 1875 428 2675 428 
Q 3081 428 3442 575 
Q 3803 722 4122 1019 
L 4122 359 
Q 3791 134 3420 21 
Q 3050 -91 2638 -91 
Q 1578 -91 968 557 
Q 359 1206 359 2328 
Q 359 3453 968 4101 
Q 1578 4750 2638 4750 
Q 3056 4750 3426 4639 
Q 3797 4528 4122 4306 
z
" transform="scale(0.015625)"/>
       <path id="DejaVuSans-6f" d="M 1959 3097 
Q 1497 3097 1228 2736 
Q 959 2375 959 1747 
Q 959 1119 1226 758 
Q 1494 397 1959 397 
Q 2419 397 2687 759 
Q 2956 1122 2956 1747 
Q 2956 2369 2687 2733 
Q 2419 3097 1959 3097 
z
M 1959 3584 
Q 2709 3584 3137 3096 
Q 3566 2609 3566 1747 
Q 3566 888 3137 398 
Q 2709 -91 1959 -91 
Q 1206 -91 779 398 
Q 353 888 353 1747 
Q 353 2609 779 3096 
Q 1206 3584 1959 3584 
z
" transform="scale(0.015625)"/>
       <path id="DejaVuSans-6d" d="M 3328 2828 
Q 3544 3216 3844 3400 
Q 4144 3584 4550 3584 
Q 5097 3584 5394 3201 
Q 5691 2819 5691 2113 
L 5691 0 
L 5113 0 
L 5113 2094 
Q 5113 2597 4934 2840 
Q 4756 3084 4391 3084 
Q 3944 3084 3684 2787 
Q 3425 2491 3425 1978 
L 3425 0 
L 2847 0 
L 2847 2094 
Q 2847 2600 2669 2842 
Q 2491 3084 2119 3084 
Q 1678 3084 1418 2786 
Q 1159 2488 1159 1978 
L 1159 0 
L 581 0 
L 581 3500 
L 1159 3500 
L 1159 2956 
Q 1356 3278 1631 3431 
Q 1906 3584 2284 3584 
Q 2666 3584 2933 3390 
Q 3200 3197 3328 2828 
z
" transform="scale(0.015625)"/>
       <path id="DejaVuSans-75" d="M 544 1381 
L 544 3500 
L 1119 3500 
L 1119 1403 
Q 1119 906 1312 657 
Q 1506 409 1894 409 
Q 2359 409 2629 706 
Q 2900 1003 2900 1516 
L 2900 3500 
L 3475 3500 
L 3475 0 
L 2900 0 
L 2900 538 
Q 2691 219 2414 64 
Q 2138 -91 1772 -91 
Q 1169 -91 856 284 
Q 544 659 544 1381 
z
M 1991 3584 
L 1991 3584 
z
" transform="scale(0.015625)"/>
       <path id="DejaVuSans-6e" d="M 3513 2113 
L 3513 0 
L 2938 0 
L 2938 2094 
Q 2938 2591 2744 2837 
Q 2550 3084 2163 3084 
Q 1697 3084 1428 2787 
Q 1159 2491 1159 1978 
L 1159 0 
L 581 0 
L 581 3500 
L 1159 3500 
L 1159 2956 
Q 1366 3272 1645 3428 
Q 1925 3584 2291 3584 
Q 2894 3584 3203 3211 
Q 3513 2838 3513 2113 
z
" transform="scale(0.015625)"/>
       <path id="DejaVuSans-69" d="M 603 3500 
L 1178 3500 
L 1178 0 
L 603 0 
L 603 3500 
z
M 603 4863 
L 1178 4863 
L 1178 4134 
L 603 4134 
L 603 4863 
z
" transform="scale(0.015625)"/>
       <path id="DejaVuSans-63" d="M 3122 3366 
L 3122 2828 
Q 2878 2963 2633 3030 
Q 2388 3097 2138 3097 
Q 1578 3097 1268 2742 
Q 959 2388 959 1747 
Q 959 1106 1268 751 
Q 1578 397 2138 397 
Q 2388 397 2633 464 
Q 2878 531 3122 666 
L 3122 134 
Q 2881 22 2623 -34 
Q 2366 -91 2075 -91 
Q 1284 -91 818 406 
Q 353 903 353 1747 
Q 353 2603 823 3093 
Q 1294 3584 2113 3584 
Q 2378 3584 2631 3529 
Q 2884 3475 3122 3366 
z
" transform="scale(0.015625)"/>
       <path id="DejaVuSans-61" d="M 2194 1759 
Q 1497 1759 1228 1600 
Q 959 1441 959 1056 
Q 959 750 1161 570 
Q 1363 391 1709 391 
Q 2188 391 2477 730 
Q 2766 1069 2766 1631 
L 2766 1759 
L 2194 1759 
z
M 3341 1997 
L 3341 0 
L 2766 0 
L 2766 531 
Q 2569 213 2275 61 
Q 1981 -91 1556 -91 
Q 1019 -91 701 211 
Q 384 513 384 1019 
Q 384 1609 779 1909 
Q 1175 2209 1959 2209 
L 2766 2209 
L 2766 2266 
Q 2766 2663 2505 2880 
Q 2244 3097 1772 3097 
Q 1472 3097 1187 3025 
Q 903 2953 641 2809 
L 641 3341 
Q 956 3463 1253 3523 
Q 1550 3584 1831 3584 
Q 2591 3584 2966 3190 
Q 3341 2797 3341 1997 
z
" transform="scale(0.015625)"/>
       <path id="DejaVuSans-74" d="M 1172 4494 
L 1172 3500 
L 2356 3500 
L 2356 3053 
L 1172 3053 
L 1172 1153 
Q 1172 725 1289 603 
Q 1406 481 1766 481 
L 2356 481 
L 2356 0 
L 1766 0 
Q 1100 0 847 248 
Q 594 497 594 1153 
L 594 3053 
L 172 3053 
L 172 3500 
L 594 3500 
L 594 4494 
L 1172 4494 
z
" transform="scale(0.015625)"/>
       <path id="DejaVuSans-20" transform="scale(0.015625)"/>
       <path id="DejaVuSans-52" d="M 2841 2188 
Q 3044 2119 3236 1894 
Q 3428 1669 3622 1275 
L 4263 0 
L 3584 0 
L 2988 1197 
Q 2756 1666 2539 1819 
Q 2322 1972 1947 1972 
L 1259 1972 
L 1259 0 
L 628 0 
L 628 4666 
L 2053 4666 
Q 2853 4666 3247 4331 
Q 3641 3997 3641 3322 
Q 3641 2881 3436 2590 
Q 3231 2300 2841 2188 
z
M 1259 4147 
L 1259 2491 
L 2053 2491 
Q 2509 2491 2742 2702 
Q 2975 2913 2975 3322 
Q 2975 3731 2742 3939 
Q 2509 4147 2053 4147 
L 1259 4147 
z
" transform="scale(0.015625)"/>
       <path id="DejaVuSans-64" d="M 2906 2969 
L 2906 4863 
L 3481 4863 
L 3481 0 
L 2906 0 
L 2906 525 
Q 2725 213 2448 61 
Q 2172 -91 1784 -91 
Q 1150 -91 751 415 
Q 353 922 353 1747 
Q 353 2572 751 3078 
Q 1150 3584 1784 3584 
Q 2172 3584 2448 3432 
Q 2725 3281 2906 2969 
z
M 947 1747 
Q 947 1113 1208 752 
Q 1469 391 1925 391 
Q 2381 391 2643 752 
Q 2906 1113 2906 1747 
Q 2906 2381 2643 2742 
Q 2381 3103 1925 3103 
Q 1469 3103 1208 2742 
Q 947 2381 947 1747 
z
" transform="scale(0.015625)"/>
      </defs>
      <use xlink:href="#DejaVuSans-43"/>
      <use xlink:href="#DejaVuSans-6f" x="69.824219"/>
      <use xlink:href="#DejaVuSans-6d" x="131.005859"/>
      <use xlink:href="#DejaVuSans-6d" x="228.417969"/>
      <use xlink:href="#DejaVuSans-75" x="325.830078"/>
      <use xlink:href="#DejaVuSans-6e" x="389.208984"/>
      <use xlink:href="#DejaVuSans-69" x="452.587891"/>
      <use xlink:href="#DejaVuSans-63" x="480.371094"/>
      <use xlink:href="#DejaVuSans-61" x="535.351562"/>
      <use xlink:href="#DejaVuSans-74" x="596.630859"/>
      <use xlink:href="#DejaVuSans-69" x="635.839844"/>
      <use xlink:href="#DejaVuSans-6f" x="663.623047"/>
      <use xlink:href="#DejaVuSans-6e" x="724.804688"/>
      <use xlink:href="#DejaVuSans-20" x="788.183594"/>
      <use xlink:href="#DejaVuSans-52" x="819.970703"/>
      <use xlink:href="#DejaVuSans-6f" x="884.953125"/>
      <use xlink:href="#DejaVuSans-75" x="946.134766"/>
      <use xlink:href="#DejaVuSans-6e" x="1009.513672"/>
      <use xlink:href="#DejaVuSans-64" x="1072.892578"/>
     </g>
     <!-- (Experiments with 15 clients, local_epochs = 1 to 5, total rounds = 10) -->
     <g transform="translate(168.92875 419.159375) scale(0.12 -0.12)">
      <defs>
       <path id="DejaVuSans-28" d="M 1984 4856 
Q 1566 4138 1362 3434 
Q 1159 2731 1159 2009 
Q 1159 1288 1364 580 
Q 1569 -128 1984 -844 
L 1484 -844 
Q 1016 -109 783 600 
Q 550 1309 550 2009 
Q 550 2706 781 3412 
Q 1013 4119 1484 4856 
L 1984 4856 
z
" transform="scale(0.015625)"/>
       <path id="DejaVuSans-45" d="M 628 4666 
L 3578 4666 
L 3578 4134 
L 1259 4134 
L 1259 2753 
L 3481 2753 
L 3481 2222 
L 1259 2222 
L 1259 531 
L 3634 531 
L 3634 0 
L 628 0 
L 628 4666 
z
" transform="scale(0.015625)"/>
       <path id="DejaVuSans-78" d="M 3513 3500 
L 2247 1797 
L 3578 0 
L 2900 0 
L 1881 1375 
L 863 0 
L 184 0 
L 1544 1831 
L 300 3500 
L 978 3500 
L 1906 2253 
L 2834 3500 
L 3513 3500 
z
" transform="scale(0.015625)"/>
       <path id="DejaVuSans-70" d="M 1159 525 
L 1159 -1331 
L 581 -1331 
L 581 3500 
L 1159 3500 
L 1159 2969 
Q 1341 3281 1617 3432 
Q 1894 3584 2278 3584 
Q 2916 3584 3314 3078 
Q 3713 2572 3713 1747 
Q 3713 922 3314 415 
Q 2916 -91 2278 -91 
Q 1894 -91 1617 61 
Q 1341 213 1159 525 
z
M 3116 1747 
Q 3116 2381 2855 2742 
Q 2594 3103 2138 3103 
Q 1681 3103 1420 2742 
Q 1159 2381 1159 1747 
Q 1159 1113 1420 752 
Q 1681 391 2138 391 
Q 2594 391 2855 752 
Q 3116 1113 3116 1747 
z
" transform="scale(0.015625)"/>
       <path id="DejaVuSans-65" d="M 3597 1894 
L 3597 1613 
L 953 1613 
Q 991 1019 1311 708 
Q 1631 397 2203 397 
Q 2534 397 2845 478 
Q 3156 559 3463 722 
L 3463 178 
Q 3153 47 2828 -22 
Q 2503 -91 2169 -91 
Q 1331 -91 842 396 
Q 353 884 353 1716 
Q 353 2575 817 3079 
Q 1281 3584 2069 3584 
Q 2775 3584 3186 3129 
Q 3597 2675 3597 1894 
z
M 3022 2063 
Q 3016 2534 2758 2815 
Q 2500 3097 2075 3097 
Q 1594 3097 1305 2825 
Q 1016 2553 972 2059 
L 3022 2063 
z
" transform="scale(0.015625)"/>
       <path id="DejaVuSans-72" d="M 2631 2963 
Q 2534 3019 2420 3045 
Q 2306 3072 2169 3072 
Q 1681 3072 1420 2755 
Q 1159 2438 1159 1844 
L 1159 0 
L 581 0 
L 581 3500 
L 1159 3500 
L 1159 2956 
Q 1341 3275 1631 3429 
Q 1922 3584 2338 3584 
Q 2397 3584 2469 3576 
Q 2541 3569 2628 3553 
L 2631 2963 
z
" transform="scale(0.015625)"/>
       <path id="DejaVuSans-73" d="M 2834 3397 
L 2834 2853 
Q 2591 2978 2328 3040 
Q 2066 3103 1784 3103 
Q 1356 3103 1142 2972 
Q 928 2841 928 2578 
Q 928 2378 1081 2264 
Q 1234 2150 1697 2047 
L 1894 2003 
Q 2506 1872 2764 1633 
Q 3022 1394 3022 966 
Q 3022 478 2636 193 
Q 2250 -91 1575 -91 
Q 1294 -91 989 -36 
Q 684 19 347 128 
L 347 722 
Q 666 556 975 473 
Q 1284 391 1588 391 
Q 1994 391 2212 530 
Q 2431 669 2431 922 
Q 2431 1156 2273 1281 
Q 2116 1406 1581 1522 
L 1381 1569 
Q 847 1681 609 1914 
Q 372 2147 372 2553 
Q 372 3047 722 3315 
Q 1072 3584 1716 3584 
Q 2034 3584 2315 3537 
Q 2597 3491 2834 3397 
z
" transform="scale(0.015625)"/>
       <path id="DejaVuSans-77" d="M 269 3500 
L 844 3500 
L 1563 769 
L 2278 3500 
L 2956 3500 
L 3675 769 
L 4391 3500 
L 4966 3500 
L 4050 0 
L 3372 0 
L 2619 2869 
L 1863 0 
L 1184 0 
L 269 3500 
z
" transform="scale(0.015625)"/>
       <path id="DejaVuSans-68" d="M 3513 2113 
L 3513 0 
L 2938 0 
L 2938 2094 
Q 2938 2591 2744 2837 
Q 2550 3084 2163 3084 
Q 1697 3084 1428 2787 
Q 1159 2491 1159 1978 
L 1159 0 
L 581 0 
L 581 4863 
L 1159 4863 
L 1159 2956 
Q 1366 3272 1645 3428 
Q 1925 3584 2291 3584 
Q 2894 3584 3203 3211 
Q 3513 2838 3513 2113 
z
" transform="scale(0.015625)"/>
       <path id="DejaVuSans-35" d="M 691 4666 
L 3169 4666 
L 3169 4134 
L 1269 4134 
L 1269 2991 
Q 1406 3038 1543 3061 
Q 1681 3084 1819 3084 
Q 2600 3084 3056 2656 
Q 3513 2228 3513 1497 
Q 3513 744 3044 326 
Q 2575 -91 1722 -91 
Q 1428 -91 1123 -41 
Q 819 9 494 109 
L 494 744 
Q 775 591 1075 516 
Q 1375 441 1709 441 
Q 2250 441 2565 725 
Q 2881 1009 2881 1497 
Q 2881 1984 2565 2268 
Q 2250 2553 1709 2553 
Q 1456 2553 1204 2497 
Q 953 2441 691 2322 
L 691 4666 
z
" transform="scale(0.015625)"/>
       <path id="DejaVuSans-6c" d="M 603 4863 
L 1178 4863 
L 1178 0 
L 603 0 
L 603 4863 
z
" transform="scale(0.015625)"/>
       <path id="DejaVuSans-2c" d="M 750 794 
L 1409 794 
L 1409 256 
L 897 -744 
L 494 -744 
L 750 256 
L 750 794 
z
" transform="scale(0.015625)"/>
       <path id="DejaVuSans-5f" d="M 3263 -1063 
L 3263 -1509 
L -63 -1509 
L -63 -1063 
L 3263 -1063 
z
" transform="scale(0.015625)"/>
       <path id="DejaVuSans-3d" d="M 678 2906 
L 4684 2906 
L 4684 2381 
L 678 2381 
L 678 2906 
z
M 678 1631 
L 4684 1631 
L 4684 1100 
L 678 1100 
L 678 1631 
z
" transform="scale(0.015625)"/>
       <path id="DejaVuSans-29" d="M 513 4856 
L 1013 4856 
Q 1481 4119 1714 3412 
Q 1947 2706 1947 2009 
Q 1947 1309 1714 600 
Q 1481 -109 1013 -844 
L 513 -844 
Q 928 -128 1133 580 
Q 1338 1288 1338 2009 
Q 1338 2731 1133 3434 
Q 928 4138 513 4856 
z
" transform="scale(0.015625)"/>
      </defs>
      <use xlink:href="#DejaVuSans-28"/>
      <use xlink:href="#DejaVuSans-45" x="39.013672"/>
      <use xlink:href="#DejaVuSans-78" x="102.197266"/>
      <use xlink:href="#DejaVuSans-70" x="161.376953"/>
      <use xlink:href="#DejaVuSans-65" x="224.853516"/>
      <use xlink:href="#DejaVuSans-72" x="286.376953"/>
      <use xlink:href="#DejaVuSans-69" x="327.490234"/>
      <use xlink:href="#DejaVuSans-6d" x="355.273438"/>
      <use xlink:href="#DejaVuSans-65" x="452.685547"/>
      <use xlink:href="#DejaVuSans-6e" x="514.208984"/>
      <use xlink:href="#DejaVuSans-74" x="577.587891"/>
      <use xlink:href="#DejaVuSans-73" x="616.796875"/>
      <use xlink:href="#DejaVuSans-20" x="668.896484"/>
      <use xlink:href="#DejaVuSans-77" x="700.683594"/>
      <use xlink:href="#DejaVuSans-69" x="782.470703"/>
      <use xlink:href="#DejaVuSans-74" x="810.253906"/>
      <use xlink:href="#DejaVuSans-68" x="849.462891"/>
      <use xlink:href="#DejaVuSans-20" x="912.841797"/>
      <use xlink:href="#DejaVuSans-31" x="944.628906"/>
      <use xlink:href="#DejaVuSans-35" x="1008.251953"/>
      <use xlink:href="#DejaVuSans-20" x="1071.875"/>
      <use xlink:href="#DejaVuSans-63" x="1103.662109"/>
      <use xlink:href="#DejaVuSans-6c" x="1158.642578"/>
      <use xlink:href="#DejaVuSans-69" x="1186.425781"/>
      <use xlink:href="#DejaVuSans-65" x="1214.208984"/>
      <use xlink:href="#DejaVuSans-6e" x="1275.732422"/>
      <use xlink:href="#DejaVuSans-74" x="1339.111328"/>
      <use xlink:href="#DejaVuSans-73" x="1378.320312"/>
      <use xlink:href="#DejaVuSans-2c" x="1430.419922"/>
      <use xlink:href="#DejaVuSans-20" x="1462.207031"/>
      <use xlink:href="#DejaVuSans-6c" x="1493.994141"/>
      <use xlink:href="#DejaVuSans-6f" x="1521.777344"/>
      <use xlink:href="#DejaVuSans-63" x="1582.958984"/>
      <use xlink:href="#DejaVuSans-61" x="1637.939453"/>
      <use xlink:href="#DejaVuSans-6c" x="1699.21875"/>
      <use xlink:href="#DejaVuSans-5f" x="1727.001953"/>
      <use xlink:href="#DejaVuSans-65" x="1777.001953"/>
      <use xlink:href="#DejaVuSans-70" x="1838.525391"/>
      <use xlink:href="#DejaVuSans-6f" x="1902.001953"/>
      <use xlink:href="#DejaVuSans-63" x="1963.183594"/>
      <use xlink:href="#DejaVuSans-68" x="2018.164062"/>
      <use xlink:href="#DejaVuSans-73" x="2081.542969"/>
      <use xlink:href="#DejaVuSans-20" x="2133.642578"/>
      <use xlink:href="#DejaVuSans-3d" x="2165.429688"/>
      <use xlink:href="#DejaVuSans-20" x="2249.21875"/>
      <use xlink:href="#DejaVuSans-31" x="2281.005859"/>
      <use xlink:href="#DejaVuSans-20" x="2344.628906"/>
      <use xlink:href="#DejaVuSans-74" x="2376.416016"/>
      <use xlink:href="#DejaVuSans-6f" x="2415.625"/>
      <use xlink:href="#DejaVuSans-20" x="2476.806641"/>
      <use xlink:href="#DejaVuSans-35" x="2508.59375"/>
      <use xlink:href="#DejaVuSans-2c" x="2572.216797"/>
      <use xlink:href="#DejaVuSans-20" x="2604.003906"/>
      <use xlink:href="#DejaVuSans-74" x="2635.791016"/>
      <use xlink:href="#DejaVuSans-6f" x="2675"/>
      <use xlink:href="#DejaVuSans-74" x="2736.181641"/>
      <use xlink:href="#DejaVuSans-61" x="2775.390625"/>
      <use xlink:href="#DejaVuSans-6c" x="2836.669922"/>
      <use xlink:href="#DejaVuSans-20" x="2864.453125"/>
      <use xlink:href="#DejaVuSans-72" x="2896.240234"/>
      <use xlink:href="#DejaVuSans-6f" x="2935.103516"/>
      <use xlink:href="#DejaVuSans-75" x="2996.285156"/>
      <use xlink:href="#DejaVuSans-6e" x="3059.664062"/>
      <use xlink:href="#DejaVuSans-64" x="3123.042969"/>
      <use xlink:href="#DejaVuSans-73" x="3186.519531"/>
      <use xlink:href="#DejaVuSans-20" x="3238.619141"/>
      <use xlink:href="#DejaVuSans-3d" x="3270.40625"/>
      <use xlink:href="#DejaVuSans-20" x="3354.195312"/>
      <use xlink:href="#DejaVuSans-31" x="3385.982422"/>
      <use xlink:href="#DejaVuSans-30" x="3449.605469"/>
      <use xlink:href="#DejaVuSans-29" x="3513.228516"/>
     </g>
    </g>
   </g>
   <g id="matplotlib.axis_2">
    <g id="ytick_1">
     <g id="line2d_11">
      <path d="M 54.92 317.961809 
L 709.2 317.961809 
" clip-path="url(#pd325c66210)" style="fill: none; stroke-dasharray: 2.96,1.28; stroke-dashoffset: 0; stroke: #b0b0b0; stroke-opacity: 0.2; stroke-width: 0.8"/>
     </g>
     <g id="line2d_12">
      <defs>
       <path id="m3d4da980c8" d="M 0 0 
L -3.5 0 
" style="stroke: #000000; stroke-width: 0.8"/>
      </defs>
      <g>
       <use xlink:href="#m3d4da980c8" x="54.92" y="317.961809" style="stroke: #000000; stroke-width: 0.8"/>
      </g>
     </g>
     <g id="text_7">
      <!-- 0.88 -->
      <g transform="translate(25.654375 321.761028) scale(0.1 -0.1)">
       <defs>
        <path id="DejaVuSans-2e" d="M 684 794 
L 1344 794 
L 1344 0 
L 684 0 
L 684 794 
z
" transform="scale(0.015625)"/>
       </defs>
       <use xlink:href="#DejaVuSans-30"/>
       <use xlink:href="#DejaVuSans-2e" x="63.623047"/>
       <use xlink:href="#DejaVuSans-38" x="95.410156"/>
       <use xlink:href="#DejaVuSans-38" x="159.033203"/>
      </g>
     </g>
    </g>
    <g id="ytick_2">
     <g id="line2d_13">
      <path d="M 54.92 242.903291 
L 709.2 242.903291 
" clip-path="url(#pd325c66210)" style="fill: none; stroke-dasharray: 2.96,1.28; stroke-dashoffset: 0; stroke: #b0b0b0; stroke-opacity: 0.2; stroke-width: 0.8"/>
     </g>
     <g id="line2d_14">
      <g>
       <use xlink:href="#m3d4da980c8" x="54.92" y="242.903291" style="stroke: #000000; stroke-width: 0.8"/>
      </g>
     </g>
     <g id="text_8">
      <!-- 0.90 -->
      <g transform="translate(25.654375 246.70251) scale(0.1 -0.1)">
       <defs>
        <path id="DejaVuSans-39" d="M 703 97 
L 703 672 
Q 941 559 1184 500 
Q 1428 441 1663 441 
Q 2288 441 2617 861 
Q 2947 1281 2994 2138 
Q 2813 1869 2534 1725 
Q 2256 1581 1919 1581 
Q 1219 1581 811 2004 
Q 403 2428 403 3163 
Q 403 3881 828 4315 
Q 1253 4750 1959 4750 
Q 2769 4750 3195 4129 
Q 3622 3509 3622 2328 
Q 3622 1225 3098 567 
Q 2575 -91 1691 -91 
Q 1453 -91 1209 -44 
Q 966 3 703 97 
z
M 1959 2075 
Q 2384 2075 2632 2365 
Q 2881 2656 2881 3163 
Q 2881 3666 2632 3958 
Q 2384 4250 1959 4250 
Q 1534 4250 1286 3958 
Q 1038 3666 1038 3163 
Q 1038 2656 1286 2365 
Q 1534 2075 1959 2075 
z
" transform="scale(0.015625)"/>
       </defs>
       <use xlink:href="#DejaVuSans-30"/>
       <use xlink:href="#DejaVuSans-2e" x="63.623047"/>
       <use xlink:href="#DejaVuSans-39" x="95.410156"/>
       <use xlink:href="#DejaVuSans-30" x="159.033203"/>
      </g>
     </g>
    </g>
    <g id="ytick_3">
     <g id="line2d_15">
      <path d="M 54.92 167.844773 
L 709.2 167.844773 
" clip-path="url(#pd325c66210)" style="fill: none; stroke-dasharray: 2.96,1.28; stroke-dashoffset: 0; stroke: #b0b0b0; stroke-opacity: 0.2; stroke-width: 0.8"/>
     </g>
     <g id="line2d_16">
      <g>
       <use xlink:href="#m3d4da980c8" x="54.92" y="167.844773" style="stroke: #000000; stroke-width: 0.8"/>
      </g>
     </g>
     <g id="text_9">
      <!-- 0.92 -->
      <g transform="translate(25.654375 171.643992) scale(0.1 -0.1)">
       <use xlink:href="#DejaVuSans-30"/>
       <use xlink:href="#DejaVuSans-2e" x="63.623047"/>
       <use xlink:href="#DejaVuSans-39" x="95.410156"/>
       <use xlink:href="#DejaVuSans-32" x="159.033203"/>
      </g>
     </g>
    </g>
    <g id="ytick_4">
     <g id="line2d_17">
      <path d="M 54.92 92.786255 
L 709.2 92.786255 
" clip-path="url(#pd325c66210)" style="fill: none; stroke-dasharray: 2.96,1.28; stroke-dashoffset: 0; stroke: #b0b0b0; stroke-opacity: 0.2; stroke-width: 0.8"/>
     </g>
     <g id="line2d_18">
      <g>
       <use xlink:href="#m3d4da980c8" x="54.92" y="92.786255" style="stroke: #000000; stroke-width: 0.8"/>
      </g>
     </g>
     <g id="text_10">
      <!-- 0.94 -->
      <g transform="translate(25.654375 96.585474) scale(0.1 -0.1)">
       <use xlink:href="#DejaVuSans-30"/>
       <use xlink:href="#DejaVuSans-2e" x="63.623047"/>
       <use xlink:href="#DejaVuSans-39" x="95.410156"/>
       <use xlink:href="#DejaVuSans-34" x="159.033203"/>
      </g>
     </g>
    </g>
    <g id="text_11">
     <!-- Global Accuracy -->
     <g transform="translate(19.15875 249.1235) rotate(-90) scale(0.12 -0.12)">
      <defs>
       <path id="DejaVuSans-47" d="M 3809 666 
L 3809 1919 
L 2778 1919 
L 2778 2438 
L 4434 2438 
L 4434 434 
Q 4069 175 3628 42 
Q 3188 -91 2688 -91 
Q 1594 -91 976 548 
Q 359 1188 359 2328 
Q 359 3472 976 4111 
Q 1594 4750 2688 4750 
Q 3144 4750 3555 4637 
Q 3966 4525 4313 4306 
L 4313 3634 
Q 3963 3931 3569 4081 
Q 3175 4231 2741 4231 
Q 1884 4231 1454 3753 
Q 1025 3275 1025 2328 
Q 1025 1384 1454 906 
Q 1884 428 2741 428 
Q 3075 428 3337 486 
Q 3600 544 3809 666 
z
" transform="scale(0.015625)"/>
       <path id="DejaVuSans-62" d="M 3116 1747 
Q 3116 2381 2855 2742 
Q 2594 3103 2138 3103 
Q 1681 3103 1420 2742 
Q 1159 2381 1159 1747 
Q 1159 1113 1420 752 
Q 1681 391 2138 391 
Q 2594 391 2855 752 
Q 3116 1113 3116 1747 
z
M 1159 2969 
Q 1341 3281 1617 3432 
Q 1894 3584 2278 3584 
Q 2916 3584 3314 3078 
Q 3713 2572 3713 1747 
Q 3713 922 3314 415 
Q 2916 -91 2278 -91 
Q 1894 -91 1617 61 
Q 1341 213 1159 525 
L 1159 0 
L 581 0 
L 581 4863 
L 1159 4863 
L 1159 2969 
z
" transform="scale(0.015625)"/>
       <path id="DejaVuSans-41" d="M 2188 4044 
L 1331 1722 
L 3047 1722 
L 2188 4044 
z
M 1831 4666 
L 2547 4666 
L 4325 0 
L 3669 0 
L 3244 1197 
L 1141 1197 
L 716 0 
L 50 0 
L 1831 4666 
z
" transform="scale(0.015625)"/>
       <path id="DejaVuSans-79" d="M 2059 -325 
Q 1816 -950 1584 -1140 
Q 1353 -1331 966 -1331 
L 506 -1331 
L 506 -850 
L 844 -850 
Q 1081 -850 1212 -737 
Q 1344 -625 1503 -206 
L 1606 56 
L 191 3500 
L 800 3500 
L 1894 763 
L 2988 3500 
L 3597 3500 
L 2059 -325 
z
" transform="scale(0.015625)"/>
      </defs>
      <use xlink:href="#DejaVuSans-47"/>
      <use xlink:href="#DejaVuSans-6c" x="77.490234"/>
      <use xlink:href="#DejaVuSans-6f" x="105.273438"/>
      <use xlink:href="#DejaVuSans-62" x="166.455078"/>
      <use xlink:href="#DejaVuSans-61" x="229.931641"/>
      <use xlink:href="#DejaVuSans-6c" x="291.210938"/>
      <use xlink:href="#DejaVuSans-20" x="318.994141"/>
      <use xlink:href="#DejaVuSans-41" x="350.78125"/>
      <use xlink:href="#DejaVuSans-63" x="417.439453"/>
      <use xlink:href="#DejaVuSans-63" x="472.419922"/>
      <use xlink:href="#DejaVuSans-75" x="527.400391"/>
      <use xlink:href="#DejaVuSans-72" x="590.779297"/>
      <use xlink:href="#DejaVuSans-61" x="631.892578"/>
      <use xlink:href="#DejaVuSans-63" x="693.171875"/>
      <use xlink:href="#DejaVuSans-79" x="748.152344"/>
     </g>
    </g>
   </g>
   <g id="line2d_19">
    <path d="M 84.66 262.793799 
L 90.668081 256.140885 
L 96.676162 249.48797 
L 102.684242 242.835056 
L 108.692323 236.182142 
L 114.700404 229.529228 
L 120.708485 222.876314 
L 126.716566 216.2234 
L 132.724646 209.570486 
L 138.732727 202.917572 
L 144.740808 196.264658 
L 150.748889 189.611744 
L 156.75697 184.698822 
L 162.765051 179.785901 
L 168.773131 174.87298 
L 174.781212 169.960059 
L 180.789293 165.047138 
L 186.797374 160.134217 
L 192.805455 155.221295 
L 198.813535 150.308374 
L 204.821616 145.395453 
L 210.829697 140.482532 
L 216.837778 135.569611 
L 222.845859 132.874327 
L 228.853939 130.179044 
L 234.86202 127.483761 
L 240.870101 124.788478 
L 246.878182 122.093195 
L 252.886263 119.397912 
L 258.894343 116.702629 
L 264.902424 114.007345 
L 270.910505 111.312062 
L 276.918586 108.616779 
L 282.926667 105.921496 
L 288.934747 104.932088 
L 294.942828 103.94268 
L 300.950909 102.953273 
L 306.95899 101.963865 
L 312.967071 100.974457 
L 318.975152 99.98505 
L 324.983232 98.995642 
L 330.991313 98.006234 
L 336.999394 97.016826 
L 343.007475 96.027419 
L 349.015556 95.038011 
L 355.023636 94.935658 
L 361.031717 94.833306 
L 367.039798 94.730953 
L 373.047879 94.628601 
L 379.05596 94.526248 
L 385.06404 94.423896 
L 391.072121 94.321543 
L 397.080202 94.219191 
L 403.088283 94.116838 
L 409.096364 94.014486 
L 415.104444 93.912133 
L 421.112525 91.796848 
L 427.120606 89.681562 
L 433.128687 87.566277 
L 439.136768 85.450991 
L 445.144848 83.335706 
L 451.152929 81.22042 
L 457.16101 79.105135 
L 463.169091 76.989849 
L 469.177172 74.874564 
L 475.185253 72.759278 
L 481.193333 70.643992 
L 487.201414 69.108705 
L 493.209495 67.573417 
L 499.217576 66.038129 
L 505.225657 64.502841 
L 511.233737 62.967553 
L 517.241818 61.432265 
L 523.249899 59.896977 
L 529.25798 58.36169 
L 535.266061 56.826402 
L 541.274141 55.291114 
L 547.282222 53.755826 
L 553.290303 53.687591 
L 559.298384 53.619356 
L 565.306465 53.551121 
L 571.314545 53.482886 
L 577.322626 53.414651 
L 583.330707 53.346416 
L 589.338788 53.278181 
L 595.346869 53.209946 
L 601.354949 53.141711 
L 607.36303 53.073476 
L 613.371111 53.005241 
L 619.379192 51.947598 
L 625.387273 50.889955 
L 631.395354 49.832312 
L 637.403434 48.77467 
L 643.411515 47.717027 
L 649.419596 46.659384 
L 655.427677 45.601741 
L 661.435758 44.544099 
L 667.443838 43.486456 
L 673.451919 42.428813 
L 679.46 41.37117 
" clip-path="url(#pd325c66210)" style="fill: none; stroke: #0072bd; stroke-width: 2; stroke-linecap: square"/>
   </g>
   <g id="line2d_20">
    <defs>
     <path id="m972f1a820c" d="M 0 3 
C 0.795609 3 1.55874 2.683901 2.12132 2.12132 
C 2.683901 1.55874 3 0.795609 3 0 
C 3 -0.795609 2.683901 -1.55874 2.12132 -2.12132 
C 1.55874 -2.683901 0.795609 -3 0 -3 
C -0.795609 -3 -1.55874 -2.683901 -2.12132 -2.12132 
C -2.683901 -1.55874 -3 -0.795609 -3 0 
C -3 0.795609 -2.683901 1.55874 -2.12132 2.12132 
C -1.55874 2.683901 -0.795609 3 0 3 
z
" style="stroke: #0072bd"/>
    </defs>
    <g clip-path="url(#pd325c66210)">
     <use xlink:href="#m972f1a820c" x="84.66" y="262.793799" style="fill: #0072bd; stroke: #0072bd"/>
     <use xlink:href="#m972f1a820c" x="150.748889" y="189.611744" style="fill: #0072bd; stroke: #0072bd"/>
     <use xlink:href="#m972f1a820c" x="216.837778" y="135.569611" style="fill: #0072bd; stroke: #0072bd"/>
     <use xlink:href="#m972f1a820c" x="282.926667" y="105.921496" style="fill: #0072bd; stroke: #0072bd"/>
     <use xlink:href="#m972f1a820c" x="349.015556" y="95.038011" style="fill: #0072bd; stroke: #0072bd"/>
     <use xlink:href="#m972f1a820c" x="415.104444" y="93.912133" style="fill: #0072bd; stroke: #0072bd"/>
     <use xlink:href="#m972f1a820c" x="481.193333" y="70.643992" style="fill: #0072bd; stroke: #0072bd"/>
     <use xlink:href="#m972f1a820c" x="547.282222" y="53.755826" style="fill: #0072bd; stroke: #0072bd"/>
     <use xlink:href="#m972f1a820c" x="613.371111" y="53.005241" style="fill: #0072bd; stroke: #0072bd"/>
     <use xlink:href="#m972f1a820c" x="679.46" y="41.37117" style="fill: #0072bd; stroke: #0072bd"/>
    </g>
   </g>
   <g id="line2d_21">
    <path d="M 84.66 359.99458 
L 90.668081 343.277001 
L 96.676162 326.559422 
L 102.684242 309.841842 
L 108.692323 293.124263 
L 114.700404 276.406684 
L 120.708485 259.689105 
L 126.716566 242.971526 
L 132.724646 226.253947 
L 138.732727 209.536368 
L 144.740808 192.818789 
L 150.748889 176.10121 
L 156.75697 173.23534 
L 162.765051 170.369469 
L 168.773131 167.503598 
L 174.781212 164.637728 
L 180.789293 161.771857 
L 186.797374 158.905986 
L 192.805455 156.040116 
L 198.813535 153.174245 
L 204.821616 150.308374 
L 210.829697 147.442503 
L 216.837778 144.576633 
L 222.845859 142.358995 
L 228.853939 140.141357 
L 234.86202 137.923719 
L 240.870101 135.706081 
L 246.878182 133.488443 
L 252.886263 131.270805 
L 258.894343 129.053167 
L 264.902424 126.835528 
L 270.910505 124.61789 
L 276.918586 122.400252 
L 282.926667 120.182614 
L 288.934747 118.920267 
L 294.942828 117.657919 
L 300.950909 116.395571 
L 306.95899 115.133223 
L 312.967071 113.870875 
L 318.975152 112.608528 
L 324.983232 111.34618 
L 330.991313 110.083832 
L 336.999394 108.821484 
L 343.007475 107.559136 
L 349.015556 106.296789 
L 355.023636 105.307381 
L 361.031717 104.317973 
L 367.039798 103.328565 
L 373.047879 102.339158 
L 379.05596 101.34975 
L 385.06404 100.360342 
L 391.072121 99.370934 
L 397.080202 98.381527 
L 403.088283 97.392119 
L 409.096364 96.402711 
L 415.104444 95.413303 
L 421.112525 95.003893 
L 427.120606 94.594483 
L 433.128687 94.185073 
L 439.136768 93.775663 
L 445.144848 93.366253 
L 451.152929 92.956843 
L 457.16101 92.547433 
L 463.169091 92.138023 
L 469.177172 91.728613 
L 475.185253 91.319202 
L 481.193333 90.909792 
L 487.201414 89.067447 
L 493.209495 87.225101 
L 499.217576 85.382756 
L 505.225657 83.540411 
L 511.233737 81.698065 
L 517.241818 79.85572 
L 523.249899 78.013374 
L 529.25798 76.171029 
L 535.266061 74.328683 
L 541.274141 72.486338 
L 547.282222 70.643992 
L 553.290303 71.531048 
L 559.298384 72.418103 
L 565.306465 73.305158 
L 571.314545 74.192213 
L 577.322626 75.079269 
L 583.330707 75.966324 
L 589.338788 76.853379 
L 595.346869 77.740434 
L 601.354949 78.627489 
L 607.36303 79.514545 
L 613.371111 80.4016 
L 619.379192 79.616897 
L 625.387273 78.832194 
L 631.395354 78.047492 
L 637.403434 77.262789 
L 643.411515 76.478086 
L 649.419596 75.693384 
L 655.427677 74.908681 
L 661.435758 74.123978 
L 667.443838 73.339276 
L 673.451919 72.554573 
L 679.46 71.76987 
" clip-path="url(#pd325c66210)" style="fill: none; stroke: #d95319; stroke-width: 2; stroke-linecap: square"/>
   </g>
   <g id="line2d_22">
    <defs>
     <path id="maffda17692" d="M 0 3 
C 0.795609 3 1.55874 2.683901 2.12132 2.12132 
C 2.683901 1.55874 3 0.795609 3 0 
C 3 -0.795609 2.683901 -1.55874 2.12132 -2.12132 
C 1.55874 -2.683901 0.795609 -3 0 -3 
C -0.795609 -3 -1.55874 -2.683901 -2.12132 -2.12132 
C -2.683901 -1.55874 -3 -0.795609 -3 0 
C -3 0.795609 -2.683901 1.55874 -2.12132 2.12132 
C -1.55874 2.683901 -0.795609 3 0 3 
z
" style="stroke: #d95319"/>
    </defs>
    <g clip-path="url(#pd325c66210)">
     <use xlink:href="#maffda17692" x="84.66" y="359.99458" style="fill: #d95319; stroke: #d95319"/>
     <use xlink:href="#maffda17692" x="150.748889" y="176.10121" style="fill: #d95319; stroke: #d95319"/>
     <use xlink:href="#maffda17692" x="216.837778" y="144.576633" style="fill: #d95319; stroke: #d95319"/>
     <use xlink:href="#maffda17692" x="282.926667" y="120.182614" style="fill: #d95319; stroke: #d95319"/>
     <use xlink:href="#maffda17692" x="349.015556" y="106.296789" style="fill: #d95319; stroke: #d95319"/>
     <use xlink:href="#maffda17692" x="415.104444" y="95.413303" style="fill: #d95319; stroke: #d95319"/>
     <use xlink:href="#maffda17692" x="481.193333" y="90.909792" style="fill: #d95319; stroke: #d95319"/>
     <use xlink:href="#maffda17692" x="547.282222" y="70.643992" style="fill: #d95319; stroke: #d95319"/>
     <use xlink:href="#maffda17692" x="613.371111" y="80.4016" style="fill: #d95319; stroke: #d95319"/>
     <use xlink:href="#maffda17692" x="679.46" y="71.76987" style="fill: #d95319; stroke: #d95319"/>
    </g>
   </g>
   <g id="line2d_23">
    <path d="M 84.66 254.537362 
L 90.668081 247.406802 
L 96.676162 240.276243 
L 102.684242 233.145684 
L 108.692323 226.015125 
L 114.700404 218.884566 
L 120.708485 211.754006 
L 126.716566 204.623447 
L 132.724646 197.492888 
L 138.732727 190.362329 
L 144.740808 183.23177 
L 150.748889 176.10121 
L 156.75697 175.96474 
L 162.765051 175.82827 
L 168.773131 175.6918 
L 174.781212 175.55533 
L 180.789293 175.41886 
L 186.797374 175.28239 
L 192.805455 175.14592 
L 198.813535 175.00945 
L 204.821616 174.87298 
L 210.829697 174.73651 
L 216.837778 174.60004 
L 222.845859 170.847114 
L 228.853939 167.094188 
L 234.86202 163.341262 
L 240.870101 159.588336 
L 246.878182 155.83541 
L 252.886263 152.082485 
L 258.894343 148.329559 
L 264.902424 144.576633 
L 270.910505 140.823707 
L 276.918586 137.070781 
L 282.926667 133.317855 
L 288.934747 132.635505 
L 294.942828 131.953155 
L 300.950909 131.270805 
L 306.95899 130.588454 
L 312.967071 129.906104 
L 318.975152 129.223754 
L 324.983232 128.541404 
L 330.991313 127.859054 
L 336.999394 127.176704 
L 343.007475 126.494353 
L 349.015556 125.812003 
L 355.023636 125.880238 
L 361.031717 125.948473 
L 367.039798 126.016708 
L 373.047879 126.084943 
L 379.05596 126.153178 
L 385.06404 126.221413 
L 391.072121 126.289648 
L 397.080202 126.357883 
L 403.088283 126.426118 
L 409.096364 126.494353 
L 415.104444 126.562588 
L 421.112525 124.20848 
L 427.120606 121.854372 
L 433.128687 119.500264 
L 439.136768 117.146156 
L 445.144848 114.792048 
L 451.152929 112.43794 
L 457.16101 110.083832 
L 463.169091 107.729724 
L 469.177172 105.375616 
L 475.185253 103.021508 
L 481.193333 100.6674 
L 487.201414 100.837987 
L 493.209495 101.008575 
L 499.217576 101.179162 
L 505.225657 101.34975 
L 511.233737 101.520337 
L 517.241818 101.690925 
L 523.249899 101.861512 
L 529.25798 102.0321 
L 535.266061 102.202688 
L 541.274141 102.373275 
L 547.282222 102.543863 
L 553.290303 101.62269 
L 559.298384 100.701517 
L 565.306465 99.780344 
L 571.314545 98.859172 
L 577.322626 97.937999 
L 583.330707 97.016826 
L 589.338788 96.095654 
L 595.346869 95.174481 
L 601.354949 94.253308 
L 607.36303 93.332135 
L 613.371111 92.410963 
L 619.379192 91.8992 
L 625.387273 91.387437 
L 631.395354 90.875675 
L 637.403434 90.363912 
L 643.411515 89.85215 
L 649.419596 89.340387 
L 655.427677 88.828624 
L 661.435758 88.316862 
L 667.443838 87.805099 
L 673.451919 87.293336 
L 679.46 86.781574 
" clip-path="url(#pd325c66210)" style="fill: none; stroke: #77ac30; stroke-width: 2; stroke-linecap: square"/>
   </g>
   <g id="line2d_24">
    <defs>
     <path id="m676e98dbec" d="M 0 3 
C 0.795609 3 1.55874 2.683901 2.12132 2.12132 
C 2.683901 1.55874 3 0.795609 3 0 
C 3 -0.795609 2.683901 -1.55874 2.12132 -2.12132 
C 1.55874 -2.683901 0.795609 -3 0 -3 
C -0.795609 -3 -1.55874 -2.683901 -2.12132 -2.12132 
C -2.683901 -1.55874 -3 -0.795609 -3 0 
C -3 0.795609 -2.683901 1.55874 -2.12132 2.12132 
C -1.55874 2.683901 -0.795609 3 0 3 
z
" style="stroke: #77ac30"/>
    </defs>
    <g clip-path="url(#pd325c66210)">
     <use xlink:href="#m676e98dbec" x="84.66" y="254.537362" style="fill: #77ac30; stroke: #77ac30"/>
     <use xlink:href="#m676e98dbec" x="150.748889" y="176.10121" style="fill: #77ac30; stroke: #77ac30"/>
     <use xlink:href="#m676e98dbec" x="216.837778" y="174.60004" style="fill: #77ac30; stroke: #77ac30"/>
     <use xlink:href="#m676e98dbec" x="282.926667" y="133.317855" style="fill: #77ac30; stroke: #77ac30"/>
     <use xlink:href="#m676e98dbec" x="349.015556" y="125.812003" style="fill: #77ac30; stroke: #77ac30"/>
     <use xlink:href="#m676e98dbec" x="415.104444" y="126.562588" style="fill: #77ac30; stroke: #77ac30"/>
     <use xlink:href="#m676e98dbec" x="481.193333" y="100.6674" style="fill: #77ac30; stroke: #77ac30"/>
     <use xlink:href="#m676e98dbec" x="547.282222" y="102.543863" style="fill: #77ac30; stroke: #77ac30"/>
     <use xlink:href="#m676e98dbec" x="613.371111" y="92.410963" style="fill: #77ac30; stroke: #77ac30"/>
     <use xlink:href="#m676e98dbec" x="679.46" y="86.781574" style="fill: #77ac30; stroke: #77ac30"/>
    </g>
   </g>
   <g id="line2d_25">
    <path d="M 84.66 283.810184 
L 90.668081 273.677284 
L 96.676162 263.544384 
L 102.684242 253.411484 
L 108.692323 243.278584 
L 114.700404 233.145684 
L 120.708485 223.012784 
L 126.716566 212.879884 
L 132.724646 202.746984 
L 138.732727 192.614084 
L 144.740808 182.481184 
L 150.748889 172.348284 
L 156.75697 169.243591 
L 162.765051 166.138898 
L 168.773131 163.034205 
L 174.781212 159.929511 
L 180.789293 156.824818 
L 186.797374 153.720125 
L 192.805455 150.615432 
L 198.813535 147.510738 
L 204.821616 144.406045 
L 210.829697 141.301352 
L 216.837778 138.196659 
L 222.845859 136.831958 
L 228.853939 135.467258 
L 234.86202 134.102558 
L 240.870101 132.737857 
L 246.878182 131.373157 
L 252.886263 130.008457 
L 258.894343 128.643756 
L 264.902424 127.279056 
L 270.910505 125.914356 
L 276.918586 124.549655 
L 282.926667 123.184955 
L 288.934747 121.922607 
L 294.942828 120.66026 
L 300.950909 119.397912 
L 306.95899 118.135564 
L 312.967071 116.873216 
L 318.975152 115.610868 
L 324.983232 114.34852 
L 330.991313 113.086173 
L 336.999394 111.823825 
L 343.007475 110.561477 
L 349.015556 109.299129 
L 355.023636 108.923837 
L 361.031717 108.548544 
L 367.039798 108.173252 
L 373.047879 107.797959 
L 379.05596 107.422666 
L 385.06404 107.047374 
L 391.072121 106.672081 
L 397.080202 106.296789 
L 403.088283 105.921496 
L 409.096364 105.546203 
L 415.104444 105.170911 
L 421.112525 104.215621 
L 427.120606 103.26033 
L 433.128687 102.30504 
L 439.136768 101.34975 
L 445.144848 100.39446 
L 451.152929 99.439169 
L 457.16101 98.483879 
L 463.169091 97.528589 
L 469.177172 96.573299 
L 475.185253 95.618008 
L 481.193333 94.662718 
L 487.201414 93.570958 
L 493.209495 92.479198 
L 499.217576 91.387437 
L 505.225657 90.295677 
L 511.233737 89.203917 
L 517.241818 88.112157 
L 523.249899 87.020396 
L 529.25798 85.928636 
L 535.266061 84.836876 
L 541.274141 83.745116 
L 547.282222 82.653355 
L 553.290303 81.7663 
L 559.298384 80.879245 
L 565.306465 79.99219 
L 571.314545 79.105135 
L 577.322626 78.218079 
L 583.330707 77.331024 
L 589.338788 76.443969 
L 595.346869 75.556914 
L 601.354949 74.669858 
L 607.36303 73.782803 
L 613.371111 72.895748 
L 619.379192 72.793396 
L 625.387273 72.691043 
L 631.395354 72.58869 
L 637.403434 72.486338 
L 643.411515 72.383985 
L 649.419596 72.281633 
L 655.427677 72.17928 
L 661.435758 72.076928 
L 667.443838 71.974575 
L 673.451919 71.872223 
L 679.46 71.76987 
" clip-path="url(#pd325c66210)" style="fill: none; stroke: #88543c; stroke-width: 2; stroke-linecap: square"/>
   </g>
   <g id="line2d_26">
    <defs>
     <path id="me1a7fcf53f" d="M 0 3 
C 0.795609 3 1.55874 2.683901 2.12132 2.12132 
C 2.683901 1.55874 3 0.795609 3 0 
C 3 -0.795609 2.683901 -1.55874 2.12132 -2.12132 
C 1.55874 -2.683901 0.795609 -3 0 -3 
C -0.795609 -3 -1.55874 -2.683901 -2.12132 -2.12132 
C -2.683901 -1.55874 -3 -0.795609 -3 0 
C -3 0.795609 -2.683901 1.55874 -2.12132 2.12132 
C -1.55874 2.683901 -0.795609 3 0 3 
z
" style="stroke: #88543c"/>
    </defs>
    <g clip-path="url(#pd325c66210)">
     <use xlink:href="#me1a7fcf53f" x="84.66" y="283.810184" style="fill: #88543c; stroke: #88543c"/>
     <use xlink:href="#me1a7fcf53f" x="150.748889" y="172.348284" style="fill: #88543c; stroke: #88543c"/>
     <use xlink:href="#me1a7fcf53f" x="216.837778" y="138.196659" style="fill: #88543c; stroke: #88543c"/>
     <use xlink:href="#me1a7fcf53f" x="282.926667" y="123.184955" style="fill: #88543c; stroke: #88543c"/>
     <use xlink:href="#me1a7fcf53f" x="349.015556" y="109.299129" style="fill: #88543c; stroke: #88543c"/>
     <use xlink:href="#me1a7fcf53f" x="415.104444" y="105.170911" style="fill: #88543c; stroke: #88543c"/>
     <use xlink:href="#me1a7fcf53f" x="481.193333" y="94.662718" style="fill: #88543c; stroke: #88543c"/>
     <use xlink:href="#me1a7fcf53f" x="547.282222" y="82.653355" style="fill: #88543c; stroke: #88543c"/>
     <use xlink:href="#me1a7fcf53f" x="613.371111" y="72.895748" style="fill: #88543c; stroke: #88543c"/>
     <use xlink:href="#me1a7fcf53f" x="679.46" y="71.76987" style="fill: #88543c; stroke: #88543c"/>
    </g>
   </g>
   <g id="patch_3">
    <path d="M 54.92 375.92575 
L 54.92 25.44 
" style="fill: none; stroke: #000000; stroke-width: 0.8; stroke-linejoin: miter; stroke-linecap: square"/>
   </g>
   <g id="patch_4">
    <path d="M 54.92 375.92575 
L 709.2 375.92575 
" style="fill: none; stroke: #000000; stroke-width: 0.8; stroke-linejoin: miter; stroke-linecap: square"/>
   </g>
   <g id="text_12">
    <!-- Global Accuracy per Round (FedAvgM with Varying Momentum) -->
    <g transform="translate(192.106563 19.44) scale(0.12 -0.12)">
     <defs>
      <path id="DejaVuSans-46" d="M 628 4666 
L 3309 4666 
L 3309 4134 
L 1259 4134 
L 1259 2759 
L 3109 2759 
L 3109 2228 
L 1259 2228 
L 1259 0 
L 628 0 
L 628 4666 
z
" transform="scale(0.015625)"/>
      <path id="DejaVuSans-76" d="M 191 3500 
L 800 3500 
L 1894 563 
L 2988 3500 
L 3597 3500 
L 2284 0 
L 1503 0 
L 191 3500 
z
" transform="scale(0.015625)"/>
      <path id="DejaVuSans-67" d="M 2906 1791 
Q 2906 2416 2648 2759 
Q 2391 3103 1925 3103 
Q 1463 3103 1205 2759 
Q 947 2416 947 1791 
Q 947 1169 1205 825 
Q 1463 481 1925 481 
Q 2391 481 2648 825 
Q 2906 1169 2906 1791 
z
M 3481 434 
Q 3481 -459 3084 -895 
Q 2688 -1331 1869 -1331 
Q 1566 -1331 1297 -1286 
Q 1028 -1241 775 -1147 
L 775 -588 
Q 1028 -725 1275 -790 
Q 1522 -856 1778 -856 
Q 2344 -856 2625 -561 
Q 2906 -266 2906 331 
L 2906 616 
Q 2728 306 2450 153 
Q 2172 0 1784 0 
Q 1141 0 747 490 
Q 353 981 353 1791 
Q 353 2603 747 3093 
Q 1141 3584 1784 3584 
Q 2172 3584 2450 3431 
Q 2728 3278 2906 2969 
L 2906 3500 
L 3481 3500 
L 3481 434 
z
" transform="scale(0.015625)"/>
      <path id="DejaVuSans-4d" d="M 628 4666 
L 1569 4666 
L 2759 1491 
L 3956 4666 
L 4897 4666 
L 4897 0 
L 4281 0 
L 4281 4097 
L 3078 897 
L 2444 897 
L 1241 4097 
L 1241 0 
L 628 0 
L 628 4666 
z
" transform="scale(0.015625)"/>
      <path id="DejaVuSans-56" d="M 1831 0 
L 50 4666 
L 709 4666 
L 2188 738 
L 3669 4666 
L 4325 4666 
L 2547 0 
L 1831 0 
z
" transform="scale(0.015625)"/>
     </defs>
     <use xlink:href="#DejaVuSans-47"/>
     <use xlink:href="#DejaVuSans-6c" x="77.490234"/>
     <use xlink:href="#DejaVuSans-6f" x="105.273438"/>
     <use xlink:href="#DejaVuSans-62" x="166.455078"/>
     <use xlink:href="#DejaVuSans-61" x="229.931641"/>
     <use xlink:href="#DejaVuSans-6c" x="291.210938"/>
     <use xlink:href="#DejaVuSans-20" x="318.994141"/>
     <use xlink:href="#DejaVuSans-41" x="350.78125"/>
     <use xlink:href="#DejaVuSans-63" x="417.439453"/>
     <use xlink:href="#DejaVuSans-63" x="472.419922"/>
     <use xlink:href="#DejaVuSans-75" x="527.400391"/>
     <use xlink:href="#DejaVuSans-72" x="590.779297"/>
     <use xlink:href="#DejaVuSans-61" x="631.892578"/>
     <use xlink:href="#DejaVuSans-63" x="693.171875"/>
     <use xlink:href="#DejaVuSans-79" x="748.152344"/>
     <use xlink:href="#DejaVuSans-20" x="807.332031"/>
     <use xlink:href="#DejaVuSans-70" x="839.119141"/>
     <use xlink:href="#DejaVuSans-65" x="902.595703"/>
     <use xlink:href="#DejaVuSans-72" x="964.119141"/>
     <use xlink:href="#DejaVuSans-20" x="1005.232422"/>
     <use xlink:href="#DejaVuSans-52" x="1037.019531"/>
     <use xlink:href="#DejaVuSans-6f" x="1102.001953"/>
     <use xlink:href="#DejaVuSans-75" x="1163.183594"/>
     <use xlink:href="#DejaVuSans-6e" x="1226.5625"/>
     <use xlink:href="#DejaVuSans-64" x="1289.941406"/>
     <use xlink:href="#DejaVuSans-20" x="1353.417969"/>
     <use xlink:href="#DejaVuSans-28" x="1385.205078"/>
     <use xlink:href="#DejaVuSans-46" x="1424.21875"/>
     <use xlink:href="#DejaVuSans-65" x="1476.238281"/>
     <use xlink:href="#DejaVuSans-64" x="1537.761719"/>
     <use xlink:href="#DejaVuSans-41" x="1601.238281"/>
     <use xlink:href="#DejaVuSans-76" x="1663.771484"/>
     <use xlink:href="#DejaVuSans-67" x="1722.951172"/>
     <use xlink:href="#DejaVuSans-4d" x="1786.427734"/>
     <use xlink:href="#DejaVuSans-20" x="1872.707031"/>
     <use xlink:href="#DejaVuSans-77" x="1904.494141"/>
     <use xlink:href="#DejaVuSans-69" x="1986.28125"/>
     <use xlink:href="#DejaVuSans-74" x="2014.064453"/>
     <use xlink:href="#DejaVuSans-68" x="2053.273438"/>
     <use xlink:href="#DejaVuSans-20" x="2116.652344"/>
     <use xlink:href="#DejaVuSans-56" x="2148.439453"/>
     <use xlink:href="#DejaVuSans-61" x="2209.097656"/>
     <use xlink:href="#DejaVuSans-72" x="2270.376953"/>
     <use xlink:href="#DejaVuSans-79" x="2311.490234"/>
     <use xlink:href="#DejaVuSans-69" x="2370.669922"/>
     <use xlink:href="#DejaVuSans-6e" x="2398.453125"/>
     <use xlink:href="#DejaVuSans-67" x="2461.832031"/>
     <use xlink:href="#DejaVuSans-20" x="2525.308594"/>
     <use xlink:href="#DejaVuSans-4d" x="2557.095703"/>
     <use xlink:href="#DejaVuSans-6f" x="2643.375"/>
     <use xlink:href="#DejaVuSans-6d" x="2704.556641"/>
     <use xlink:href="#DejaVuSans-65" x="2801.96875"/>
     <use xlink:href="#DejaVuSans-6e" x="2863.492188"/>
     <use xlink:href="#DejaVuSans-74" x="2926.871094"/>
     <use xlink:href="#DejaVuSans-75" x="2966.080078"/>
     <use xlink:href="#DejaVuSans-6d" x="3029.458984"/>
     <use xlink:href="#DejaVuSans-29" x="3126.871094"/>
    </g>
   </g>
   <g id="legend_1">
    <g id="patch_5">
     <path d="M 61.92 92.4025 
L 195.72 92.4025 
Q 197.72 92.4025 197.72 90.4025 
L 197.72 32.44 
Q 197.72 30.44 195.72 30.44 
L 61.92 30.44 
Q 59.92 30.44 59.92 32.44 
L 59.92 90.4025 
Q 59.92 92.4025 61.92 92.4025 
z
" style="fill: #ffffff; opacity: 0.8; stroke: #cccccc; stroke-linejoin: miter"/>
    </g>
    <g id="line2d_27">
     <path d="M 63.92 38.600937 
L 73.92 38.600937 
L 83.92 38.600937 
" style="fill: none; stroke: #0072bd; stroke-width: 2; stroke-linecap: square"/>
    </g>
    <g id="text_13">
     <!-- Momentum() = 0.2 -->
     <g transform="translate(91.92 42.100937) scale(0.1 -0.1)">
      <defs>
       <path id="DejaVuSans-3b2" d="M 1178 216 
L 1178 -1331 
L 600 -1331 
L 600 3478 
Q 600 4903 1931 4903 
Q 3288 4903 3288 3700 
Q 3288 2844 2750 2531 
Q 3625 2250 3625 1416 
Q 3625 -66 2119 -66 
Q 1456 -66 1178 216 
z
M 1178 966 
Q 1525 425 2141 425 
Q 3041 425 3041 1406 
Q 3041 2288 1591 2219 
L 1591 2750 
Q 2725 2750 2725 3750 
Q 2725 4434 1994 4434 
Q 1178 4434 1178 3459 
L 1178 966 
z
" transform="scale(0.015625)"/>
      </defs>
      <use xlink:href="#DejaVuSans-4d"/>
      <use xlink:href="#DejaVuSans-6f" x="86.279297"/>
      <use xlink:href="#DejaVuSans-6d" x="147.460938"/>
      <use xlink:href="#DejaVuSans-65" x="244.873047"/>
      <use xlink:href="#DejaVuSans-6e" x="306.396484"/>
      <use xlink:href="#DejaVuSans-74" x="369.775391"/>
      <use xlink:href="#DejaVuSans-75" x="408.984375"/>
      <use xlink:href="#DejaVuSans-6d" x="472.363281"/>
      <use xlink:href="#DejaVuSans-28" x="569.775391"/>
      <use xlink:href="#DejaVuSans-3b2" x="608.789062"/>
      <use xlink:href="#DejaVuSans-29" x="672.607422"/>
      <use xlink:href="#DejaVuSans-20" x="711.621094"/>
      <use xlink:href="#DejaVuSans-3d" x="743.408203"/>
      <use xlink:href="#DejaVuSans-20" x="827.197266"/>
      <use xlink:href="#DejaVuSans-30" x="858.984375"/>
      <use xlink:href="#DejaVuSans-2e" x="922.607422"/>
      <use xlink:href="#DejaVuSans-32" x="954.394531"/>
     </g>
    </g>
    <g id="line2d_28">
     <path d="M 63.92 53.341562 
L 73.92 53.341562 
L 83.92 53.341562 
" style="fill: none; stroke: #d95319; stroke-width: 2; stroke-linecap: square"/>
    </g>
    <g id="text_14">
     <!-- Momentum() = 0.3 -->
     <g transform="translate(91.92 56.841562) scale(0.1 -0.1)">
      <defs>
       <path id="DejaVuSans-33" d="M 2597 2516 
Q 3050 2419 3304 2112 
Q 3559 1806 3559 1356 
Q 3559 666 3084 287 
Q 2609 -91 1734 -91 
Q 1441 -91 1130 -33 
Q 819 25 488 141 
L 488 750 
Q 750 597 1062 519 
Q 1375 441 1716 441 
Q 2309 441 2620 675 
Q 2931 909 2931 1356 
Q 2931 1769 2642 2001 
Q 2353 2234 1838 2234 
L 1294 2234 
L 1294 2753 
L 1863 2753 
Q 2328 2753 2575 2939 
Q 2822 3125 2822 3475 
Q 2822 3834 2567 4026 
Q 2313 4219 1838 4219 
Q 1578 4219 1281 4162 
Q 984 4106 628 3988 
L 628 4550 
Q 988 4650 1302 4700 
Q 1616 4750 1894 4750 
Q 2613 4750 3031 4423 
Q 3450 4097 3450 3541 
Q 3450 3153 3228 2886 
Q 3006 2619 2597 2516 
z
" transform="scale(0.015625)"/>
      </defs>
      <use xlink:href="#DejaVuSans-4d"/>
      <use xlink:href="#DejaVuSans-6f" x="86.279297"/>
      <use xlink:href="#DejaVuSans-6d" x="147.460938"/>
      <use xlink:href="#DejaVuSans-65" x="244.873047"/>
      <use xlink:href="#DejaVuSans-6e" x="306.396484"/>
      <use xlink:href="#DejaVuSans-74" x="369.775391"/>
      <use xlink:href="#DejaVuSans-75" x="408.984375"/>
      <use xlink:href="#DejaVuSans-6d" x="472.363281"/>
      <use xlink:href="#DejaVuSans-28" x="569.775391"/>
      <use xlink:href="#DejaVuSans-3b2" x="608.789062"/>
      <use xlink:href="#DejaVuSans-29" x="672.607422"/>
      <use xlink:href="#DejaVuSans-20" x="711.621094"/>
      <use xlink:href="#DejaVuSans-3d" x="743.408203"/>
      <use xlink:href="#DejaVuSans-20" x="827.197266"/>
      <use xlink:href="#DejaVuSans-30" x="858.984375"/>
      <use xlink:href="#DejaVuSans-2e" x="922.607422"/>
      <use xlink:href="#DejaVuSans-33" x="954.394531"/>
     </g>
    </g>
    <g id="line2d_29">
     <path d="M 63.92 68.082187 
L 73.92 68.082187 
L 83.92 68.082187 
" style="fill: none; stroke: #77ac30; stroke-width: 2; stroke-linecap: square"/>
    </g>
    <g id="text_15">
     <!-- Momentum() = 0.5 -->
     <g transform="translate(91.92 71.582187) scale(0.1 -0.1)">
      <use xlink:href="#DejaVuSans-4d"/>
      <use xlink:href="#DejaVuSans-6f" x="86.279297"/>
      <use xlink:href="#DejaVuSans-6d" x="147.460938"/>
      <use xlink:href="#DejaVuSans-65" x="244.873047"/>
      <use xlink:href="#DejaVuSans-6e" x="306.396484"/>
      <use xlink:href="#DejaVuSans-74" x="369.775391"/>
      <use xlink:href="#DejaVuSans-75" x="408.984375"/>
      <use xlink:href="#DejaVuSans-6d" x="472.363281"/>
      <use xlink:href="#DejaVuSans-28" x="569.775391"/>
      <use xlink:href="#DejaVuSans-3b2" x="608.789062"/>
      <use xlink:href="#DejaVuSans-29" x="672.607422"/>
      <use xlink:href="#DejaVuSans-20" x="711.621094"/>
      <use xlink:href="#DejaVuSans-3d" x="743.408203"/>
      <use xlink:href="#DejaVuSans-20" x="827.197266"/>
      <use xlink:href="#DejaVuSans-30" x="858.984375"/>
      <use xlink:href="#DejaVuSans-2e" x="922.607422"/>
      <use xlink:href="#DejaVuSans-35" x="954.394531"/>
     </g>
    </g>
    <g id="line2d_30">
     <path d="M 63.92 82.822812 
L 73.92 82.822812 
L 83.92 82.822812 
" style="fill: none; stroke: #88543c; stroke-width: 2; stroke-linecap: square"/>
    </g>
    <g id="text_16">
     <!-- Momentum() = 0.8 -->
     <g transform="translate(91.92 86.322812) scale(0.1 -0.1)">
      <use xlink:href="#DejaVuSans-4d"/>
      <use xlink:href="#DejaVuSans-6f" x="86.279297"/>
      <use xlink:href="#DejaVuSans-6d" x="147.460938"/>
      <use xlink:href="#DejaVuSans-65" x="244.873047"/>
      <use xlink:href="#DejaVuSans-6e" x="306.396484"/>
      <use xlink:href="#DejaVuSans-74" x="369.775391"/>
      <use xlink:href="#DejaVuSans-75" x="408.984375"/>
      <use xlink:href="#DejaVuSans-6d" x="472.363281"/>
      <use xlink:href="#DejaVuSans-28" x="569.775391"/>
      <use xlink:href="#DejaVuSans-3b2" x="608.789062"/>
      <use xlink:href="#DejaVuSans-29" x="672.607422"/>
      <use xlink:href="#DejaVuSans-20" x="711.621094"/>
      <use xlink:href="#DejaVuSans-3d" x="743.408203"/>
      <use xlink:href="#DejaVuSans-20" x="827.197266"/>
      <use xlink:href="#DejaVuSans-30" x="858.984375"/>
      <use xlink:href="#DejaVuSans-2e" x="922.607422"/>
      <use xlink:href="#DejaVuSans-38" x="954.394531"/>
     </g>
    </g>
   </g>
  </g>
 </g>
 <defs>
  <clipPath id="pd325c66210">
   <rect x="54.92" y="25.44" width="654.28" height="350.48575"/>
  </clipPath>
 </defs>
</svg>
