<?xml version="1.0" encoding="utf-8" standalone="no"?>
<!DOCTYPE svg PUBLIC "-//W3C//DTD SVG 1.1//EN"
  "http://www.w3.org/Graphics/SVG/1.1/DTD/svg11.dtd">
<svg xmlns:xlink="http://www.w3.org/1999/xlink" width="720pt" height="432pt" viewBox="0 0 720 432" xmlns="http://www.w3.org/2000/svg" version="1.1">
 <metadata>
  <rdf:RDF xmlns:dc="http://purl.org/dc/elements/1.1/" xmlns:cc="http://creativecommons.org/ns#" xmlns:rdf="http://www.w3.org/1999/02/22-rdf-syntax-ns#">
   <cc:Work>
    <dc:type rdf:resource="http://purl.org/dc/dcmitype/StillImage"/>
    <dc:date>2025-04-18T11:15:13.553055</dc:date>
    <dc:format>image/svg+xml</dc:format>
    <dc:creator>
     <cc:Agent>
      <dc:title>Matplotlib v3.9.2, https://matplotlib.org/</dc:title>
     </cc:Agent>
    </dc:creator>
   </cc:Work>
  </rdf:RDF>
 </metadata>
 <defs>
  <style type="text/css">*{stroke-linejoin: round; stroke-linecap: butt}</style>
 </defs>
 <g id="figure_1">
  <g id="patch_1">
   <path d="M 0 432 
L 720 432 
L 720 0 
L 0 0 
z
" style="fill: #ffffff"/>
  </g>
  <g id="axes_1">
   <g id="patch_2">
    <path d="M 54.92 389.32 
L 709.2 389.32 
L 709.2 26.88 
L 54.92 26.88 
z
" style="fill: #ffffff"/>
   </g>
   <g id="matplotlib.axis_1">
    <g id="xtick_1">
     <g id="line2d_1">
      <path d="M 150.748889 389.32 
L 150.748889 26.88 
" clip-path="url(#p08ef805613)" style="fill: none; stroke-dasharray: 2.96,1.28; stroke-dashoffset: 0; stroke: #b0b0b0; stroke-opacity: 0.3; stroke-width: 0.8"/>
     </g>
     <g id="line2d_2">
      <defs>
       <path id="mf0f7653a7a" d="M 0 0 
L 0 3.5 
" style="stroke: #000000; stroke-width: 0.8"/>
      </defs>
      <g>
       <use xlink:href="#mf0f7653a7a" x="150.748889" y="389.32" style="stroke: #000000; stroke-width: 0.8"/>
      </g>
     </g>
     <g id="text_1">
      <!-- 2 -->
      <g transform="translate(147.567639 403.918437) scale(0.1 -0.1)">
       <defs>
        <path id="DejaVuSans-32" d="M 1228 531 
L 3431 531 
L 3431 0 
L 469 0 
L 469 531 
Q 828 903 1448 1529 
Q 2069 2156 2228 2338 
Q 2531 2678 2651 2914 
Q 2772 3150 2772 3378 
Q 2772 3750 2511 3984 
Q 2250 4219 1831 4219 
Q 1534 4219 1204 4116 
Q 875 4013 500 3803 
L 500 4441 
Q 881 4594 1212 4672 
Q 1544 4750 1819 4750 
Q 2544 4750 2975 4387 
Q 3406 4025 3406 3419 
Q 3406 3131 3298 2873 
Q 3191 2616 2906 2266 
Q 2828 2175 2409 1742 
Q 1991 1309 1228 531 
z
" transform="scale(0.015625)"/>
       </defs>
       <use xlink:href="#DejaVuSans-32"/>
      </g>
     </g>
    </g>
    <g id="xtick_2">
     <g id="line2d_3">
      <path d="M 282.926667 389.32 
L 282.926667 26.88 
" clip-path="url(#p08ef805613)" style="fill: none; stroke-dasharray: 2.96,1.28; stroke-dashoffset: 0; stroke: #b0b0b0; stroke-opacity: 0.3; stroke-width: 0.8"/>
     </g>
     <g id="line2d_4">
      <g>
       <use xlink:href="#mf0f7653a7a" x="282.926667" y="389.32" style="stroke: #000000; stroke-width: 0.8"/>
      </g>
     </g>
     <g id="text_2">
      <!-- 4 -->
      <g transform="translate(279.745417 403.918437) scale(0.1 -0.1)">
       <defs>
        <path id="DejaVuSans-34" d="M 2419 4116 
L 825 1625 
L 2419 1625 
L 2419 4116 
z
M 2253 4666 
L 3047 4666 
L 3047 1625 
L 3713 1625 
L 3713 1100 
L 3047 1100 
L 3047 0 
L 2419 0 
L 2419 1100 
L 313 1100 
L 313 1709 
L 2253 4666 
z
" transform="scale(0.015625)"/>
       </defs>
       <use xlink:href="#DejaVuSans-34"/>
      </g>
     </g>
    </g>
    <g id="xtick_3">
     <g id="line2d_5">
      <path d="M 415.104444 389.32 
L 415.104444 26.88 
" clip-path="url(#p08ef805613)" style="fill: none; stroke-dasharray: 2.96,1.28; stroke-dashoffset: 0; stroke: #b0b0b0; stroke-opacity: 0.3; stroke-width: 0.8"/>
     </g>
     <g id="line2d_6">
      <g>
       <use xlink:href="#mf0f7653a7a" x="415.104444" y="389.32" style="stroke: #000000; stroke-width: 0.8"/>
      </g>
     </g>
     <g id="text_3">
      <!-- 6 -->
      <g transform="translate(411.923194 403.918437) scale(0.1 -0.1)">
       <defs>
        <path id="DejaVuSans-36" d="M 2113 2584 
Q 1688 2584 1439 2293 
Q 1191 2003 1191 1497 
Q 1191 994 1439 701 
Q 1688 409 2113 409 
Q 2538 409 2786 701 
Q 3034 994 3034 1497 
Q 3034 2003 2786 2293 
Q 2538 2584 2113 2584 
z
M 3366 4563 
L 3366 3988 
Q 3128 4100 2886 4159 
Q 2644 4219 2406 4219 
Q 1781 4219 1451 3797 
Q 1122 3375 1075 2522 
Q 1259 2794 1537 2939 
Q 1816 3084 2150 3084 
Q 2853 3084 3261 2657 
Q 3669 2231 3669 1497 
Q 3669 778 3244 343 
Q 2819 -91 2113 -91 
Q 1303 -91 875 529 
Q 447 1150 447 2328 
Q 447 3434 972 4092 
Q 1497 4750 2381 4750 
Q 2619 4750 2861 4703 
Q 3103 4656 3366 4563 
z
" transform="scale(0.015625)"/>
       </defs>
       <use xlink:href="#DejaVuSans-36"/>
      </g>
     </g>
    </g>
    <g id="xtick_4">
     <g id="line2d_7">
      <path d="M 547.282222 389.32 
L 547.282222 26.88 
" clip-path="url(#p08ef805613)" style="fill: none; stroke-dasharray: 2.96,1.28; stroke-dashoffset: 0; stroke: #b0b0b0; stroke-opacity: 0.3; stroke-width: 0.8"/>
     </g>
     <g id="line2d_8">
      <g>
       <use xlink:href="#mf0f7653a7a" x="547.282222" y="389.32" style="stroke: #000000; stroke-width: 0.8"/>
      </g>
     </g>
     <g id="text_4">
      <!-- 8 -->
      <g transform="translate(544.100972 403.918437) scale(0.1 -0.1)">
       <defs>
        <path id="DejaVuSans-38" d="M 2034 2216 
Q 1584 2216 1326 1975 
Q 1069 1734 1069 1313 
Q 1069 891 1326 650 
Q 1584 409 2034 409 
Q 2484 409 2743 651 
Q 3003 894 3003 1313 
Q 3003 1734 2745 1975 
Q 2488 2216 2034 2216 
z
M 1403 2484 
Q 997 2584 770 2862 
Q 544 3141 544 3541 
Q 544 4100 942 4425 
Q 1341 4750 2034 4750 
Q 2731 4750 3128 4425 
Q 3525 4100 3525 3541 
Q 3525 3141 3298 2862 
Q 3072 2584 2669 2484 
Q 3125 2378 3379 2068 
Q 3634 1759 3634 1313 
Q 3634 634 3220 271 
Q 2806 -91 2034 -91 
Q 1263 -91 848 271 
Q 434 634 434 1313 
Q 434 1759 690 2068 
Q 947 2378 1403 2484 
z
M 1172 3481 
Q 1172 3119 1398 2916 
Q 1625 2713 2034 2713 
Q 2441 2713 2670 2916 
Q 2900 3119 2900 3481 
Q 2900 3844 2670 4047 
Q 2441 4250 2034 4250 
Q 1625 4250 1398 4047 
Q 1172 3844 1172 3481 
z
" transform="scale(0.015625)"/>
       </defs>
       <use xlink:href="#DejaVuSans-38"/>
      </g>
     </g>
    </g>
    <g id="xtick_5">
     <g id="line2d_9">
      <path d="M 679.46 389.32 
L 679.46 26.88 
" clip-path="url(#p08ef805613)" style="fill: none; stroke-dasharray: 2.96,1.28; stroke-dashoffset: 0; stroke: #b0b0b0; stroke-opacity: 0.3; stroke-width: 0.8"/>
     </g>
     <g id="line2d_10">
      <g>
       <use xlink:href="#mf0f7653a7a" x="679.46" y="389.32" style="stroke: #000000; stroke-width: 0.8"/>
      </g>
     </g>
     <g id="text_5">
      <!-- 10 -->
      <g transform="translate(673.0975 403.918437) scale(0.1 -0.1)">
       <defs>
        <path id="DejaVuSans-31" d="M 794 531 
L 1825 531 
L 1825 4091 
L 703 3866 
L 703 4441 
L 1819 4666 
L 2450 4666 
L 2450 531 
L 3481 531 
L 3481 0 
L 794 0 
L 794 531 
z
" transform="scale(0.015625)"/>
        <path id="DejaVuSans-30" d="M 2034 4250 
Q 1547 4250 1301 3770 
Q 1056 3291 1056 2328 
Q 1056 1369 1301 889 
Q 1547 409 2034 409 
Q 2525 409 2770 889 
Q 3016 1369 3016 2328 
Q 3016 3291 2770 3770 
Q 2525 4250 2034 4250 
z
M 2034 4750 
Q 2819 4750 3233 4129 
Q 3647 3509 3647 2328 
Q 3647 1150 3233 529 
Q 2819 -91 2034 -91 
Q 1250 -91 836 529 
Q 422 1150 422 2328 
Q 422 3509 836 4129 
Q 1250 4750 2034 4750 
z
" transform="scale(0.015625)"/>
       </defs>
       <use xlink:href="#DejaVuSans-31"/>
       <use xlink:href="#DejaVuSans-30" x="63.623047"/>
      </g>
     </g>
    </g>
    <g id="text_6">
     <!-- Communication Round -->
     <g transform="translate(313.878438 419.11625) scale(0.12 -0.12)">
      <defs>
       <path id="DejaVuSans-43" d="M 4122 4306 
L 4122 3641 
Q 3803 3938 3442 4084 
Q 3081 4231 2675 4231 
Q 1875 4231 1450 3742 
Q 1025 3253 1025 2328 
Q 1025 1406 1450 917 
Q 1875 428 2675 428 
Q 3081 428 3442 575 
Q 3803 722 4122 1019 
L 4122 359 
Q 3791 134 3420 21 
Q 3050 -91 2638 -91 
Q 1578 -91 968 557 
Q 359 1206 359 2328 
Q 359 3453 968 4101 
Q 1578 4750 2638 4750 
Q 3056 4750 3426 4639 
Q 3797 4528 4122 4306 
z
" transform="scale(0.015625)"/>
       <path id="DejaVuSans-6f" d="M 1959 3097 
Q 1497 3097 1228 2736 
Q 959 2375 959 1747 
Q 959 1119 1226 758 
Q 1494 397 1959 397 
Q 2419 397 2687 759 
Q 2956 1122 2956 1747 
Q 2956 2369 2687 2733 
Q 2419 3097 1959 3097 
z
M 1959 3584 
Q 2709 3584 3137 3096 
Q 3566 2609 3566 1747 
Q 3566 888 3137 398 
Q 2709 -91 1959 -91 
Q 1206 -91 779 398 
Q 353 888 353 1747 
Q 353 2609 779 3096 
Q 1206 3584 1959 3584 
z
" transform="scale(0.015625)"/>
       <path id="DejaVuSans-6d" d="M 3328 2828 
Q 3544 3216 3844 3400 
Q 4144 3584 4550 3584 
Q 5097 3584 5394 3201 
Q 5691 2819 5691 2113 
L 5691 0 
L 5113 0 
L 5113 2094 
Q 5113 2597 4934 2840 
Q 4756 3084 4391 3084 
Q 3944 3084 3684 2787 
Q 3425 2491 3425 1978 
L 3425 0 
L 2847 0 
L 2847 2094 
Q 2847 2600 2669 2842 
Q 2491 3084 2119 3084 
Q 1678 3084 1418 2786 
Q 1159 2488 1159 1978 
L 1159 0 
L 581 0 
L 581 3500 
L 1159 3500 
L 1159 2956 
Q 1356 3278 1631 3431 
Q 1906 3584 2284 3584 
Q 2666 3584 2933 3390 
Q 3200 3197 3328 2828 
z
" transform="scale(0.015625)"/>
       <path id="DejaVuSans-75" d="M 544 1381 
L 544 3500 
L 1119 3500 
L 1119 1403 
Q 1119 906 1312 657 
Q 1506 409 1894 409 
Q 2359 409 2629 706 
Q 2900 1003 2900 1516 
L 2900 3500 
L 3475 3500 
L 3475 0 
L 2900 0 
L 2900 538 
Q 2691 219 2414 64 
Q 2138 -91 1772 -91 
Q 1169 -91 856 284 
Q 544 659 544 1381 
z
M 1991 3584 
L 1991 3584 
z
" transform="scale(0.015625)"/>
       <path id="DejaVuSans-6e" d="M 3513 2113 
L 3513 0 
L 2938 0 
L 2938 2094 
Q 2938 2591 2744 2837 
Q 2550 3084 2163 3084 
Q 1697 3084 1428 2787 
Q 1159 2491 1159 1978 
L 1159 0 
L 581 0 
L 581 3500 
L 1159 3500 
L 1159 2956 
Q 1366 3272 1645 3428 
Q 1925 3584 2291 3584 
Q 2894 3584 3203 3211 
Q 3513 2838 3513 2113 
z
" transform="scale(0.015625)"/>
       <path id="DejaVuSans-69" d="M 603 3500 
L 1178 3500 
L 1178 0 
L 603 0 
L 603 3500 
z
M 603 4863 
L 1178 4863 
L 1178 4134 
L 603 4134 
L 603 4863 
z
" transform="scale(0.015625)"/>
       <path id="DejaVuSans-63" d="M 3122 3366 
L 3122 2828 
Q 2878 2963 2633 3030 
Q 2388 3097 2138 3097 
Q 1578 3097 1268 2742 
Q 959 2388 959 1747 
Q 959 1106 1268 751 
Q 1578 397 2138 397 
Q 2388 397 2633 464 
Q 2878 531 3122 666 
L 3122 134 
Q 2881 22 2623 -34 
Q 2366 -91 2075 -91 
Q 1284 -91 818 406 
Q 353 903 353 1747 
Q 353 2603 823 3093 
Q 1294 3584 2113 3584 
Q 2378 3584 2631 3529 
Q 2884 3475 3122 3366 
z
" transform="scale(0.015625)"/>
       <path id="DejaVuSans-61" d="M 2194 1759 
Q 1497 1759 1228 1600 
Q 959 1441 959 1056 
Q 959 750 1161 570 
Q 1363 391 1709 391 
Q 2188 391 2477 730 
Q 2766 1069 2766 1631 
L 2766 1759 
L 2194 1759 
z
M 3341 1997 
L 3341 0 
L 2766 0 
L 2766 531 
Q 2569 213 2275 61 
Q 1981 -91 1556 -91 
Q 1019 -91 701 211 
Q 384 513 384 1019 
Q 384 1609 779 1909 
Q 1175 2209 1959 2209 
L 2766 2209 
L 2766 2266 
Q 2766 2663 2505 2880 
Q 2244 3097 1772 3097 
Q 1472 3097 1187 3025 
Q 903 2953 641 2809 
L 641 3341 
Q 956 3463 1253 3523 
Q 1550 3584 1831 3584 
Q 2591 3584 2966 3190 
Q 3341 2797 3341 1997 
z
" transform="scale(0.015625)"/>
       <path id="DejaVuSans-74" d="M 1172 4494 
L 1172 3500 
L 2356 3500 
L 2356 3053 
L 1172 3053 
L 1172 1153 
Q 1172 725 1289 603 
Q 1406 481 1766 481 
L 2356 481 
L 2356 0 
L 1766 0 
Q 1100 0 847 248 
Q 594 497 594 1153 
L 594 3053 
L 172 3053 
L 172 3500 
L 594 3500 
L 594 4494 
L 1172 4494 
z
" transform="scale(0.015625)"/>
       <path id="DejaVuSans-20" transform="scale(0.015625)"/>
       <path id="DejaVuSans-52" d="M 2841 2188 
Q 3044 2119 3236 1894 
Q 3428 1669 3622 1275 
L 4263 0 
L 3584 0 
L 2988 1197 
Q 2756 1666 2539 1819 
Q 2322 1972 1947 1972 
L 1259 1972 
L 1259 0 
L 628 0 
L 628 4666 
L 2053 4666 
Q 2853 4666 3247 4331 
Q 3641 3997 3641 3322 
Q 3641 2881 3436 2590 
Q 3231 2300 2841 2188 
z
M 1259 4147 
L 1259 2491 
L 2053 2491 
Q 2509 2491 2742 2702 
Q 2975 2913 2975 3322 
Q 2975 3731 2742 3939 
Q 2509 4147 2053 4147 
L 1259 4147 
z
" transform="scale(0.015625)"/>
       <path id="DejaVuSans-64" d="M 2906 2969 
L 2906 4863 
L 3481 4863 
L 3481 0 
L 2906 0 
L 2906 525 
Q 2725 213 2448 61 
Q 2172 -91 1784 -91 
Q 1150 -91 751 415 
Q 353 922 353 1747 
Q 353 2572 751 3078 
Q 1150 3584 1784 3584 
Q 2172 3584 2448 3432 
Q 2725 3281 2906 2969 
z
M 947 1747 
Q 947 1113 1208 752 
Q 1469 391 1925 391 
Q 2381 391 2643 752 
Q 2906 1113 2906 1747 
Q 2906 2381 2643 2742 
Q 2381 3103 1925 3103 
Q 1469 3103 1208 2742 
Q 947 2381 947 1747 
z
" transform="scale(0.015625)"/>
      </defs>
      <use xlink:href="#DejaVuSans-43"/>
      <use xlink:href="#DejaVuSans-6f" x="69.824219"/>
      <use xlink:href="#DejaVuSans-6d" x="131.005859"/>
      <use xlink:href="#DejaVuSans-6d" x="228.417969"/>
      <use xlink:href="#DejaVuSans-75" x="325.830078"/>
      <use xlink:href="#DejaVuSans-6e" x="389.208984"/>
      <use xlink:href="#DejaVuSans-69" x="452.587891"/>
      <use xlink:href="#DejaVuSans-63" x="480.371094"/>
      <use xlink:href="#DejaVuSans-61" x="535.351562"/>
      <use xlink:href="#DejaVuSans-74" x="596.630859"/>
      <use xlink:href="#DejaVuSans-69" x="635.839844"/>
      <use xlink:href="#DejaVuSans-6f" x="663.623047"/>
      <use xlink:href="#DejaVuSans-6e" x="724.804688"/>
      <use xlink:href="#DejaVuSans-20" x="788.183594"/>
      <use xlink:href="#DejaVuSans-52" x="819.970703"/>
      <use xlink:href="#DejaVuSans-6f" x="884.953125"/>
      <use xlink:href="#DejaVuSans-75" x="946.134766"/>
      <use xlink:href="#DejaVuSans-6e" x="1009.513672"/>
      <use xlink:href="#DejaVuSans-64" x="1072.892578"/>
     </g>
    </g>
   </g>
   <g id="matplotlib.axis_2">
    <g id="ytick_1">
     <g id="line2d_11">
      <path d="M 54.92 349.452595 
L 709.2 349.452595 
" clip-path="url(#p08ef805613)" style="fill: none; stroke-dasharray: 2.96,1.28; stroke-dashoffset: 0; stroke: #b0b0b0; stroke-opacity: 0.3; stroke-width: 0.8"/>
     </g>
     <g id="line2d_12">
      <defs>
       <path id="m4afc427ad1" d="M 0 0 
L -3.5 0 
" style="stroke: #000000; stroke-width: 0.8"/>
      </defs>
      <g>
       <use xlink:href="#m4afc427ad1" x="54.92" y="349.452595" style="stroke: #000000; stroke-width: 0.8"/>
      </g>
     </g>
     <g id="text_7">
      <!-- 0.90 -->
      <g transform="translate(25.654375 353.251814) scale(0.1 -0.1)">
       <defs>
        <path id="DejaVuSans-2e" d="M 684 794 
L 1344 794 
L 1344 0 
L 684 0 
L 684 794 
z
" transform="scale(0.015625)"/>
        <path id="DejaVuSans-39" d="M 703 97 
L 703 672 
Q 941 559 1184 500 
Q 1428 441 1663 441 
Q 2288 441 2617 861 
Q 2947 1281 2994 2138 
Q 2813 1869 2534 1725 
Q 2256 1581 1919 1581 
Q 1219 1581 811 2004 
Q 403 2428 403 3163 
Q 403 3881 828 4315 
Q 1253 4750 1959 4750 
Q 2769 4750 3195 4129 
Q 3622 3509 3622 2328 
Q 3622 1225 3098 567 
Q 2575 -91 1691 -91 
Q 1453 -91 1209 -44 
Q 966 3 703 97 
z
M 1959 2075 
Q 2384 2075 2632 2365 
Q 2881 2656 2881 3163 
Q 2881 3666 2632 3958 
Q 2384 4250 1959 4250 
Q 1534 4250 1286 3958 
Q 1038 3666 1038 3163 
Q 1038 2656 1286 2365 
Q 1534 2075 1959 2075 
z
" transform="scale(0.015625)"/>
       </defs>
       <use xlink:href="#DejaVuSans-30"/>
       <use xlink:href="#DejaVuSans-2e" x="63.623047"/>
       <use xlink:href="#DejaVuSans-39" x="95.410156"/>
       <use xlink:href="#DejaVuSans-30" x="159.033203"/>
      </g>
     </g>
    </g>
    <g id="ytick_2">
     <g id="line2d_13">
      <path d="M 54.92 299.680555 
L 709.2 299.680555 
" clip-path="url(#p08ef805613)" style="fill: none; stroke-dasharray: 2.96,1.28; stroke-dashoffset: 0; stroke: #b0b0b0; stroke-opacity: 0.3; stroke-width: 0.8"/>
     </g>
     <g id="line2d_14">
      <g>
       <use xlink:href="#m4afc427ad1" x="54.92" y="299.680555" style="stroke: #000000; stroke-width: 0.8"/>
      </g>
     </g>
     <g id="text_8">
      <!-- 0.91 -->
      <g transform="translate(25.654375 303.479774) scale(0.1 -0.1)">
       <use xlink:href="#DejaVuSans-30"/>
       <use xlink:href="#DejaVuSans-2e" x="63.623047"/>
       <use xlink:href="#DejaVuSans-39" x="95.410156"/>
       <use xlink:href="#DejaVuSans-31" x="159.033203"/>
      </g>
     </g>
    </g>
    <g id="ytick_3">
     <g id="line2d_15">
      <path d="M 54.92 249.908514 
L 709.2 249.908514 
" clip-path="url(#p08ef805613)" style="fill: none; stroke-dasharray: 2.96,1.28; stroke-dashoffset: 0; stroke: #b0b0b0; stroke-opacity: 0.3; stroke-width: 0.8"/>
     </g>
     <g id="line2d_16">
      <g>
       <use xlink:href="#m4afc427ad1" x="54.92" y="249.908514" style="stroke: #000000; stroke-width: 0.8"/>
      </g>
     </g>
     <g id="text_9">
      <!-- 0.92 -->
      <g transform="translate(25.654375 253.707733) scale(0.1 -0.1)">
       <use xlink:href="#DejaVuSans-30"/>
       <use xlink:href="#DejaVuSans-2e" x="63.623047"/>
       <use xlink:href="#DejaVuSans-39" x="95.410156"/>
       <use xlink:href="#DejaVuSans-32" x="159.033203"/>
      </g>
     </g>
    </g>
    <g id="ytick_4">
     <g id="line2d_17">
      <path d="M 54.92 200.136473 
L 709.2 200.136473 
" clip-path="url(#p08ef805613)" style="fill: none; stroke-dasharray: 2.96,1.28; stroke-dashoffset: 0; stroke: #b0b0b0; stroke-opacity: 0.3; stroke-width: 0.8"/>
     </g>
     <g id="line2d_18">
      <g>
       <use xlink:href="#m4afc427ad1" x="54.92" y="200.136473" style="stroke: #000000; stroke-width: 0.8"/>
      </g>
     </g>
     <g id="text_10">
      <!-- 0.93 -->
      <g transform="translate(25.654375 203.935692) scale(0.1 -0.1)">
       <defs>
        <path id="DejaVuSans-33" d="M 2597 2516 
Q 3050 2419 3304 2112 
Q 3559 1806 3559 1356 
Q 3559 666 3084 287 
Q 2609 -91 1734 -91 
Q 1441 -91 1130 -33 
Q 819 25 488 141 
L 488 750 
Q 750 597 1062 519 
Q 1375 441 1716 441 
Q 2309 441 2620 675 
Q 2931 909 2931 1356 
Q 2931 1769 2642 2001 
Q 2353 2234 1838 2234 
L 1294 2234 
L 1294 2753 
L 1863 2753 
Q 2328 2753 2575 2939 
Q 2822 3125 2822 3475 
Q 2822 3834 2567 4026 
Q 2313 4219 1838 4219 
Q 1578 4219 1281 4162 
Q 984 4106 628 3988 
L 628 4550 
Q 988 4650 1302 4700 
Q 1616 4750 1894 4750 
Q 2613 4750 3031 4423 
Q 3450 4097 3450 3541 
Q 3450 3153 3228 2886 
Q 3006 2619 2597 2516 
z
" transform="scale(0.015625)"/>
       </defs>
       <use xlink:href="#DejaVuSans-30"/>
       <use xlink:href="#DejaVuSans-2e" x="63.623047"/>
       <use xlink:href="#DejaVuSans-39" x="95.410156"/>
       <use xlink:href="#DejaVuSans-33" x="159.033203"/>
      </g>
     </g>
    </g>
    <g id="ytick_5">
     <g id="line2d_19">
      <path d="M 54.92 150.364433 
L 709.2 150.364433 
" clip-path="url(#p08ef805613)" style="fill: none; stroke-dasharray: 2.96,1.28; stroke-dashoffset: 0; stroke: #b0b0b0; stroke-opacity: 0.3; stroke-width: 0.8"/>
     </g>
     <g id="line2d_20">
      <g>
       <use xlink:href="#m4afc427ad1" x="54.92" y="150.364433" style="stroke: #000000; stroke-width: 0.8"/>
      </g>
     </g>
     <g id="text_11">
      <!-- 0.94 -->
      <g transform="translate(25.654375 154.163652) scale(0.1 -0.1)">
       <use xlink:href="#DejaVuSans-30"/>
       <use xlink:href="#DejaVuSans-2e" x="63.623047"/>
       <use xlink:href="#DejaVuSans-39" x="95.410156"/>
       <use xlink:href="#DejaVuSans-34" x="159.033203"/>
      </g>
     </g>
    </g>
    <g id="ytick_6">
     <g id="line2d_21">
      <path d="M 54.92 100.592392 
L 709.2 100.592392 
" clip-path="url(#p08ef805613)" style="fill: none; stroke-dasharray: 2.96,1.28; stroke-dashoffset: 0; stroke: #b0b0b0; stroke-opacity: 0.3; stroke-width: 0.8"/>
     </g>
     <g id="line2d_22">
      <g>
       <use xlink:href="#m4afc427ad1" x="54.92" y="100.592392" style="stroke: #000000; stroke-width: 0.8"/>
      </g>
     </g>
     <g id="text_12">
      <!-- 0.95 -->
      <g transform="translate(25.654375 104.391611) scale(0.1 -0.1)">
       <defs>
        <path id="DejaVuSans-35" d="M 691 4666 
L 3169 4666 
L 3169 4134 
L 1269 4134 
L 1269 2991 
Q 1406 3038 1543 3061 
Q 1681 3084 1819 3084 
Q 2600 3084 3056 2656 
Q 3513 2228 3513 1497 
Q 3513 744 3044 326 
Q 2575 -91 1722 -91 
Q 1428 -91 1123 -41 
Q 819 9 494 109 
L 494 744 
Q 775 591 1075 516 
Q 1375 441 1709 441 
Q 2250 441 2565 725 
Q 2881 1009 2881 1497 
Q 2881 1984 2565 2268 
Q 2250 2553 1709 2553 
Q 1456 2553 1204 2497 
Q 953 2441 691 2322 
L 691 4666 
z
" transform="scale(0.015625)"/>
       </defs>
       <use xlink:href="#DejaVuSans-30"/>
       <use xlink:href="#DejaVuSans-2e" x="63.623047"/>
       <use xlink:href="#DejaVuSans-39" x="95.410156"/>
       <use xlink:href="#DejaVuSans-35" x="159.033203"/>
      </g>
     </g>
    </g>
    <g id="ytick_7">
     <g id="line2d_23">
      <path d="M 54.92 50.820352 
L 709.2 50.820352 
" clip-path="url(#p08ef805613)" style="fill: none; stroke-dasharray: 2.96,1.28; stroke-dashoffset: 0; stroke: #b0b0b0; stroke-opacity: 0.3; stroke-width: 0.8"/>
     </g>
     <g id="line2d_24">
      <g>
       <use xlink:href="#m4afc427ad1" x="54.92" y="50.820352" style="stroke: #000000; stroke-width: 0.8"/>
      </g>
     </g>
     <g id="text_13">
      <!-- 0.96 -->
      <g transform="translate(25.654375 54.61957) scale(0.1 -0.1)">
       <use xlink:href="#DejaVuSans-30"/>
       <use xlink:href="#DejaVuSans-2e" x="63.623047"/>
       <use xlink:href="#DejaVuSans-39" x="95.410156"/>
       <use xlink:href="#DejaVuSans-36" x="159.033203"/>
      </g>
     </g>
    </g>
    <g id="text_14">
     <!-- Global Accuracy -->
     <g transform="translate(19.15875 256.540625) rotate(-90) scale(0.12 -0.12)">
      <defs>
       <path id="DejaVuSans-47" d="M 3809 666 
L 3809 1919 
L 2778 1919 
L 2778 2438 
L 4434 2438 
L 4434 434 
Q 4069 175 3628 42 
Q 3188 -91 2688 -91 
Q 1594 -91 976 548 
Q 359 1188 359 2328 
Q 359 3472 976 4111 
Q 1594 4750 2688 4750 
Q 3144 4750 3555 4637 
Q 3966 4525 4313 4306 
L 4313 3634 
Q 3963 3931 3569 4081 
Q 3175 4231 2741 4231 
Q 1884 4231 1454 3753 
Q 1025 3275 1025 2328 
Q 1025 1384 1454 906 
Q 1884 428 2741 428 
Q 3075 428 3337 486 
Q 3600 544 3809 666 
z
" transform="scale(0.015625)"/>
       <path id="DejaVuSans-6c" d="M 603 4863 
L 1178 4863 
L 1178 0 
L 603 0 
L 603 4863 
z
" transform="scale(0.015625)"/>
       <path id="DejaVuSans-62" d="M 3116 1747 
Q 3116 2381 2855 2742 
Q 2594 3103 2138 3103 
Q 1681 3103 1420 2742 
Q 1159 2381 1159 1747 
Q 1159 1113 1420 752 
Q 1681 391 2138 391 
Q 2594 391 2855 752 
Q 3116 1113 3116 1747 
z
M 1159 2969 
Q 1341 3281 1617 3432 
Q 1894 3584 2278 3584 
Q 2916 3584 3314 3078 
Q 3713 2572 3713 1747 
Q 3713 922 3314 415 
Q 2916 -91 2278 -91 
Q 1894 -91 1617 61 
Q 1341 213 1159 525 
L 1159 0 
L 581 0 
L 581 4863 
L 1159 4863 
L 1159 2969 
z
" transform="scale(0.015625)"/>
       <path id="DejaVuSans-41" d="M 2188 4044 
L 1331 1722 
L 3047 1722 
L 2188 4044 
z
M 1831 4666 
L 2547 4666 
L 4325 0 
L 3669 0 
L 3244 1197 
L 1141 1197 
L 716 0 
L 50 0 
L 1831 4666 
z
" transform="scale(0.015625)"/>
       <path id="DejaVuSans-72" d="M 2631 2963 
Q 2534 3019 2420 3045 
Q 2306 3072 2169 3072 
Q 1681 3072 1420 2755 
Q 1159 2438 1159 1844 
L 1159 0 
L 581 0 
L 581 3500 
L 1159 3500 
L 1159 2956 
Q 1341 3275 1631 3429 
Q 1922 3584 2338 3584 
Q 2397 3584 2469 3576 
Q 2541 3569 2628 3553 
L 2631 2963 
z
" transform="scale(0.015625)"/>
       <path id="DejaVuSans-79" d="M 2059 -325 
Q 1816 -950 1584 -1140 
Q 1353 -1331 966 -1331 
L 506 -1331 
L 506 -850 
L 844 -850 
Q 1081 -850 1212 -737 
Q 1344 -625 1503 -206 
L 1606 56 
L 191 3500 
L 800 3500 
L 1894 763 
L 2988 3500 
L 3597 3500 
L 2059 -325 
z
" transform="scale(0.015625)"/>
      </defs>
      <use xlink:href="#DejaVuSans-47"/>
      <use xlink:href="#DejaVuSans-6c" x="77.490234"/>
      <use xlink:href="#DejaVuSans-6f" x="105.273438"/>
      <use xlink:href="#DejaVuSans-62" x="166.455078"/>
      <use xlink:href="#DejaVuSans-61" x="229.931641"/>
      <use xlink:href="#DejaVuSans-6c" x="291.210938"/>
      <use xlink:href="#DejaVuSans-20" x="318.994141"/>
      <use xlink:href="#DejaVuSans-41" x="350.78125"/>
      <use xlink:href="#DejaVuSans-63" x="417.439453"/>
      <use xlink:href="#DejaVuSans-63" x="472.419922"/>
      <use xlink:href="#DejaVuSans-75" x="527.400391"/>
      <use xlink:href="#DejaVuSans-72" x="590.779297"/>
      <use xlink:href="#DejaVuSans-61" x="631.892578"/>
      <use xlink:href="#DejaVuSans-63" x="693.171875"/>
      <use xlink:href="#DejaVuSans-79" x="748.152344"/>
     </g>
    </g>
   </g>
   <g id="line2d_25">
    <path d="M 84.66 252.397116 
L 90.668081 246.650708 
L 96.676162 240.9043 
L 102.684242 235.157891 
L 108.692323 229.411483 
L 114.700404 223.665075 
L 120.708485 217.918666 
L 126.716566 212.172258 
L 132.724646 206.42585 
L 138.732727 200.679441 
L 144.740808 194.933033 
L 150.748889 189.186625 
L 156.75697 185.385851 
L 162.765051 181.585077 
L 168.773131 177.784303 
L 174.781212 173.983529 
L 180.789293 170.182754 
L 186.797374 166.38198 
L 192.805455 162.581206 
L 198.813535 158.780432 
L 204.821616 154.979658 
L 210.829697 151.178884 
L 216.837778 147.37811 
L 222.845859 146.156433 
L 228.853939 144.934756 
L 234.86202 143.713078 
L 240.870101 142.491401 
L 246.878182 141.269724 
L 252.886263 140.048046 
L 258.894343 138.826369 
L 264.902424 137.604692 
L 270.910505 136.383014 
L 276.918586 135.161337 
L 282.926667 133.939659 
L 288.934747 131.677294 
L 294.942828 129.414928 
L 300.950909 127.152563 
L 306.95899 124.890197 
L 312.967071 122.627832 
L 318.975152 120.365467 
L 324.983232 118.103101 
L 330.991313 115.840736 
L 336.999394 113.57837 
L 343.007475 111.316005 
L 349.015556 109.053639 
L 355.023636 108.87265 
L 361.031717 108.691661 
L 367.039798 108.510671 
L 373.047879 108.329682 
L 379.05596 108.148693 
L 385.06404 107.967704 
L 391.072121 107.786714 
L 397.080202 107.605725 
L 403.088283 107.424736 
L 409.096364 107.243747 
L 415.104444 107.062757 
L 421.112525 105.524349 
L 427.120606 103.98594 
L 433.128687 102.447532 
L 439.136768 100.909123 
L 445.144848 99.370715 
L 451.152929 97.832306 
L 457.16101 96.293898 
L 463.169091 94.755489 
L 469.177172 93.217081 
L 475.185253 91.678672 
L 481.193333 90.140264 
L 487.201414 88.375619 
L 493.209495 86.610974 
L 499.217576 84.846328 
L 505.225657 83.081683 
L 511.233737 81.317038 
L 517.241818 79.552393 
L 523.249899 77.787748 
L 529.25798 76.023103 
L 535.266061 74.258458 
L 541.274141 72.493813 
L 547.282222 70.729168 
L 553.290303 68.557297 
L 559.298384 66.385426 
L 565.306465 64.213555 
L 571.314545 62.041684 
L 577.322626 59.869813 
L 583.330707 57.697943 
L 589.338788 55.526072 
L 595.346869 53.354201 
L 601.354949 51.18233 
L 607.36303 49.010459 
L 613.371111 46.838588 
L 619.379192 46.521857 
L 625.387273 46.205126 
L 631.395354 45.888395 
L 637.403434 45.571664 
L 643.411515 45.254932 
L 649.419596 44.938201 
L 655.427677 44.62147 
L 661.435758 44.304739 
L 667.443838 43.988008 
L 673.451919 43.671277 
L 679.46 43.354545 
" clip-path="url(#p08ef805613)" style="fill: none; stroke: #ed1c24; stroke-width: 2; stroke-linecap: square"/>
   </g>
   <g id="line2d_26">
    <defs>
     <path id="m2d1fee94f8" d="M 0 3 
C 0.795609 3 1.55874 2.683901 2.12132 2.12132 
C 2.683901 1.55874 3 0.795609 3 0 
C 3 -0.795609 2.683901 -1.55874 2.12132 -2.12132 
C 1.55874 -2.683901 0.795609 -3 0 -3 
C -0.795609 -3 -1.55874 -2.683901 -2.12132 -2.12132 
C -2.683901 -1.55874 -3 -0.795609 -3 0 
C -3 0.795609 -2.683901 1.55874 -2.12132 2.12132 
C -1.55874 2.683901 -0.795609 3 0 3 
z
" style="stroke: #ed1c24"/>
    </defs>
    <g clip-path="url(#p08ef805613)">
     <use xlink:href="#m2d1fee94f8" x="84.66" y="252.397116" style="fill: #ed1c24; stroke: #ed1c24"/>
     <use xlink:href="#m2d1fee94f8" x="150.748889" y="189.186625" style="fill: #ed1c24; stroke: #ed1c24"/>
     <use xlink:href="#m2d1fee94f8" x="216.837778" y="147.37811" style="fill: #ed1c24; stroke: #ed1c24"/>
     <use xlink:href="#m2d1fee94f8" x="282.926667" y="133.939659" style="fill: #ed1c24; stroke: #ed1c24"/>
     <use xlink:href="#m2d1fee94f8" x="349.015556" y="109.053639" style="fill: #ed1c24; stroke: #ed1c24"/>
     <use xlink:href="#m2d1fee94f8" x="415.104444" y="107.062757" style="fill: #ed1c24; stroke: #ed1c24"/>
     <use xlink:href="#m2d1fee94f8" x="481.193333" y="90.140264" style="fill: #ed1c24; stroke: #ed1c24"/>
     <use xlink:href="#m2d1fee94f8" x="547.282222" y="70.729168" style="fill: #ed1c24; stroke: #ed1c24"/>
     <use xlink:href="#m2d1fee94f8" x="613.371111" y="46.838588" style="fill: #ed1c24; stroke: #ed1c24"/>
     <use xlink:href="#m2d1fee94f8" x="679.46" y="43.354545" style="fill: #ed1c24; stroke: #ed1c24"/>
    </g>
   </g>
   <g id="line2d_27">
    <path d="M 84.66 366.375089 
L 90.668081 357.7781 
L 96.676162 349.181112 
L 102.684242 340.584123 
L 108.692323 331.987134 
L 114.700404 323.390145 
L 120.708485 314.793156 
L 126.716566 306.196167 
L 132.724646 297.599179 
L 138.732727 289.00219 
L 144.740808 280.405201 
L 150.748889 271.808212 
L 156.75697 269.681588 
L 162.765051 267.554965 
L 168.773131 265.428341 
L 174.781212 263.301718 
L 180.789293 261.175094 
L 186.797374 259.048471 
L 192.805455 256.921847 
L 198.813535 254.795224 
L 204.821616 252.6686 
L 210.829697 250.541976 
L 216.837778 248.415353 
L 222.845859 244.524084 
L 228.853939 240.632816 
L 234.86202 236.741547 
L 240.870101 232.850278 
L 246.878182 228.95901 
L 252.886263 225.067741 
L 258.894343 221.176472 
L 264.902424 217.285204 
L 270.910505 213.393935 
L 276.918586 209.502667 
L 282.926667 205.611398 
L 288.934747 202.941807 
L 294.942828 200.272215 
L 300.950909 197.602624 
L 306.95899 194.933033 
L 312.967071 192.263442 
L 318.975152 189.59385 
L 324.983232 186.924259 
L 330.991313 184.254668 
L 336.999394 181.585077 
L 343.007475 178.915485 
L 349.015556 176.245894 
L 355.023636 176.879356 
L 361.031717 177.512819 
L 367.039798 178.146281 
L 373.047879 178.779743 
L 379.05596 179.413206 
L 385.06404 180.046668 
L 391.072121 180.68013 
L 397.080202 181.313593 
L 403.088283 181.947055 
L 409.096364 182.580517 
L 415.104444 183.21398 
L 421.112525 181.539829 
L 427.120606 179.865679 
L 433.128687 178.191528 
L 439.136768 176.517378 
L 445.144848 174.843227 
L 451.152929 173.169077 
L 457.16101 171.494926 
L 463.169091 169.820776 
L 469.177172 168.146626 
L 475.185253 166.472475 
L 481.193333 164.798325 
L 487.201414 165.522282 
L 493.209495 166.246239 
L 499.217576 166.970196 
L 505.225657 167.694152 
L 511.233737 168.418109 
L 517.241818 169.142066 
L 523.249899 169.866023 
L 529.25798 170.58998 
L 535.266061 171.313937 
L 541.274141 172.037894 
L 547.282222 172.761851 
L 553.290303 169.368303 
L 559.298384 165.974755 
L 565.306465 162.581206 
L 571.314545 159.187658 
L 577.322626 155.79411 
L 583.330707 152.400562 
L 589.338788 149.007014 
L 595.346869 145.613465 
L 601.354949 142.219917 
L 607.36303 138.826369 
L 613.371111 135.432821 
L 619.379192 138.46439 
L 625.387273 141.49596 
L 631.395354 144.52753 
L 637.403434 147.5591 
L 643.411515 150.590669 
L 649.419596 153.622239 
L 655.427677 156.653809 
L 661.435758 159.685379 
L 667.443838 162.716948 
L 673.451919 165.748518 
L 679.46 168.780088 
" clip-path="url(#p08ef805613)" style="fill: none; stroke: #0072bd; stroke-width: 2; stroke-linecap: square"/>
   </g>
   <g id="line2d_28">
    <defs>
     <path id="m1e4eb31c3d" d="M 0 3 
C 0.795609 3 1.55874 2.683901 2.12132 2.12132 
C 2.683901 1.55874 3 0.795609 3 0 
C 3 -0.795609 2.683901 -1.55874 2.12132 -2.12132 
C 1.55874 -2.683901 0.795609 -3 0 -3 
C -0.795609 -3 -1.55874 -2.683901 -2.12132 -2.12132 
C -2.683901 -1.55874 -3 -0.795609 -3 0 
C -3 0.795609 -2.683901 1.55874 -2.12132 2.12132 
C -1.55874 2.683901 -0.795609 3 0 3 
z
" style="stroke: #0072bd"/>
    </defs>
    <g clip-path="url(#p08ef805613)">
     <use xlink:href="#m1e4eb31c3d" x="84.66" y="366.375089" style="fill: #0072bd; stroke: #0072bd"/>
     <use xlink:href="#m1e4eb31c3d" x="150.748889" y="271.808212" style="fill: #0072bd; stroke: #0072bd"/>
     <use xlink:href="#m1e4eb31c3d" x="216.837778" y="248.415353" style="fill: #0072bd; stroke: #0072bd"/>
     <use xlink:href="#m1e4eb31c3d" x="282.926667" y="205.611398" style="fill: #0072bd; stroke: #0072bd"/>
     <use xlink:href="#m1e4eb31c3d" x="349.015556" y="176.245894" style="fill: #0072bd; stroke: #0072bd"/>
     <use xlink:href="#m1e4eb31c3d" x="415.104444" y="183.21398" style="fill: #0072bd; stroke: #0072bd"/>
     <use xlink:href="#m1e4eb31c3d" x="481.193333" y="164.798325" style="fill: #0072bd; stroke: #0072bd"/>
     <use xlink:href="#m1e4eb31c3d" x="547.282222" y="172.761851" style="fill: #0072bd; stroke: #0072bd"/>
     <use xlink:href="#m1e4eb31c3d" x="613.371111" y="135.432821" style="fill: #0072bd; stroke: #0072bd"/>
     <use xlink:href="#m1e4eb31c3d" x="679.46" y="168.780088" style="fill: #0072bd; stroke: #0072bd"/>
    </g>
   </g>
   <g id="line2d_29">
    <path d="M 84.66 372.845455 
L 90.668081 369.994874 
L 96.676162 367.144294 
L 102.684242 364.293713 
L 108.692323 361.443133 
L 114.700404 358.592552 
L 120.708485 355.741971 
L 126.716566 352.891391 
L 132.724646 350.04081 
L 138.732727 347.19023 
L 144.740808 344.339649 
L 150.748889 341.489069 
L 156.75697 336.466618 
L 162.765051 331.444166 
L 168.773131 326.421715 
L 174.781212 321.399263 
L 180.789293 316.376812 
L 186.797374 311.354361 
L 192.805455 306.331909 
L 198.813535 301.309458 
L 204.821616 296.287007 
L 210.829697 291.264555 
L 216.837778 286.242104 
L 222.845859 276.106706 
L 228.853939 265.971309 
L 234.86202 255.835912 
L 240.870101 245.700514 
L 246.878182 235.565117 
L 252.886263 225.42972 
L 258.894343 215.294322 
L 264.902424 205.158925 
L 270.910505 195.023528 
L 276.918586 184.88813 
L 282.926667 174.752733 
L 288.934747 171.042453 
L 294.942828 167.332174 
L 300.950909 163.621895 
L 306.95899 159.911615 
L 312.967071 156.201336 
L 318.975152 152.491056 
L 324.983232 148.780777 
L 330.991313 145.070498 
L 336.999394 141.360218 
L 343.007475 137.649939 
L 349.015556 133.939659 
L 355.023636 138.011917 
L 361.031717 142.084175 
L 367.039798 146.156433 
L 373.047879 150.228691 
L 379.05596 154.300949 
L 385.06404 158.373207 
L 391.072121 162.445465 
L 397.080202 166.517722 
L 403.088283 170.58998 
L 409.096364 174.662238 
L 415.104444 178.734496 
L 421.112525 176.517378 
L 427.120606 174.30026 
L 433.128687 172.083141 
L 439.136768 169.866023 
L 445.144848 167.648905 
L 451.152929 165.431787 
L 457.16101 163.214669 
L 463.169091 160.997551 
L 469.177172 158.780432 
L 475.185253 156.563314 
L 481.193333 154.346196 
L 487.201414 154.979658 
L 493.209495 155.613121 
L 499.217576 156.246583 
L 505.225657 156.880045 
L 511.233737 157.513508 
L 517.241818 158.14697 
L 523.249899 158.780432 
L 529.25798 159.413895 
L 535.266061 160.047357 
L 541.274141 160.680819 
L 547.282222 161.314282 
L 553.290303 155.975099 
L 559.298384 150.635917 
L 565.306465 145.296734 
L 571.314545 139.957552 
L 577.322626 134.618369 
L 583.330707 129.279187 
L 589.338788 123.940004 
L 595.346869 118.600821 
L 601.354949 113.261639 
L 607.36303 107.922456 
L 613.371111 102.583274 
L 619.379192 99.732693 
L 625.387273 96.882113 
L 631.395354 94.031532 
L 637.403434 91.180952 
L 643.411515 88.330371 
L 649.419596 85.479791 
L 655.427677 82.62921 
L 661.435758 79.77863 
L 667.443838 76.928049 
L 673.451919 74.077469 
L 679.46 71.226888 
" clip-path="url(#p08ef805613)" style="fill: none; stroke: #77ac30; stroke-width: 2; stroke-linecap: square"/>
   </g>
   <g id="line2d_30">
    <defs>
     <path id="mb76c5b2710" d="M 0 3 
C 0.795609 3 1.55874 2.683901 2.12132 2.12132 
C 2.683901 1.55874 3 0.795609 3 0 
C 3 -0.795609 2.683901 -1.55874 2.12132 -2.12132 
C 1.55874 -2.683901 0.795609 -3 0 -3 
C -0.795609 -3 -1.55874 -2.683901 -2.12132 -2.12132 
C -2.683901 -1.55874 -3 -0.795609 -3 0 
C -3 0.795609 -2.683901 1.55874 -2.12132 2.12132 
C -1.55874 2.683901 -0.795609 3 0 3 
z
" style="stroke: #77ac30"/>
    </defs>
    <g clip-path="url(#p08ef805613)">
     <use xlink:href="#mb76c5b2710" x="84.66" y="372.845455" style="fill: #77ac30; stroke: #77ac30"/>
     <use xlink:href="#mb76c5b2710" x="150.748889" y="341.489069" style="fill: #77ac30; stroke: #77ac30"/>
     <use xlink:href="#mb76c5b2710" x="216.837778" y="286.242104" style="fill: #77ac30; stroke: #77ac30"/>
     <use xlink:href="#mb76c5b2710" x="282.926667" y="174.752733" style="fill: #77ac30; stroke: #77ac30"/>
     <use xlink:href="#mb76c5b2710" x="349.015556" y="133.939659" style="fill: #77ac30; stroke: #77ac30"/>
     <use xlink:href="#mb76c5b2710" x="415.104444" y="178.734496" style="fill: #77ac30; stroke: #77ac30"/>
     <use xlink:href="#mb76c5b2710" x="481.193333" y="154.346196" style="fill: #77ac30; stroke: #77ac30"/>
     <use xlink:href="#mb76c5b2710" x="547.282222" y="161.314282" style="fill: #77ac30; stroke: #77ac30"/>
     <use xlink:href="#mb76c5b2710" x="613.371111" y="102.583274" style="fill: #77ac30; stroke: #77ac30"/>
     <use xlink:href="#mb76c5b2710" x="679.46" y="71.226888" style="fill: #77ac30; stroke: #77ac30"/>
    </g>
   </g>
   <g id="patch_3">
    <path d="M 54.92 389.32 
L 54.92 26.88 
" style="fill: none; stroke: #000000; stroke-width: 0.8; stroke-linejoin: miter; stroke-linecap: square"/>
   </g>
   <g id="patch_4">
    <path d="M 54.92 389.32 
L 709.2 389.32 
" style="fill: none; stroke: #000000; stroke-width: 0.8; stroke-linejoin: miter; stroke-linecap: square"/>
   </g>
   <g id="text_15">
    <!-- Global Accuracy per Round (FedAvg vs FedAvgM) -->
    <g transform="translate(222.885156 20.88) scale(0.13 -0.13)">
     <defs>
      <path id="DejaVuSans-70" d="M 1159 525 
L 1159 -1331 
L 581 -1331 
L 581 3500 
L 1159 3500 
L 1159 2969 
Q 1341 3281 1617 3432 
Q 1894 3584 2278 3584 
Q 2916 3584 3314 3078 
Q 3713 2572 3713 1747 
Q 3713 922 3314 415 
Q 2916 -91 2278 -91 
Q 1894 -91 1617 61 
Q 1341 213 1159 525 
z
M 3116 1747 
Q 3116 2381 2855 2742 
Q 2594 3103 2138 3103 
Q 1681 3103 1420 2742 
Q 1159 2381 1159 1747 
Q 1159 1113 1420 752 
Q 1681 391 2138 391 
Q 2594 391 2855 752 
Q 3116 1113 3116 1747 
z
" transform="scale(0.015625)"/>
      <path id="DejaVuSans-65" d="M 3597 1894 
L 3597 1613 
L 953 1613 
Q 991 1019 1311 708 
Q 1631 397 2203 397 
Q 2534 397 2845 478 
Q 3156 559 3463 722 
L 3463 178 
Q 3153 47 2828 -22 
Q 2503 -91 2169 -91 
Q 1331 -91 842 396 
Q 353 884 353 1716 
Q 353 2575 817 3079 
Q 1281 3584 2069 3584 
Q 2775 3584 3186 3129 
Q 3597 2675 3597 1894 
z
M 3022 2063 
Q 3016 2534 2758 2815 
Q 2500 3097 2075 3097 
Q 1594 3097 1305 2825 
Q 1016 2553 972 2059 
L 3022 2063 
z
" transform="scale(0.015625)"/>
      <path id="DejaVuSans-28" d="M 1984 4856 
Q 1566 4138 1362 3434 
Q 1159 2731 1159 2009 
Q 1159 1288 1364 580 
Q 1569 -128 1984 -844 
L 1484 -844 
Q 1016 -109 783 600 
Q 550 1309 550 2009 
Q 550 2706 781 3412 
Q 1013 4119 1484 4856 
L 1984 4856 
z
" transform="scale(0.015625)"/>
      <path id="DejaVuSans-46" d="M 628 4666 
L 3309 4666 
L 3309 4134 
L 1259 4134 
L 1259 2759 
L 3109 2759 
L 3109 2228 
L 1259 2228 
L 1259 0 
L 628 0 
L 628 4666 
z
" transform="scale(0.015625)"/>
      <path id="DejaVuSans-76" d="M 191 3500 
L 800 3500 
L 1894 563 
L 2988 3500 
L 3597 3500 
L 2284 0 
L 1503 0 
L 191 3500 
z
" transform="scale(0.015625)"/>
      <path id="DejaVuSans-67" d="M 2906 1791 
Q 2906 2416 2648 2759 
Q 2391 3103 1925 3103 
Q 1463 3103 1205 2759 
Q 947 2416 947 1791 
Q 947 1169 1205 825 
Q 1463 481 1925 481 
Q 2391 481 2648 825 
Q 2906 1169 2906 1791 
z
M 3481 434 
Q 3481 -459 3084 -895 
Q 2688 -1331 1869 -1331 
Q 1566 -1331 1297 -1286 
Q 1028 -1241 775 -1147 
L 775 -588 
Q 1028 -725 1275 -790 
Q 1522 -856 1778 -856 
Q 2344 -856 2625 -561 
Q 2906 -266 2906 331 
L 2906 616 
Q 2728 306 2450 153 
Q 2172 0 1784 0 
Q 1141 0 747 490 
Q 353 981 353 1791 
Q 353 2603 747 3093 
Q 1141 3584 1784 3584 
Q 2172 3584 2450 3431 
Q 2728 3278 2906 2969 
L 2906 3500 
L 3481 3500 
L 3481 434 
z
" transform="scale(0.015625)"/>
      <path id="DejaVuSans-73" d="M 2834 3397 
L 2834 2853 
Q 2591 2978 2328 3040 
Q 2066 3103 1784 3103 
Q 1356 3103 1142 2972 
Q 928 2841 928 2578 
Q 928 2378 1081 2264 
Q 1234 2150 1697 2047 
L 1894 2003 
Q 2506 1872 2764 1633 
Q 3022 1394 3022 966 
Q 3022 478 2636 193 
Q 2250 -91 1575 -91 
Q 1294 -91 989 -36 
Q 684 19 347 128 
L 347 722 
Q 666 556 975 473 
Q 1284 391 1588 391 
Q 1994 391 2212 530 
Q 2431 669 2431 922 
Q 2431 1156 2273 1281 
Q 2116 1406 1581 1522 
L 1381 1569 
Q 847 1681 609 1914 
Q 372 2147 372 2553 
Q 372 3047 722 3315 
Q 1072 3584 1716 3584 
Q 2034 3584 2315 3537 
Q 2597 3491 2834 3397 
z
" transform="scale(0.015625)"/>
      <path id="DejaVuSans-4d" d="M 628 4666 
L 1569 4666 
L 2759 1491 
L 3956 4666 
L 4897 4666 
L 4897 0 
L 4281 0 
L 4281 4097 
L 3078 897 
L 2444 897 
L 1241 4097 
L 1241 0 
L 628 0 
L 628 4666 
z
" transform="scale(0.015625)"/>
      <path id="DejaVuSans-29" d="M 513 4856 
L 1013 4856 
Q 1481 4119 1714 3412 
Q 1947 2706 1947 2009 
Q 1947 1309 1714 600 
Q 1481 -109 1013 -844 
L 513 -844 
Q 928 -128 1133 580 
Q 1338 1288 1338 2009 
Q 1338 2731 1133 3434 
Q 928 4138 513 4856 
z
" transform="scale(0.015625)"/>
     </defs>
     <use xlink:href="#DejaVuSans-47"/>
     <use xlink:href="#DejaVuSans-6c" x="77.490234"/>
     <use xlink:href="#DejaVuSans-6f" x="105.273438"/>
     <use xlink:href="#DejaVuSans-62" x="166.455078"/>
     <use xlink:href="#DejaVuSans-61" x="229.931641"/>
     <use xlink:href="#DejaVuSans-6c" x="291.210938"/>
     <use xlink:href="#DejaVuSans-20" x="318.994141"/>
     <use xlink:href="#DejaVuSans-41" x="350.78125"/>
     <use xlink:href="#DejaVuSans-63" x="417.439453"/>
     <use xlink:href="#DejaVuSans-63" x="472.419922"/>
     <use xlink:href="#DejaVuSans-75" x="527.400391"/>
     <use xlink:href="#DejaVuSans-72" x="590.779297"/>
     <use xlink:href="#DejaVuSans-61" x="631.892578"/>
     <use xlink:href="#DejaVuSans-63" x="693.171875"/>
     <use xlink:href="#DejaVuSans-79" x="748.152344"/>
     <use xlink:href="#DejaVuSans-20" x="807.332031"/>
     <use xlink:href="#DejaVuSans-70" x="839.119141"/>
     <use xlink:href="#DejaVuSans-65" x="902.595703"/>
     <use xlink:href="#DejaVuSans-72" x="964.119141"/>
     <use xlink:href="#DejaVuSans-20" x="1005.232422"/>
     <use xlink:href="#DejaVuSans-52" x="1037.019531"/>
     <use xlink:href="#DejaVuSans-6f" x="1102.001953"/>
     <use xlink:href="#DejaVuSans-75" x="1163.183594"/>
     <use xlink:href="#DejaVuSans-6e" x="1226.5625"/>
     <use xlink:href="#DejaVuSans-64" x="1289.941406"/>
     <use xlink:href="#DejaVuSans-20" x="1353.417969"/>
     <use xlink:href="#DejaVuSans-28" x="1385.205078"/>
     <use xlink:href="#DejaVuSans-46" x="1424.21875"/>
     <use xlink:href="#DejaVuSans-65" x="1476.238281"/>
     <use xlink:href="#DejaVuSans-64" x="1537.761719"/>
     <use xlink:href="#DejaVuSans-41" x="1601.238281"/>
     <use xlink:href="#DejaVuSans-76" x="1663.771484"/>
     <use xlink:href="#DejaVuSans-67" x="1722.951172"/>
     <use xlink:href="#DejaVuSans-20" x="1786.427734"/>
     <use xlink:href="#DejaVuSans-76" x="1818.214844"/>
     <use xlink:href="#DejaVuSans-73" x="1877.394531"/>
     <use xlink:href="#DejaVuSans-20" x="1929.494141"/>
     <use xlink:href="#DejaVuSans-46" x="1961.28125"/>
     <use xlink:href="#DejaVuSans-65" x="2013.300781"/>
     <use xlink:href="#DejaVuSans-64" x="2074.824219"/>
     <use xlink:href="#DejaVuSans-41" x="2138.300781"/>
     <use xlink:href="#DejaVuSans-76" x="2200.833984"/>
     <use xlink:href="#DejaVuSans-67" x="2260.013672"/>
     <use xlink:href="#DejaVuSans-4d" x="2323.490234"/>
     <use xlink:href="#DejaVuSans-29" x="2409.769531"/>
    </g>
   </g>
   <g id="legend_1">
    <g id="patch_5">
     <path d="M 61.92 78.976875 
L 288.698125 78.976875 
Q 290.698125 78.976875 290.698125 76.976875 
L 290.698125 33.88 
Q 290.698125 31.88 288.698125 31.88 
L 61.92 31.88 
Q 59.92 31.88 59.92 33.88 
L 59.92 76.976875 
Q 59.92 78.976875 61.92 78.976875 
z
" style="fill: #ffffff; opacity: 0.8; stroke: #cccccc; stroke-linejoin: miter"/>
    </g>
    <g id="line2d_31">
     <path d="M 63.92 39.978437 
L 73.92 39.978437 
L 83.92 39.978437 
" style="fill: none; stroke: #ed1c24; stroke-width: 2; stroke-linecap: square"/>
    </g>
    <g id="text_16">
     <!-- FedAvg (IID) -->
     <g transform="translate(91.92 43.478437) scale(0.1 -0.1)">
      <defs>
       <path id="DejaVuSans-49" d="M 628 4666 
L 1259 4666 
L 1259 0 
L 628 0 
L 628 4666 
z
" transform="scale(0.015625)"/>
       <path id="DejaVuSans-44" d="M 1259 4147 
L 1259 519 
L 2022 519 
Q 2988 519 3436 956 
Q 3884 1394 3884 2338 
Q 3884 3275 3436 3711 
Q 2988 4147 2022 4147 
L 1259 4147 
z
M 628 4666 
L 1925 4666 
Q 3281 4666 3915 4102 
Q 4550 3538 4550 2338 
Q 4550 1131 3912 565 
Q 3275 0 1925 0 
L 628 0 
L 628 4666 
z
" transform="scale(0.015625)"/>
      </defs>
      <use xlink:href="#DejaVuSans-46"/>
      <use xlink:href="#DejaVuSans-65" x="52.019531"/>
      <use xlink:href="#DejaVuSans-64" x="113.542969"/>
      <use xlink:href="#DejaVuSans-41" x="177.019531"/>
      <use xlink:href="#DejaVuSans-76" x="239.552734"/>
      <use xlink:href="#DejaVuSans-67" x="298.732422"/>
      <use xlink:href="#DejaVuSans-20" x="362.208984"/>
      <use xlink:href="#DejaVuSans-28" x="393.996094"/>
      <use xlink:href="#DejaVuSans-49" x="433.009766"/>
      <use xlink:href="#DejaVuSans-49" x="462.501953"/>
      <use xlink:href="#DejaVuSans-44" x="491.994141"/>
      <use xlink:href="#DejaVuSans-29" x="568.996094"/>
     </g>
    </g>
    <g id="line2d_32">
     <path d="M 63.92 54.656563 
L 73.92 54.656563 
L 83.92 54.656563 
" style="fill: none; stroke: #0072bd; stroke-width: 2; stroke-linecap: square"/>
    </g>
    <g id="text_17">
     <!-- FedAvg (Non-IID) -->
     <g transform="translate(91.92 58.156563) scale(0.1 -0.1)">
      <defs>
       <path id="DejaVuSans-4e" d="M 628 4666 
L 1478 4666 
L 3547 763 
L 3547 4666 
L 4159 4666 
L 4159 0 
L 3309 0 
L 1241 3903 
L 1241 0 
L 628 0 
L 628 4666 
z
" transform="scale(0.015625)"/>
       <path id="DejaVuSans-2d" d="M 313 2009 
L 1997 2009 
L 1997 1497 
L 313 1497 
L 313 2009 
z
" transform="scale(0.015625)"/>
      </defs>
      <use xlink:href="#DejaVuSans-46"/>
      <use xlink:href="#DejaVuSans-65" x="52.019531"/>
      <use xlink:href="#DejaVuSans-64" x="113.542969"/>
      <use xlink:href="#DejaVuSans-41" x="177.019531"/>
      <use xlink:href="#DejaVuSans-76" x="239.552734"/>
      <use xlink:href="#DejaVuSans-67" x="298.732422"/>
      <use xlink:href="#DejaVuSans-20" x="362.208984"/>
      <use xlink:href="#DejaVuSans-28" x="393.996094"/>
      <use xlink:href="#DejaVuSans-4e" x="433.009766"/>
      <use xlink:href="#DejaVuSans-6f" x="507.814453"/>
      <use xlink:href="#DejaVuSans-6e" x="568.996094"/>
      <use xlink:href="#DejaVuSans-2d" x="632.375"/>
      <use xlink:href="#DejaVuSans-49" x="668.458984"/>
      <use xlink:href="#DejaVuSans-49" x="697.951172"/>
      <use xlink:href="#DejaVuSans-44" x="727.443359"/>
      <use xlink:href="#DejaVuSans-29" x="804.445312"/>
     </g>
    </g>
    <g id="line2d_33">
     <path d="M 63.92 69.397187 
L 73.92 69.397187 
L 83.92 69.397187 
" style="fill: none; stroke: #77ac30; stroke-width: 2; stroke-linecap: square"/>
    </g>
    <g id="text_18">
     <!-- FedAvgM (Non-IID, Momentum(β)=0.2) -->
     <g transform="translate(91.92 72.897187) scale(0.1 -0.1)">
      <defs>
       <path id="DejaVuSans-2c" d="M 750 794 
L 1409 794 
L 1409 256 
L 897 -744 
L 494 -744 
L 750 256 
L 750 794 
z
" transform="scale(0.015625)"/>
       <path id="DejaVuSans-3b2" d="M 1178 216 
L 1178 -1331 
L 600 -1331 
L 600 3478 
Q 600 4903 1931 4903 
Q 3288 4903 3288 3700 
Q 3288 2844 2750 2531 
Q 3625 2250 3625 1416 
Q 3625 -66 2119 -66 
Q 1456 -66 1178 216 
z
M 1178 966 
Q 1525 425 2141 425 
Q 3041 425 3041 1406 
Q 3041 2288 1591 2219 
L 1591 2750 
Q 2725 2750 2725 3750 
Q 2725 4434 1994 4434 
Q 1178 4434 1178 3459 
L 1178 966 
z
" transform="scale(0.015625)"/>
       <path id="DejaVuSans-3d" d="M 678 2906 
L 4684 2906 
L 4684 2381 
L 678 2381 
L 678 2906 
z
M 678 1631 
L 4684 1631 
L 4684 1100 
L 678 1100 
L 678 1631 
z
" transform="scale(0.015625)"/>
      </defs>
      <use xlink:href="#DejaVuSans-46"/>
      <use xlink:href="#DejaVuSans-65" x="52.019531"/>
      <use xlink:href="#DejaVuSans-64" x="113.542969"/>
      <use xlink:href="#DejaVuSans-41" x="177.019531"/>
      <use xlink:href="#DejaVuSans-76" x="239.552734"/>
      <use xlink:href="#DejaVuSans-67" x="298.732422"/>
      <use xlink:href="#DejaVuSans-4d" x="362.208984"/>
      <use xlink:href="#DejaVuSans-20" x="448.488281"/>
      <use xlink:href="#DejaVuSans-28" x="480.275391"/>
      <use xlink:href="#DejaVuSans-4e" x="519.289062"/>
      <use xlink:href="#DejaVuSans-6f" x="594.09375"/>
      <use xlink:href="#DejaVuSans-6e" x="655.275391"/>
      <use xlink:href="#DejaVuSans-2d" x="718.654297"/>
      <use xlink:href="#DejaVuSans-49" x="754.738281"/>
      <use xlink:href="#DejaVuSans-49" x="784.230469"/>
      <use xlink:href="#DejaVuSans-44" x="813.722656"/>
      <use xlink:href="#DejaVuSans-2c" x="890.724609"/>
      <use xlink:href="#DejaVuSans-20" x="922.511719"/>
      <use xlink:href="#DejaVuSans-4d" x="954.298828"/>
      <use xlink:href="#DejaVuSans-6f" x="1040.578125"/>
      <use xlink:href="#DejaVuSans-6d" x="1101.759766"/>
      <use xlink:href="#DejaVuSans-65" x="1199.171875"/>
      <use xlink:href="#DejaVuSans-6e" x="1260.695312"/>
      <use xlink:href="#DejaVuSans-74" x="1324.074219"/>
      <use xlink:href="#DejaVuSans-75" x="1363.283203"/>
      <use xlink:href="#DejaVuSans-6d" x="1426.662109"/>
      <use xlink:href="#DejaVuSans-28" x="1524.074219"/>
      <use xlink:href="#DejaVuSans-3b2" x="1563.087891"/>
      <use xlink:href="#DejaVuSans-29" x="1626.90625"/>
      <use xlink:href="#DejaVuSans-3d" x="1665.919922"/>
      <use xlink:href="#DejaVuSans-30" x="1749.708984"/>
      <use xlink:href="#DejaVuSans-2e" x="1813.332031"/>
      <use xlink:href="#DejaVuSans-32" x="1845.119141"/>
      <use xlink:href="#DejaVuSans-29" x="1908.742188"/>
     </g>
    </g>
   </g>
  </g>
 </g>
 <defs>
  <clipPath id="p08ef805613">
   <rect x="54.92" y="26.88" width="654.28" height="362.44"/>
  </clipPath>
 </defs>
</svg>
