<?xml version="1.0" encoding="utf-8" standalone="no"?>
<!DOCTYPE svg PUBLIC "-//W3C//DTD SVG 1.1//EN"
  "http://www.w3.org/Graphics/SVG/1.1/DTD/svg11.dtd">
<svg xmlns:xlink="http://www.w3.org/1999/xlink" width="720pt" height="432pt" viewBox="0 0 720 432" xmlns="http://www.w3.org/2000/svg" version="1.1">
 <metadata>
  <rdf:RDF xmlns:dc="http://purl.org/dc/elements/1.1/" xmlns:cc="http://creativecommons.org/ns#" xmlns:rdf="http://www.w3.org/1999/02/22-rdf-syntax-ns#">
   <cc:Work>
    <dc:type rdf:resource="http://purl.org/dc/dcmitype/StillImage"/>
    <dc:date>2025-04-18T11:13:37.663151</dc:date>
    <dc:format>image/svg+xml</dc:format>
    <dc:creator>
     <cc:Agent>
      <dc:title>Matplotlib v3.9.2, https://matplotlib.org/</dc:title>
     </cc:Agent>
    </dc:creator>
   </cc:Work>
  </rdf:RDF>
 </metadata>
 <defs>
  <style type="text/css">*{stroke-linejoin: round; stroke-linecap: butt}</style>
 </defs>
 <g id="figure_1">
  <g id="patch_1">
   <path d="M 0 432 
L 720 432 
L 720 0 
L 0 0 
z
" style="fill: #ffffff"/>
  </g>
  <g id="axes_1">
   <g id="patch_2">
    <path d="M 54.92 389.32 
L 709.2 389.32 
L 709.2 25.44 
L 54.92 25.44 
z
" style="fill: #ffffff"/>
   </g>
   <g id="matplotlib.axis_1">
    <g id="xtick_1">
     <g id="line2d_1">
      <path d="M 150.748889 389.32 
L 150.748889 25.44 
" clip-path="url(#p447c82911f)" style="fill: none; stroke-dasharray: 2.96,1.28; stroke-dashoffset: 0; stroke: #b0b0b0; stroke-opacity: 0.2; stroke-width: 0.8"/>
     </g>
     <g id="line2d_2">
      <defs>
       <path id="m2a11a78fda" d="M 0 0 
L 0 3.5 
" style="stroke: #000000; stroke-width: 0.8"/>
      </defs>
      <g>
       <use xlink:href="#m2a11a78fda" x="150.748889" y="389.32" style="stroke: #000000; stroke-width: 0.8"/>
      </g>
     </g>
     <g id="text_1">
      <!-- 2 -->
      <g transform="translate(147.567639 403.918437) scale(0.1 -0.1)">
       <defs>
        <path id="DejaVuSans-32" d="M 1228 531 
L 3431 531 
L 3431 0 
L 469 0 
L 469 531 
Q 828 903 1448 1529 
Q 2069 2156 2228 2338 
Q 2531 2678 2651 2914 
Q 2772 3150 2772 3378 
Q 2772 3750 2511 3984 
Q 2250 4219 1831 4219 
Q 1534 4219 1204 4116 
Q 875 4013 500 3803 
L 500 4441 
Q 881 4594 1212 4672 
Q 1544 4750 1819 4750 
Q 2544 4750 2975 4387 
Q 3406 4025 3406 3419 
Q 3406 3131 3298 2873 
Q 3191 2616 2906 2266 
Q 2828 2175 2409 1742 
Q 1991 1309 1228 531 
z
" transform="scale(0.015625)"/>
       </defs>
       <use xlink:href="#DejaVuSans-32"/>
      </g>
     </g>
    </g>
    <g id="xtick_2">
     <g id="line2d_3">
      <path d="M 282.926667 389.32 
L 282.926667 25.44 
" clip-path="url(#p447c82911f)" style="fill: none; stroke-dasharray: 2.96,1.28; stroke-dashoffset: 0; stroke: #b0b0b0; stroke-opacity: 0.2; stroke-width: 0.8"/>
     </g>
     <g id="line2d_4">
      <g>
       <use xlink:href="#m2a11a78fda" x="282.926667" y="389.32" style="stroke: #000000; stroke-width: 0.8"/>
      </g>
     </g>
     <g id="text_2">
      <!-- 4 -->
      <g transform="translate(279.745417 403.918437) scale(0.1 -0.1)">
       <defs>
        <path id="DejaVuSans-34" d="M 2419 4116 
L 825 1625 
L 2419 1625 
L 2419 4116 
z
M 2253 4666 
L 3047 4666 
L 3047 1625 
L 3713 1625 
L 3713 1100 
L 3047 1100 
L 3047 0 
L 2419 0 
L 2419 1100 
L 313 1100 
L 313 1709 
L 2253 4666 
z
" transform="scale(0.015625)"/>
       </defs>
       <use xlink:href="#DejaVuSans-34"/>
      </g>
     </g>
    </g>
    <g id="xtick_3">
     <g id="line2d_5">
      <path d="M 415.104444 389.32 
L 415.104444 25.44 
" clip-path="url(#p447c82911f)" style="fill: none; stroke-dasharray: 2.96,1.28; stroke-dashoffset: 0; stroke: #b0b0b0; stroke-opacity: 0.2; stroke-width: 0.8"/>
     </g>
     <g id="line2d_6">
      <g>
       <use xlink:href="#m2a11a78fda" x="415.104444" y="389.32" style="stroke: #000000; stroke-width: 0.8"/>
      </g>
     </g>
     <g id="text_3">
      <!-- 6 -->
      <g transform="translate(411.923194 403.918437) scale(0.1 -0.1)">
       <defs>
        <path id="DejaVuSans-36" d="M 2113 2584 
Q 1688 2584 1439 2293 
Q 1191 2003 1191 1497 
Q 1191 994 1439 701 
Q 1688 409 2113 409 
Q 2538 409 2786 701 
Q 3034 994 3034 1497 
Q 3034 2003 2786 2293 
Q 2538 2584 2113 2584 
z
M 3366 4563 
L 3366 3988 
Q 3128 4100 2886 4159 
Q 2644 4219 2406 4219 
Q 1781 4219 1451 3797 
Q 1122 3375 1075 2522 
Q 1259 2794 1537 2939 
Q 1816 3084 2150 3084 
Q 2853 3084 3261 2657 
Q 3669 2231 3669 1497 
Q 3669 778 3244 343 
Q 2819 -91 2113 -91 
Q 1303 -91 875 529 
Q 447 1150 447 2328 
Q 447 3434 972 4092 
Q 1497 4750 2381 4750 
Q 2619 4750 2861 4703 
Q 3103 4656 3366 4563 
z
" transform="scale(0.015625)"/>
       </defs>
       <use xlink:href="#DejaVuSans-36"/>
      </g>
     </g>
    </g>
    <g id="xtick_4">
     <g id="line2d_7">
      <path d="M 547.282222 389.32 
L 547.282222 25.44 
" clip-path="url(#p447c82911f)" style="fill: none; stroke-dasharray: 2.96,1.28; stroke-dashoffset: 0; stroke: #b0b0b0; stroke-opacity: 0.2; stroke-width: 0.8"/>
     </g>
     <g id="line2d_8">
      <g>
       <use xlink:href="#m2a11a78fda" x="547.282222" y="389.32" style="stroke: #000000; stroke-width: 0.8"/>
      </g>
     </g>
     <g id="text_4">
      <!-- 8 -->
      <g transform="translate(544.100972 403.918437) scale(0.1 -0.1)">
       <defs>
        <path id="DejaVuSans-38" d="M 2034 2216 
Q 1584 2216 1326 1975 
Q 1069 1734 1069 1313 
Q 1069 891 1326 650 
Q 1584 409 2034 409 
Q 2484 409 2743 651 
Q 3003 894 3003 1313 
Q 3003 1734 2745 1975 
Q 2488 2216 2034 2216 
z
M 1403 2484 
Q 997 2584 770 2862 
Q 544 3141 544 3541 
Q 544 4100 942 4425 
Q 1341 4750 2034 4750 
Q 2731 4750 3128 4425 
Q 3525 4100 3525 3541 
Q 3525 3141 3298 2862 
Q 3072 2584 2669 2484 
Q 3125 2378 3379 2068 
Q 3634 1759 3634 1313 
Q 3634 634 3220 271 
Q 2806 -91 2034 -91 
Q 1263 -91 848 271 
Q 434 634 434 1313 
Q 434 1759 690 2068 
Q 947 2378 1403 2484 
z
M 1172 3481 
Q 1172 3119 1398 2916 
Q 1625 2713 2034 2713 
Q 2441 2713 2670 2916 
Q 2900 3119 2900 3481 
Q 2900 3844 2670 4047 
Q 2441 4250 2034 4250 
Q 1625 4250 1398 4047 
Q 1172 3844 1172 3481 
z
" transform="scale(0.015625)"/>
       </defs>
       <use xlink:href="#DejaVuSans-38"/>
      </g>
     </g>
    </g>
    <g id="xtick_5">
     <g id="line2d_9">
      <path d="M 679.46 389.32 
L 679.46 25.44 
" clip-path="url(#p447c82911f)" style="fill: none; stroke-dasharray: 2.96,1.28; stroke-dashoffset: 0; stroke: #b0b0b0; stroke-opacity: 0.2; stroke-width: 0.8"/>
     </g>
     <g id="line2d_10">
      <g>
       <use xlink:href="#m2a11a78fda" x="679.46" y="389.32" style="stroke: #000000; stroke-width: 0.8"/>
      </g>
     </g>
     <g id="text_5">
      <!-- 10 -->
      <g transform="translate(673.0975 403.918437) scale(0.1 -0.1)">
       <defs>
        <path id="DejaVuSans-31" d="M 794 531 
L 1825 531 
L 1825 4091 
L 703 3866 
L 703 4441 
L 1819 4666 
L 2450 4666 
L 2450 531 
L 3481 531 
L 3481 0 
L 794 0 
L 794 531 
z
" transform="scale(0.015625)"/>
        <path id="DejaVuSans-30" d="M 2034 4250 
Q 1547 4250 1301 3770 
Q 1056 3291 1056 2328 
Q 1056 1369 1301 889 
Q 1547 409 2034 409 
Q 2525 409 2770 889 
Q 3016 1369 3016 2328 
Q 3016 3291 2770 3770 
Q 2525 4250 2034 4250 
z
M 2034 4750 
Q 2819 4750 3233 4129 
Q 3647 3509 3647 2328 
Q 3647 1150 3233 529 
Q 2819 -91 2034 -91 
Q 1250 -91 836 529 
Q 422 1150 422 2328 
Q 422 3509 836 4129 
Q 1250 4750 2034 4750 
z
" transform="scale(0.015625)"/>
       </defs>
       <use xlink:href="#DejaVuSans-31"/>
       <use xlink:href="#DejaVuSans-30" x="63.623047"/>
      </g>
     </g>
    </g>
    <g id="text_6">
     <!-- Communication Round -->
     <g transform="translate(313.878438 419.11625) scale(0.12 -0.12)">
      <defs>
       <path id="DejaVuSans-43" d="M 4122 4306 
L 4122 3641 
Q 3803 3938 3442 4084 
Q 3081 4231 2675 4231 
Q 1875 4231 1450 3742 
Q 1025 3253 1025 2328 
Q 1025 1406 1450 917 
Q 1875 428 2675 428 
Q 3081 428 3442 575 
Q 3803 722 4122 1019 
L 4122 359 
Q 3791 134 3420 21 
Q 3050 -91 2638 -91 
Q 1578 -91 968 557 
Q 359 1206 359 2328 
Q 359 3453 968 4101 
Q 1578 4750 2638 4750 
Q 3056 4750 3426 4639 
Q 3797 4528 4122 4306 
z
" transform="scale(0.015625)"/>
       <path id="DejaVuSans-6f" d="M 1959 3097 
Q 1497 3097 1228 2736 
Q 959 2375 959 1747 
Q 959 1119 1226 758 
Q 1494 397 1959 397 
Q 2419 397 2687 759 
Q 2956 1122 2956 1747 
Q 2956 2369 2687 2733 
Q 2419 3097 1959 3097 
z
M 1959 3584 
Q 2709 3584 3137 3096 
Q 3566 2609 3566 1747 
Q 3566 888 3137 398 
Q 2709 -91 1959 -91 
Q 1206 -91 779 398 
Q 353 888 353 1747 
Q 353 2609 779 3096 
Q 1206 3584 1959 3584 
z
" transform="scale(0.015625)"/>
       <path id="DejaVuSans-6d" d="M 3328 2828 
Q 3544 3216 3844 3400 
Q 4144 3584 4550 3584 
Q 5097 3584 5394 3201 
Q 5691 2819 5691 2113 
L 5691 0 
L 5113 0 
L 5113 2094 
Q 5113 2597 4934 2840 
Q 4756 3084 4391 3084 
Q 3944 3084 3684 2787 
Q 3425 2491 3425 1978 
L 3425 0 
L 2847 0 
L 2847 2094 
Q 2847 2600 2669 2842 
Q 2491 3084 2119 3084 
Q 1678 3084 1418 2786 
Q 1159 2488 1159 1978 
L 1159 0 
L 581 0 
L 581 3500 
L 1159 3500 
L 1159 2956 
Q 1356 3278 1631 3431 
Q 1906 3584 2284 3584 
Q 2666 3584 2933 3390 
Q 3200 3197 3328 2828 
z
" transform="scale(0.015625)"/>
       <path id="DejaVuSans-75" d="M 544 1381 
L 544 3500 
L 1119 3500 
L 1119 1403 
Q 1119 906 1312 657 
Q 1506 409 1894 409 
Q 2359 409 2629 706 
Q 2900 1003 2900 1516 
L 2900 3500 
L 3475 3500 
L 3475 0 
L 2900 0 
L 2900 538 
Q 2691 219 2414 64 
Q 2138 -91 1772 -91 
Q 1169 -91 856 284 
Q 544 659 544 1381 
z
M 1991 3584 
L 1991 3584 
z
" transform="scale(0.015625)"/>
       <path id="DejaVuSans-6e" d="M 3513 2113 
L 3513 0 
L 2938 0 
L 2938 2094 
Q 2938 2591 2744 2837 
Q 2550 3084 2163 3084 
Q 1697 3084 1428 2787 
Q 1159 2491 1159 1978 
L 1159 0 
L 581 0 
L 581 3500 
L 1159 3500 
L 1159 2956 
Q 1366 3272 1645 3428 
Q 1925 3584 2291 3584 
Q 2894 3584 3203 3211 
Q 3513 2838 3513 2113 
z
" transform="scale(0.015625)"/>
       <path id="DejaVuSans-69" d="M 603 3500 
L 1178 3500 
L 1178 0 
L 603 0 
L 603 3500 
z
M 603 4863 
L 1178 4863 
L 1178 4134 
L 603 4134 
L 603 4863 
z
" transform="scale(0.015625)"/>
       <path id="DejaVuSans-63" d="M 3122 3366 
L 3122 2828 
Q 2878 2963 2633 3030 
Q 2388 3097 2138 3097 
Q 1578 3097 1268 2742 
Q 959 2388 959 1747 
Q 959 1106 1268 751 
Q 1578 397 2138 397 
Q 2388 397 2633 464 
Q 2878 531 3122 666 
L 3122 134 
Q 2881 22 2623 -34 
Q 2366 -91 2075 -91 
Q 1284 -91 818 406 
Q 353 903 353 1747 
Q 353 2603 823 3093 
Q 1294 3584 2113 3584 
Q 2378 3584 2631 3529 
Q 2884 3475 3122 3366 
z
" transform="scale(0.015625)"/>
       <path id="DejaVuSans-61" d="M 2194 1759 
Q 1497 1759 1228 1600 
Q 959 1441 959 1056 
Q 959 750 1161 570 
Q 1363 391 1709 391 
Q 2188 391 2477 730 
Q 2766 1069 2766 1631 
L 2766 1759 
L 2194 1759 
z
M 3341 1997 
L 3341 0 
L 2766 0 
L 2766 531 
Q 2569 213 2275 61 
Q 1981 -91 1556 -91 
Q 1019 -91 701 211 
Q 384 513 384 1019 
Q 384 1609 779 1909 
Q 1175 2209 1959 2209 
L 2766 2209 
L 2766 2266 
Q 2766 2663 2505 2880 
Q 2244 3097 1772 3097 
Q 1472 3097 1187 3025 
Q 903 2953 641 2809 
L 641 3341 
Q 956 3463 1253 3523 
Q 1550 3584 1831 3584 
Q 2591 3584 2966 3190 
Q 3341 2797 3341 1997 
z
" transform="scale(0.015625)"/>
       <path id="DejaVuSans-74" d="M 1172 4494 
L 1172 3500 
L 2356 3500 
L 2356 3053 
L 1172 3053 
L 1172 1153 
Q 1172 725 1289 603 
Q 1406 481 1766 481 
L 2356 481 
L 2356 0 
L 1766 0 
Q 1100 0 847 248 
Q 594 497 594 1153 
L 594 3053 
L 172 3053 
L 172 3500 
L 594 3500 
L 594 4494 
L 1172 4494 
z
" transform="scale(0.015625)"/>
       <path id="DejaVuSans-20" transform="scale(0.015625)"/>
       <path id="DejaVuSans-52" d="M 2841 2188 
Q 3044 2119 3236 1894 
Q 3428 1669 3622 1275 
L 4263 0 
L 3584 0 
L 2988 1197 
Q 2756 1666 2539 1819 
Q 2322 1972 1947 1972 
L 1259 1972 
L 1259 0 
L 628 0 
L 628 4666 
L 2053 4666 
Q 2853 4666 3247 4331 
Q 3641 3997 3641 3322 
Q 3641 2881 3436 2590 
Q 3231 2300 2841 2188 
z
M 1259 4147 
L 1259 2491 
L 2053 2491 
Q 2509 2491 2742 2702 
Q 2975 2913 2975 3322 
Q 2975 3731 2742 3939 
Q 2509 4147 2053 4147 
L 1259 4147 
z
" transform="scale(0.015625)"/>
       <path id="DejaVuSans-64" d="M 2906 2969 
L 2906 4863 
L 3481 4863 
L 3481 0 
L 2906 0 
L 2906 525 
Q 2725 213 2448 61 
Q 2172 -91 1784 -91 
Q 1150 -91 751 415 
Q 353 922 353 1747 
Q 353 2572 751 3078 
Q 1150 3584 1784 3584 
Q 2172 3584 2448 3432 
Q 2725 3281 2906 2969 
z
M 947 1747 
Q 947 1113 1208 752 
Q 1469 391 1925 391 
Q 2381 391 2643 752 
Q 2906 1113 2906 1747 
Q 2906 2381 2643 2742 
Q 2381 3103 1925 3103 
Q 1469 3103 1208 2742 
Q 947 2381 947 1747 
z
" transform="scale(0.015625)"/>
      </defs>
      <use xlink:href="#DejaVuSans-43"/>
      <use xlink:href="#DejaVuSans-6f" x="69.824219"/>
      <use xlink:href="#DejaVuSans-6d" x="131.005859"/>
      <use xlink:href="#DejaVuSans-6d" x="228.417969"/>
      <use xlink:href="#DejaVuSans-75" x="325.830078"/>
      <use xlink:href="#DejaVuSans-6e" x="389.208984"/>
      <use xlink:href="#DejaVuSans-69" x="452.587891"/>
      <use xlink:href="#DejaVuSans-63" x="480.371094"/>
      <use xlink:href="#DejaVuSans-61" x="535.351562"/>
      <use xlink:href="#DejaVuSans-74" x="596.630859"/>
      <use xlink:href="#DejaVuSans-69" x="635.839844"/>
      <use xlink:href="#DejaVuSans-6f" x="663.623047"/>
      <use xlink:href="#DejaVuSans-6e" x="724.804688"/>
      <use xlink:href="#DejaVuSans-20" x="788.183594"/>
      <use xlink:href="#DejaVuSans-52" x="819.970703"/>
      <use xlink:href="#DejaVuSans-6f" x="884.953125"/>
      <use xlink:href="#DejaVuSans-75" x="946.134766"/>
      <use xlink:href="#DejaVuSans-6e" x="1009.513672"/>
      <use xlink:href="#DejaVuSans-64" x="1072.892578"/>
     </g>
    </g>
   </g>
   <g id="matplotlib.axis_2">
    <g id="ytick_1">
     <g id="line2d_11">
      <path d="M 54.92 329.140895 
L 709.2 329.140895 
" clip-path="url(#p447c82911f)" style="fill: none; stroke-dasharray: 2.96,1.28; stroke-dashoffset: 0; stroke: #b0b0b0; stroke-opacity: 0.2; stroke-width: 0.8"/>
     </g>
     <g id="line2d_12">
      <defs>
       <path id="mc23f7b374f" d="M 0 0 
L -3.5 0 
" style="stroke: #000000; stroke-width: 0.8"/>
      </defs>
      <g>
       <use xlink:href="#mc23f7b374f" x="54.92" y="329.140895" style="stroke: #000000; stroke-width: 0.8"/>
      </g>
     </g>
     <g id="text_7">
      <!-- 0.88 -->
      <g transform="translate(25.654375 332.940114) scale(0.1 -0.1)">
       <defs>
        <path id="DejaVuSans-2e" d="M 684 794 
L 1344 794 
L 1344 0 
L 684 0 
L 684 794 
z
" transform="scale(0.015625)"/>
       </defs>
       <use xlink:href="#DejaVuSans-30"/>
       <use xlink:href="#DejaVuSans-2e" x="63.623047"/>
       <use xlink:href="#DejaVuSans-38" x="95.410156"/>
       <use xlink:href="#DejaVuSans-38" x="159.033203"/>
      </g>
     </g>
    </g>
    <g id="ytick_2">
     <g id="line2d_13">
      <path d="M 54.92 251.213922 
L 709.2 251.213922 
" clip-path="url(#p447c82911f)" style="fill: none; stroke-dasharray: 2.96,1.28; stroke-dashoffset: 0; stroke: #b0b0b0; stroke-opacity: 0.2; stroke-width: 0.8"/>
     </g>
     <g id="line2d_14">
      <g>
       <use xlink:href="#mc23f7b374f" x="54.92" y="251.213922" style="stroke: #000000; stroke-width: 0.8"/>
      </g>
     </g>
     <g id="text_8">
      <!-- 0.90 -->
      <g transform="translate(25.654375 255.013141) scale(0.1 -0.1)">
       <defs>
        <path id="DejaVuSans-39" d="M 703 97 
L 703 672 
Q 941 559 1184 500 
Q 1428 441 1663 441 
Q 2288 441 2617 861 
Q 2947 1281 2994 2138 
Q 2813 1869 2534 1725 
Q 2256 1581 1919 1581 
Q 1219 1581 811 2004 
Q 403 2428 403 3163 
Q 403 3881 828 4315 
Q 1253 4750 1959 4750 
Q 2769 4750 3195 4129 
Q 3622 3509 3622 2328 
Q 3622 1225 3098 567 
Q 2575 -91 1691 -91 
Q 1453 -91 1209 -44 
Q 966 3 703 97 
z
M 1959 2075 
Q 2384 2075 2632 2365 
Q 2881 2656 2881 3163 
Q 2881 3666 2632 3958 
Q 2384 4250 1959 4250 
Q 1534 4250 1286 3958 
Q 1038 3666 1038 3163 
Q 1038 2656 1286 2365 
Q 1534 2075 1959 2075 
z
" transform="scale(0.015625)"/>
       </defs>
       <use xlink:href="#DejaVuSans-30"/>
       <use xlink:href="#DejaVuSans-2e" x="63.623047"/>
       <use xlink:href="#DejaVuSans-39" x="95.410156"/>
       <use xlink:href="#DejaVuSans-30" x="159.033203"/>
      </g>
     </g>
    </g>
    <g id="ytick_3">
     <g id="line2d_15">
      <path d="M 54.92 173.286949 
L 709.2 173.286949 
" clip-path="url(#p447c82911f)" style="fill: none; stroke-dasharray: 2.96,1.28; stroke-dashoffset: 0; stroke: #b0b0b0; stroke-opacity: 0.2; stroke-width: 0.8"/>
     </g>
     <g id="line2d_16">
      <g>
       <use xlink:href="#mc23f7b374f" x="54.92" y="173.286949" style="stroke: #000000; stroke-width: 0.8"/>
      </g>
     </g>
     <g id="text_9">
      <!-- 0.92 -->
      <g transform="translate(25.654375 177.086168) scale(0.1 -0.1)">
       <use xlink:href="#DejaVuSans-30"/>
       <use xlink:href="#DejaVuSans-2e" x="63.623047"/>
       <use xlink:href="#DejaVuSans-39" x="95.410156"/>
       <use xlink:href="#DejaVuSans-32" x="159.033203"/>
      </g>
     </g>
    </g>
    <g id="ytick_4">
     <g id="line2d_17">
      <path d="M 54.92 95.359976 
L 709.2 95.359976 
" clip-path="url(#p447c82911f)" style="fill: none; stroke-dasharray: 2.96,1.28; stroke-dashoffset: 0; stroke: #b0b0b0; stroke-opacity: 0.2; stroke-width: 0.8"/>
     </g>
     <g id="line2d_18">
      <g>
       <use xlink:href="#mc23f7b374f" x="54.92" y="95.359976" style="stroke: #000000; stroke-width: 0.8"/>
      </g>
     </g>
     <g id="text_10">
      <!-- 0.94 -->
      <g transform="translate(25.654375 99.159195) scale(0.1 -0.1)">
       <use xlink:href="#DejaVuSans-30"/>
       <use xlink:href="#DejaVuSans-2e" x="63.623047"/>
       <use xlink:href="#DejaVuSans-39" x="95.410156"/>
       <use xlink:href="#DejaVuSans-34" x="159.033203"/>
      </g>
     </g>
    </g>
    <g id="text_11">
     <!-- Global Accuracy -->
     <g transform="translate(19.15875 255.820625) rotate(-90) scale(0.12 -0.12)">
      <defs>
       <path id="DejaVuSans-47" d="M 3809 666 
L 3809 1919 
L 2778 1919 
L 2778 2438 
L 4434 2438 
L 4434 434 
Q 4069 175 3628 42 
Q 3188 -91 2688 -91 
Q 1594 -91 976 548 
Q 359 1188 359 2328 
Q 359 3472 976 4111 
Q 1594 4750 2688 4750 
Q 3144 4750 3555 4637 
Q 3966 4525 4313 4306 
L 4313 3634 
Q 3963 3931 3569 4081 
Q 3175 4231 2741 4231 
Q 1884 4231 1454 3753 
Q 1025 3275 1025 2328 
Q 1025 1384 1454 906 
Q 1884 428 2741 428 
Q 3075 428 3337 486 
Q 3600 544 3809 666 
z
" transform="scale(0.015625)"/>
       <path id="DejaVuSans-6c" d="M 603 4863 
L 1178 4863 
L 1178 0 
L 603 0 
L 603 4863 
z
" transform="scale(0.015625)"/>
       <path id="DejaVuSans-62" d="M 3116 1747 
Q 3116 2381 2855 2742 
Q 2594 3103 2138 3103 
Q 1681 3103 1420 2742 
Q 1159 2381 1159 1747 
Q 1159 1113 1420 752 
Q 1681 391 2138 391 
Q 2594 391 2855 752 
Q 3116 1113 3116 1747 
z
M 1159 2969 
Q 1341 3281 1617 3432 
Q 1894 3584 2278 3584 
Q 2916 3584 3314 3078 
Q 3713 2572 3713 1747 
Q 3713 922 3314 415 
Q 2916 -91 2278 -91 
Q 1894 -91 1617 61 
Q 1341 213 1159 525 
L 1159 0 
L 581 0 
L 581 4863 
L 1159 4863 
L 1159 2969 
z
" transform="scale(0.015625)"/>
       <path id="DejaVuSans-41" d="M 2188 4044 
L 1331 1722 
L 3047 1722 
L 2188 4044 
z
M 1831 4666 
L 2547 4666 
L 4325 0 
L 3669 0 
L 3244 1197 
L 1141 1197 
L 716 0 
L 50 0 
L 1831 4666 
z
" transform="scale(0.015625)"/>
       <path id="DejaVuSans-72" d="M 2631 2963 
Q 2534 3019 2420 3045 
Q 2306 3072 2169 3072 
Q 1681 3072 1420 2755 
Q 1159 2438 1159 1844 
L 1159 0 
L 581 0 
L 581 3500 
L 1159 3500 
L 1159 2956 
Q 1341 3275 1631 3429 
Q 1922 3584 2338 3584 
Q 2397 3584 2469 3576 
Q 2541 3569 2628 3553 
L 2631 2963 
z
" transform="scale(0.015625)"/>
       <path id="DejaVuSans-79" d="M 2059 -325 
Q 1816 -950 1584 -1140 
Q 1353 -1331 966 -1331 
L 506 -1331 
L 506 -850 
L 844 -850 
Q 1081 -850 1212 -737 
Q 1344 -625 1503 -206 
L 1606 56 
L 191 3500 
L 800 3500 
L 1894 763 
L 2988 3500 
L 3597 3500 
L 2059 -325 
z
" transform="scale(0.015625)"/>
      </defs>
      <use xlink:href="#DejaVuSans-47"/>
      <use xlink:href="#DejaVuSans-6c" x="77.490234"/>
      <use xlink:href="#DejaVuSans-6f" x="105.273438"/>
      <use xlink:href="#DejaVuSans-62" x="166.455078"/>
      <use xlink:href="#DejaVuSans-61" x="229.931641"/>
      <use xlink:href="#DejaVuSans-6c" x="291.210938"/>
      <use xlink:href="#DejaVuSans-20" x="318.994141"/>
      <use xlink:href="#DejaVuSans-41" x="350.78125"/>
      <use xlink:href="#DejaVuSans-63" x="417.439453"/>
      <use xlink:href="#DejaVuSans-63" x="472.419922"/>
      <use xlink:href="#DejaVuSans-75" x="527.400391"/>
      <use xlink:href="#DejaVuSans-72" x="590.779297"/>
      <use xlink:href="#DejaVuSans-61" x="631.892578"/>
      <use xlink:href="#DejaVuSans-63" x="693.171875"/>
      <use xlink:href="#DejaVuSans-79" x="748.152344"/>
     </g>
    </g>
   </g>
   <g id="line2d_19">
    <path d="M 84.66 271.86457 
L 90.668081 264.957407 
L 96.676162 258.050243 
L 102.684242 251.14308 
L 108.692323 244.235916 
L 114.700404 237.328753 
L 120.708485 230.421589 
L 126.716566 223.514426 
L 132.724646 216.607262 
L 138.732727 209.700099 
L 144.740808 202.792935 
L 150.748889 195.885771 
L 156.75697 190.785097 
L 162.765051 185.684422 
L 168.773131 180.583748 
L 174.781212 175.483073 
L 180.789293 170.382399 
L 186.797374 165.281724 
L 192.805455 160.181049 
L 198.813535 155.080375 
L 204.821616 149.9797 
L 210.829697 144.879026 
L 216.837778 139.778351 
L 222.845859 136.980064 
L 228.853939 134.181777 
L 234.86202 131.383491 
L 240.870101 128.585204 
L 246.878182 125.786917 
L 252.886263 122.98863 
L 258.894343 120.190344 
L 264.902424 117.392057 
L 270.910505 114.59377 
L 276.918586 111.795483 
L 282.926667 108.997197 
L 288.934747 107.969978 
L 294.942828 106.942758 
L 300.950909 105.915539 
L 306.95899 104.88832 
L 312.967071 103.861101 
L 318.975152 102.833882 
L 324.983232 101.806662 
L 330.991313 100.779443 
L 336.999394 99.752224 
L 343.007475 98.725005 
L 349.015556 97.697786 
L 355.023636 97.591522 
L 361.031717 97.485258 
L 367.039798 97.378993 
L 373.047879 97.272729 
L 379.05596 97.166465 
L 385.06404 97.060201 
L 391.072121 96.953937 
L 397.080202 96.847673 
L 403.088283 96.741409 
L 409.096364 96.635145 
L 415.104444 96.528881 
L 421.112525 94.332757 
L 427.120606 92.136633 
L 433.128687 89.94051 
L 439.136768 87.744386 
L 445.144848 85.548262 
L 451.152929 83.352138 
L 457.16101 81.156015 
L 463.169091 78.959891 
L 469.177172 76.763767 
L 475.185253 74.567643 
L 481.193333 72.371519 
L 487.201414 70.777559 
L 493.209495 69.183598 
L 499.217576 67.589637 
L 505.225657 65.995676 
L 511.233737 64.401715 
L 517.241818 62.807755 
L 523.249899 61.213794 
L 529.25798 59.619833 
L 535.266061 58.025872 
L 541.274141 56.431911 
L 547.282222 54.837951 
L 553.290303 54.767108 
L 559.298384 54.696265 
L 565.306465 54.625422 
L 571.314545 54.55458 
L 577.322626 54.483737 
L 583.330707 54.412894 
L 589.338788 54.342052 
L 595.346869 54.271209 
L 601.354949 54.200366 
L 607.36303 54.129524 
L 613.371111 54.058681 
L 619.379192 52.960619 
L 625.387273 51.862557 
L 631.395354 50.764495 
L 637.403434 49.666433 
L 643.411515 48.568371 
L 649.419596 47.470309 
L 655.427677 46.372248 
L 661.435758 45.274186 
L 667.443838 44.176124 
L 673.451919 43.078062 
L 679.46 41.98 
" clip-path="url(#p447c82911f)" style="fill: none; stroke: #0072bd; stroke-width: 2; stroke-linecap: square"/>
   </g>
   <g id="line2d_20">
    <defs>
     <path id="m8149fe8a23" d="M 0 3 
C 0.795609 3 1.55874 2.683901 2.12132 2.12132 
C 2.683901 1.55874 3 0.795609 3 0 
C 3 -0.795609 2.683901 -1.55874 2.12132 -2.12132 
C 1.55874 -2.683901 0.795609 -3 0 -3 
C -0.795609 -3 -1.55874 -2.683901 -2.12132 -2.12132 
C -2.683901 -1.55874 -3 -0.795609 -3 0 
C -3 0.795609 -2.683901 1.55874 -2.12132 2.12132 
C -1.55874 2.683901 -0.795609 3 0 3 
z
" style="stroke: #0072bd"/>
    </defs>
    <g clip-path="url(#p447c82911f)">
     <use xlink:href="#m8149fe8a23" x="84.66" y="271.86457" style="fill: #0072bd; stroke: #0072bd"/>
     <use xlink:href="#m8149fe8a23" x="150.748889" y="195.885771" style="fill: #0072bd; stroke: #0072bd"/>
     <use xlink:href="#m8149fe8a23" x="216.837778" y="139.778351" style="fill: #0072bd; stroke: #0072bd"/>
     <use xlink:href="#m8149fe8a23" x="282.926667" y="108.997197" style="fill: #0072bd; stroke: #0072bd"/>
     <use xlink:href="#m8149fe8a23" x="349.015556" y="97.697786" style="fill: #0072bd; stroke: #0072bd"/>
     <use xlink:href="#m8149fe8a23" x="415.104444" y="96.528881" style="fill: #0072bd; stroke: #0072bd"/>
     <use xlink:href="#m8149fe8a23" x="481.193333" y="72.371519" style="fill: #0072bd; stroke: #0072bd"/>
     <use xlink:href="#m8149fe8a23" x="547.282222" y="54.837951" style="fill: #0072bd; stroke: #0072bd"/>
     <use xlink:href="#m8149fe8a23" x="613.371111" y="54.058681" style="fill: #0072bd; stroke: #0072bd"/>
     <use xlink:href="#m8149fe8a23" x="679.46" y="41.98" style="fill: #0072bd; stroke: #0072bd"/>
    </g>
   </g>
   <g id="line2d_21">
    <path d="M 84.66 372.78 
L 90.668081 355.423538 
L 96.676162 338.067076 
L 102.684242 320.710614 
L 108.692323 303.354151 
L 114.700404 285.997689 
L 120.708485 268.641227 
L 126.716566 251.284765 
L 132.724646 233.928303 
L 138.732727 216.571841 
L 144.740808 199.215379 
L 150.748889 181.858916 
L 156.75697 178.883523 
L 162.765051 175.908129 
L 168.773131 172.932736 
L 174.781212 169.957342 
L 180.789293 166.981949 
L 186.797374 164.006555 
L 192.805455 161.031162 
L 198.813535 158.055768 
L 204.821616 155.080375 
L 210.829697 152.104981 
L 216.837778 149.129588 
L 222.845859 146.8272 
L 228.853939 144.524812 
L 234.86202 142.222424 
L 240.870101 139.920036 
L 246.878182 137.617649 
L 252.886263 135.315261 
L 258.894343 133.012873 
L 264.902424 130.710485 
L 270.910505 128.408097 
L 276.918586 126.105709 
L 282.926667 123.803322 
L 288.934747 122.492732 
L 294.942828 121.182142 
L 300.950909 119.871552 
L 306.95899 118.560962 
L 312.967071 117.250372 
L 318.975152 115.939782 
L 324.983232 114.629192 
L 330.991313 113.318602 
L 336.999394 112.008012 
L 343.007475 110.697422 
L 349.015556 109.386832 
L 355.023636 108.359612 
L 361.031717 107.332393 
L 367.039798 106.305174 
L 373.047879 105.277955 
L 379.05596 104.250736 
L 385.06404 103.223516 
L 391.072121 102.196297 
L 397.080202 101.169078 
L 403.088283 100.141859 
L 409.096364 99.11464 
L 415.104444 98.08742 
L 421.112525 97.662364 
L 427.120606 97.237308 
L 433.128687 96.812252 
L 439.136768 96.387196 
L 445.144848 95.962139 
L 451.152929 95.537083 
L 457.16101 95.112027 
L 463.169091 94.686971 
L 469.177172 94.261915 
L 475.185253 93.836858 
L 481.193333 93.411802 
L 487.201414 91.499049 
L 493.209495 89.586296 
L 499.217576 87.673543 
L 505.225657 85.76079 
L 511.233737 83.848037 
L 517.241818 81.935284 
L 523.249899 80.022531 
L 529.25798 78.109778 
L 535.266061 76.197025 
L 541.274141 74.284272 
L 547.282222 72.371519 
L 553.290303 73.292475 
L 559.298384 74.21343 
L 565.306465 75.134385 
L 571.314545 76.05534 
L 577.322626 76.976295 
L 583.330707 77.89725 
L 589.338788 78.818205 
L 595.346869 79.739161 
L 601.354949 80.660116 
L 607.36303 81.581071 
L 613.371111 82.502026 
L 619.379192 81.687335 
L 625.387273 80.872644 
L 631.395354 80.057953 
L 637.403434 79.243262 
L 643.411515 78.428571 
L 649.419596 77.613879 
L 655.427677 76.799188 
L 661.435758 75.984497 
L 667.443838 75.169806 
L 673.451919 74.355115 
L 679.46 73.540424 
" clip-path="url(#p447c82911f)" style="fill: none; stroke: #d95319; stroke-width: 2; stroke-linecap: square"/>
   </g>
   <g id="line2d_22">
    <defs>
     <path id="m0c9ed5c001" d="M 0 3 
C 0.795609 3 1.55874 2.683901 2.12132 2.12132 
C 2.683901 1.55874 3 0.795609 3 0 
C 3 -0.795609 2.683901 -1.55874 2.12132 -2.12132 
C 1.55874 -2.683901 0.795609 -3 0 -3 
C -0.795609 -3 -1.55874 -2.683901 -2.12132 -2.12132 
C -2.683901 -1.55874 -3 -0.795609 -3 0 
C -3 0.795609 -2.683901 1.55874 -2.12132 2.12132 
C -1.55874 2.683901 -0.795609 3 0 3 
z
" style="stroke: #d95319"/>
    </defs>
    <g clip-path="url(#p447c82911f)">
     <use xlink:href="#m0c9ed5c001" x="84.66" y="372.78" style="fill: #d95319; stroke: #d95319"/>
     <use xlink:href="#m0c9ed5c001" x="150.748889" y="181.858916" style="fill: #d95319; stroke: #d95319"/>
     <use xlink:href="#m0c9ed5c001" x="216.837778" y="149.129588" style="fill: #d95319; stroke: #d95319"/>
     <use xlink:href="#m0c9ed5c001" x="282.926667" y="123.803322" style="fill: #d95319; stroke: #d95319"/>
     <use xlink:href="#m0c9ed5c001" x="349.015556" y="109.386832" style="fill: #d95319; stroke: #d95319"/>
     <use xlink:href="#m0c9ed5c001" x="415.104444" y="98.08742" style="fill: #d95319; stroke: #d95319"/>
     <use xlink:href="#m0c9ed5c001" x="481.193333" y="93.411802" style="fill: #d95319; stroke: #d95319"/>
     <use xlink:href="#m0c9ed5c001" x="547.282222" y="72.371519" style="fill: #d95319; stroke: #d95319"/>
     <use xlink:href="#m0c9ed5c001" x="613.371111" y="82.502026" style="fill: #d95319; stroke: #d95319"/>
     <use xlink:href="#m0c9ed5c001" x="679.46" y="73.540424" style="fill: #d95319; stroke: #d95319"/>
    </g>
   </g>
   <g id="line2d_23">
    <path d="M 84.66 263.292603 
L 90.668081 255.889541 
L 96.676162 248.486478 
L 102.684242 241.083416 
L 108.692323 233.680353 
L 114.700404 226.277291 
L 120.708485 218.874229 
L 126.716566 211.471166 
L 132.724646 204.068104 
L 138.732727 196.665041 
L 144.740808 189.261979 
L 150.748889 181.858916 
L 156.75697 181.717231 
L 162.765051 181.575546 
L 168.773131 181.43386 
L 174.781212 181.292175 
L 180.789293 181.150489 
L 186.797374 181.008804 
L 192.805455 180.867119 
L 198.813535 180.725433 
L 204.821616 180.583748 
L 210.829697 180.442062 
L 216.837778 180.300377 
L 222.845859 176.404028 
L 228.853939 172.50768 
L 234.86202 168.611331 
L 240.870101 164.714982 
L 246.878182 160.818634 
L 252.886263 156.922285 
L 258.894343 153.025936 
L 264.902424 149.129588 
L 270.910505 145.233239 
L 276.918586 141.33689 
L 282.926667 137.440542 
L 288.934747 136.732115 
L 294.942828 136.023688 
L 300.950909 135.315261 
L 306.95899 134.606834 
L 312.967071 133.898407 
L 318.975152 133.18998 
L 324.983232 132.481553 
L 330.991313 131.773126 
L 336.999394 131.064699 
L 343.007475 130.356272 
L 349.015556 129.647845 
L 355.023636 129.718687 
L 361.031717 129.78953 
L 367.039798 129.860373 
L 373.047879 129.931215 
L 379.05596 130.002058 
L 385.06404 130.072901 
L 391.072121 130.143743 
L 397.080202 130.214586 
L 403.088283 130.285429 
L 409.096364 130.356272 
L 415.104444 130.427114 
L 421.112525 127.983041 
L 427.120606 125.538968 
L 433.128687 123.094895 
L 439.136768 120.650821 
L 445.144848 118.206748 
L 451.152929 115.762675 
L 457.16101 113.318602 
L 463.169091 110.874528 
L 469.177172 108.430455 
L 475.185253 105.986382 
L 481.193333 103.542309 
L 487.201414 103.719415 
L 493.209495 103.896522 
L 499.217576 104.073629 
L 505.225657 104.250736 
L 511.233737 104.427842 
L 517.241818 104.604949 
L 523.249899 104.782056 
L 529.25798 104.959163 
L 535.266061 105.136269 
L 541.274141 105.313376 
L 547.282222 105.490483 
L 553.290303 104.534106 
L 559.298384 103.57773 
L 565.306465 102.621353 
L 571.314545 101.664977 
L 577.322626 100.7086 
L 583.330707 99.752224 
L 589.338788 98.795848 
L 595.346869 97.839471 
L 601.354949 96.883095 
L 607.36303 95.926718 
L 613.371111 94.970342 
L 619.379192 94.439021 
L 625.387273 93.907701 
L 631.395354 93.376381 
L 637.403434 92.84506 
L 643.411515 92.31374 
L 649.419596 91.78242 
L 655.427677 91.2511 
L 661.435758 90.719779 
L 667.443838 90.188459 
L 673.451919 89.657139 
L 679.46 89.125819 
" clip-path="url(#p447c82911f)" style="fill: none; stroke: #77ac30; stroke-width: 2; stroke-linecap: square"/>
   </g>
   <g id="line2d_24">
    <defs>
     <path id="m4e26d15b67" d="M 0 3 
C 0.795609 3 1.55874 2.683901 2.12132 2.12132 
C 2.683901 1.55874 3 0.795609 3 0 
C 3 -0.795609 2.683901 -1.55874 2.12132 -2.12132 
C 1.55874 -2.683901 0.795609 -3 0 -3 
C -0.795609 -3 -1.55874 -2.683901 -2.12132 -2.12132 
C -2.683901 -1.55874 -3 -0.795609 -3 0 
C -3 0.795609 -2.683901 1.55874 -2.12132 2.12132 
C -1.55874 2.683901 -0.795609 3 0 3 
z
" style="stroke: #77ac30"/>
    </defs>
    <g clip-path="url(#p447c82911f)">
     <use xlink:href="#m4e26d15b67" x="84.66" y="263.292603" style="fill: #77ac30; stroke: #77ac30"/>
     <use xlink:href="#m4e26d15b67" x="150.748889" y="181.858916" style="fill: #77ac30; stroke: #77ac30"/>
     <use xlink:href="#m4e26d15b67" x="216.837778" y="180.300377" style="fill: #77ac30; stroke: #77ac30"/>
     <use xlink:href="#m4e26d15b67" x="282.926667" y="137.440542" style="fill: #77ac30; stroke: #77ac30"/>
     <use xlink:href="#m4e26d15b67" x="349.015556" y="129.647845" style="fill: #77ac30; stroke: #77ac30"/>
     <use xlink:href="#m4e26d15b67" x="415.104444" y="130.427114" style="fill: #77ac30; stroke: #77ac30"/>
     <use xlink:href="#m4e26d15b67" x="481.193333" y="103.542309" style="fill: #77ac30; stroke: #77ac30"/>
     <use xlink:href="#m4e26d15b67" x="547.282222" y="105.490483" style="fill: #77ac30; stroke: #77ac30"/>
     <use xlink:href="#m4e26d15b67" x="613.371111" y="94.970342" style="fill: #77ac30; stroke: #77ac30"/>
     <use xlink:href="#m4e26d15b67" x="679.46" y="89.125819" style="fill: #77ac30; stroke: #77ac30"/>
    </g>
   </g>
   <g id="line2d_25">
    <path d="M 84.66 293.684122 
L 90.668081 283.163981 
L 96.676162 272.64384 
L 102.684242 262.123698 
L 108.692323 251.603557 
L 114.700404 241.083416 
L 120.708485 230.563274 
L 126.716566 220.043133 
L 132.724646 209.522992 
L 138.732727 199.00285 
L 144.740808 188.482709 
L 150.748889 177.962568 
L 156.75697 174.739225 
L 162.765051 171.515882 
L 168.773131 168.292539 
L 174.781212 165.069196 
L 180.789293 161.845853 
L 186.797374 158.62251 
L 192.805455 155.399167 
L 198.813535 152.175824 
L 204.821616 148.952481 
L 210.829697 145.729138 
L 216.837778 142.505795 
L 222.845859 141.088941 
L 228.853939 139.672087 
L 234.86202 138.255233 
L 240.870101 136.838379 
L 246.878182 135.421525 
L 252.886263 134.004671 
L 258.894343 132.587817 
L 264.902424 131.170963 
L 270.910505 129.754109 
L 276.918586 128.337255 
L 282.926667 126.9204 
L 288.934747 125.60981 
L 294.942828 124.29922 
L 300.950909 122.98863 
L 306.95899 121.67804 
L 312.967071 120.36745 
L 318.975152 119.05686 
L 324.983232 117.74627 
L 330.991313 116.43568 
L 336.999394 115.12509 
L 343.007475 113.8145 
L 349.015556 112.50391 
L 355.023636 112.114276 
L 361.031717 111.724641 
L 367.039798 111.335006 
L 373.047879 110.945371 
L 379.05596 110.555736 
L 385.06404 110.166101 
L 391.072121 109.776466 
L 397.080202 109.386832 
L 403.088283 108.997197 
L 409.096364 108.607562 
L 415.104444 108.217927 
L 421.112525 107.226129 
L 427.120606 106.234331 
L 433.128687 105.242533 
L 439.136768 104.250736 
L 445.144848 103.258938 
L 451.152929 102.26714 
L 457.16101 101.275342 
L 463.169091 100.283544 
L 469.177172 99.291746 
L 475.185253 98.299949 
L 481.193333 97.308151 
L 487.201414 96.174668 
L 493.209495 95.041184 
L 499.217576 93.907701 
L 505.225657 92.774218 
L 511.233737 91.640735 
L 517.241818 90.507251 
L 523.249899 89.373768 
L 529.25798 88.240285 
L 535.266061 87.106802 
L 541.274141 85.973318 
L 547.282222 84.839835 
L 553.290303 83.91888 
L 559.298384 82.997925 
L 565.306465 82.07697 
L 571.314545 81.156015 
L 577.322626 80.235059 
L 583.330707 79.314104 
L 589.338788 78.393149 
L 595.346869 77.472194 
L 601.354949 76.551239 
L 607.36303 75.630284 
L 613.371111 74.709329 
L 619.379192 74.603065 
L 625.387273 74.496801 
L 631.395354 74.390536 
L 637.403434 74.284272 
L 643.411515 74.178008 
L 649.419596 74.071744 
L 655.427677 73.96548 
L 661.435758 73.859216 
L 667.443838 73.752952 
L 673.451919 73.646688 
L 679.46 73.540424 
" clip-path="url(#p447c82911f)" style="fill: none; stroke: #88543c; stroke-width: 2; stroke-linecap: square"/>
   </g>
   <g id="line2d_26">
    <defs>
     <path id="m314ac4ba8d" d="M 0 3 
C 0.795609 3 1.55874 2.683901 2.12132 2.12132 
C 2.683901 1.55874 3 0.795609 3 0 
C 3 -0.795609 2.683901 -1.55874 2.12132 -2.12132 
C 1.55874 -2.683901 0.795609 -3 0 -3 
C -0.795609 -3 -1.55874 -2.683901 -2.12132 -2.12132 
C -2.683901 -1.55874 -3 -0.795609 -3 0 
C -3 0.795609 -2.683901 1.55874 -2.12132 2.12132 
C -1.55874 2.683901 -0.795609 3 0 3 
z
" style="stroke: #88543c"/>
    </defs>
    <g clip-path="url(#p447c82911f)">
     <use xlink:href="#m314ac4ba8d" x="84.66" y="293.684122" style="fill: #88543c; stroke: #88543c"/>
     <use xlink:href="#m314ac4ba8d" x="150.748889" y="177.962568" style="fill: #88543c; stroke: #88543c"/>
     <use xlink:href="#m314ac4ba8d" x="216.837778" y="142.505795" style="fill: #88543c; stroke: #88543c"/>
     <use xlink:href="#m314ac4ba8d" x="282.926667" y="126.9204" style="fill: #88543c; stroke: #88543c"/>
     <use xlink:href="#m314ac4ba8d" x="349.015556" y="112.50391" style="fill: #88543c; stroke: #88543c"/>
     <use xlink:href="#m314ac4ba8d" x="415.104444" y="108.217927" style="fill: #88543c; stroke: #88543c"/>
     <use xlink:href="#m314ac4ba8d" x="481.193333" y="97.308151" style="fill: #88543c; stroke: #88543c"/>
     <use xlink:href="#m314ac4ba8d" x="547.282222" y="84.839835" style="fill: #88543c; stroke: #88543c"/>
     <use xlink:href="#m314ac4ba8d" x="613.371111" y="74.709329" style="fill: #88543c; stroke: #88543c"/>
     <use xlink:href="#m314ac4ba8d" x="679.46" y="73.540424" style="fill: #88543c; stroke: #88543c"/>
    </g>
   </g>
   <g id="patch_3">
    <path d="M 54.92 389.32 
L 54.92 25.44 
" style="fill: none; stroke: #000000; stroke-width: 0.8; stroke-linejoin: miter; stroke-linecap: square"/>
   </g>
   <g id="patch_4">
    <path d="M 54.92 389.32 
L 709.2 389.32 
" style="fill: none; stroke: #000000; stroke-width: 0.8; stroke-linejoin: miter; stroke-linecap: square"/>
   </g>
   <g id="text_12">
    <!-- Global Accuracy per Round (FedAvgM with Varying Momentum) -->
    <g transform="translate(192.106563 19.44) scale(0.12 -0.12)">
     <defs>
      <path id="DejaVuSans-70" d="M 1159 525 
L 1159 -1331 
L 581 -1331 
L 581 3500 
L 1159 3500 
L 1159 2969 
Q 1341 3281 1617 3432 
Q 1894 3584 2278 3584 
Q 2916 3584 3314 3078 
Q 3713 2572 3713 1747 
Q 3713 922 3314 415 
Q 2916 -91 2278 -91 
Q 1894 -91 1617 61 
Q 1341 213 1159 525 
z
M 3116 1747 
Q 3116 2381 2855 2742 
Q 2594 3103 2138 3103 
Q 1681 3103 1420 2742 
Q 1159 2381 1159 1747 
Q 1159 1113 1420 752 
Q 1681 391 2138 391 
Q 2594 391 2855 752 
Q 3116 1113 3116 1747 
z
" transform="scale(0.015625)"/>
      <path id="DejaVuSans-65" d="M 3597 1894 
L 3597 1613 
L 953 1613 
Q 991 1019 1311 708 
Q 1631 397 2203 397 
Q 2534 397 2845 478 
Q 3156 559 3463 722 
L 3463 178 
Q 3153 47 2828 -22 
Q 2503 -91 2169 -91 
Q 1331 -91 842 396 
Q 353 884 353 1716 
Q 353 2575 817 3079 
Q 1281 3584 2069 3584 
Q 2775 3584 3186 3129 
Q 3597 2675 3597 1894 
z
M 3022 2063 
Q 3016 2534 2758 2815 
Q 2500 3097 2075 3097 
Q 1594 3097 1305 2825 
Q 1016 2553 972 2059 
L 3022 2063 
z
" transform="scale(0.015625)"/>
      <path id="DejaVuSans-28" d="M 1984 4856 
Q 1566 4138 1362 3434 
Q 1159 2731 1159 2009 
Q 1159 1288 1364 580 
Q 1569 -128 1984 -844 
L 1484 -844 
Q 1016 -109 783 600 
Q 550 1309 550 2009 
Q 550 2706 781 3412 
Q 1013 4119 1484 4856 
L 1984 4856 
z
" transform="scale(0.015625)"/>
      <path id="DejaVuSans-46" d="M 628 4666 
L 3309 4666 
L 3309 4134 
L 1259 4134 
L 1259 2759 
L 3109 2759 
L 3109 2228 
L 1259 2228 
L 1259 0 
L 628 0 
L 628 4666 
z
" transform="scale(0.015625)"/>
      <path id="DejaVuSans-76" d="M 191 3500 
L 800 3500 
L 1894 563 
L 2988 3500 
L 3597 3500 
L 2284 0 
L 1503 0 
L 191 3500 
z
" transform="scale(0.015625)"/>
      <path id="DejaVuSans-67" d="M 2906 1791 
Q 2906 2416 2648 2759 
Q 2391 3103 1925 3103 
Q 1463 3103 1205 2759 
Q 947 2416 947 1791 
Q 947 1169 1205 825 
Q 1463 481 1925 481 
Q 2391 481 2648 825 
Q 2906 1169 2906 1791 
z
M 3481 434 
Q 3481 -459 3084 -895 
Q 2688 -1331 1869 -1331 
Q 1566 -1331 1297 -1286 
Q 1028 -1241 775 -1147 
L 775 -588 
Q 1028 -725 1275 -790 
Q 1522 -856 1778 -856 
Q 2344 -856 2625 -561 
Q 2906 -266 2906 331 
L 2906 616 
Q 2728 306 2450 153 
Q 2172 0 1784 0 
Q 1141 0 747 490 
Q 353 981 353 1791 
Q 353 2603 747 3093 
Q 1141 3584 1784 3584 
Q 2172 3584 2450 3431 
Q 2728 3278 2906 2969 
L 2906 3500 
L 3481 3500 
L 3481 434 
z
" transform="scale(0.015625)"/>
      <path id="DejaVuSans-4d" d="M 628 4666 
L 1569 4666 
L 2759 1491 
L 3956 4666 
L 4897 4666 
L 4897 0 
L 4281 0 
L 4281 4097 
L 3078 897 
L 2444 897 
L 1241 4097 
L 1241 0 
L 628 0 
L 628 4666 
z
" transform="scale(0.015625)"/>
      <path id="DejaVuSans-77" d="M 269 3500 
L 844 3500 
L 1563 769 
L 2278 3500 
L 2956 3500 
L 3675 769 
L 4391 3500 
L 4966 3500 
L 4050 0 
L 3372 0 
L 2619 2869 
L 1863 0 
L 1184 0 
L 269 3500 
z
" transform="scale(0.015625)"/>
      <path id="DejaVuSans-68" d="M 3513 2113 
L 3513 0 
L 2938 0 
L 2938 2094 
Q 2938 2591 2744 2837 
Q 2550 3084 2163 3084 
Q 1697 3084 1428 2787 
Q 1159 2491 1159 1978 
L 1159 0 
L 581 0 
L 581 4863 
L 1159 4863 
L 1159 2956 
Q 1366 3272 1645 3428 
Q 1925 3584 2291 3584 
Q 2894 3584 3203 3211 
Q 3513 2838 3513 2113 
z
" transform="scale(0.015625)"/>
      <path id="DejaVuSans-56" d="M 1831 0 
L 50 4666 
L 709 4666 
L 2188 738 
L 3669 4666 
L 4325 4666 
L 2547 0 
L 1831 0 
z
" transform="scale(0.015625)"/>
      <path id="DejaVuSans-29" d="M 513 4856 
L 1013 4856 
Q 1481 4119 1714 3412 
Q 1947 2706 1947 2009 
Q 1947 1309 1714 600 
Q 1481 -109 1013 -844 
L 513 -844 
Q 928 -128 1133 580 
Q 1338 1288 1338 2009 
Q 1338 2731 1133 3434 
Q 928 4138 513 4856 
z
" transform="scale(0.015625)"/>
     </defs>
     <use xlink:href="#DejaVuSans-47"/>
     <use xlink:href="#DejaVuSans-6c" x="77.490234"/>
     <use xlink:href="#DejaVuSans-6f" x="105.273438"/>
     <use xlink:href="#DejaVuSans-62" x="166.455078"/>
     <use xlink:href="#DejaVuSans-61" x="229.931641"/>
     <use xlink:href="#DejaVuSans-6c" x="291.210938"/>
     <use xlink:href="#DejaVuSans-20" x="318.994141"/>
     <use xlink:href="#DejaVuSans-41" x="350.78125"/>
     <use xlink:href="#DejaVuSans-63" x="417.439453"/>
     <use xlink:href="#DejaVuSans-63" x="472.419922"/>
     <use xlink:href="#DejaVuSans-75" x="527.400391"/>
     <use xlink:href="#DejaVuSans-72" x="590.779297"/>
     <use xlink:href="#DejaVuSans-61" x="631.892578"/>
     <use xlink:href="#DejaVuSans-63" x="693.171875"/>
     <use xlink:href="#DejaVuSans-79" x="748.152344"/>
     <use xlink:href="#DejaVuSans-20" x="807.332031"/>
     <use xlink:href="#DejaVuSans-70" x="839.119141"/>
     <use xlink:href="#DejaVuSans-65" x="902.595703"/>
     <use xlink:href="#DejaVuSans-72" x="964.119141"/>
     <use xlink:href="#DejaVuSans-20" x="1005.232422"/>
     <use xlink:href="#DejaVuSans-52" x="1037.019531"/>
     <use xlink:href="#DejaVuSans-6f" x="1102.001953"/>
     <use xlink:href="#DejaVuSans-75" x="1163.183594"/>
     <use xlink:href="#DejaVuSans-6e" x="1226.5625"/>
     <use xlink:href="#DejaVuSans-64" x="1289.941406"/>
     <use xlink:href="#DejaVuSans-20" x="1353.417969"/>
     <use xlink:href="#DejaVuSans-28" x="1385.205078"/>
     <use xlink:href="#DejaVuSans-46" x="1424.21875"/>
     <use xlink:href="#DejaVuSans-65" x="1476.238281"/>
     <use xlink:href="#DejaVuSans-64" x="1537.761719"/>
     <use xlink:href="#DejaVuSans-41" x="1601.238281"/>
     <use xlink:href="#DejaVuSans-76" x="1663.771484"/>
     <use xlink:href="#DejaVuSans-67" x="1722.951172"/>
     <use xlink:href="#DejaVuSans-4d" x="1786.427734"/>
     <use xlink:href="#DejaVuSans-20" x="1872.707031"/>
     <use xlink:href="#DejaVuSans-77" x="1904.494141"/>
     <use xlink:href="#DejaVuSans-69" x="1986.28125"/>
     <use xlink:href="#DejaVuSans-74" x="2014.064453"/>
     <use xlink:href="#DejaVuSans-68" x="2053.273438"/>
     <use xlink:href="#DejaVuSans-20" x="2116.652344"/>
     <use xlink:href="#DejaVuSans-56" x="2148.439453"/>
     <use xlink:href="#DejaVuSans-61" x="2209.097656"/>
     <use xlink:href="#DejaVuSans-72" x="2270.376953"/>
     <use xlink:href="#DejaVuSans-79" x="2311.490234"/>
     <use xlink:href="#DejaVuSans-69" x="2370.669922"/>
     <use xlink:href="#DejaVuSans-6e" x="2398.453125"/>
     <use xlink:href="#DejaVuSans-67" x="2461.832031"/>
     <use xlink:href="#DejaVuSans-20" x="2525.308594"/>
     <use xlink:href="#DejaVuSans-4d" x="2557.095703"/>
     <use xlink:href="#DejaVuSans-6f" x="2643.375"/>
     <use xlink:href="#DejaVuSans-6d" x="2704.556641"/>
     <use xlink:href="#DejaVuSans-65" x="2801.96875"/>
     <use xlink:href="#DejaVuSans-6e" x="2863.492188"/>
     <use xlink:href="#DejaVuSans-74" x="2926.871094"/>
     <use xlink:href="#DejaVuSans-75" x="2966.080078"/>
     <use xlink:href="#DejaVuSans-6d" x="3029.458984"/>
     <use xlink:href="#DejaVuSans-29" x="3126.871094"/>
    </g>
   </g>
   <g id="legend_1">
    <g id="patch_5">
     <path d="M 61.92 92.4025 
L 195.72 92.4025 
Q 197.72 92.4025 197.72 90.4025 
L 197.72 32.44 
Q 197.72 30.44 195.72 30.44 
L 61.92 30.44 
Q 59.92 30.44 59.92 32.44 
L 59.92 90.4025 
Q 59.92 92.4025 61.92 92.4025 
z
" style="fill: #ffffff; opacity: 0.8; stroke: #cccccc; stroke-linejoin: miter"/>
    </g>
    <g id="line2d_27">
     <path d="M 63.92 38.600937 
L 73.92 38.600937 
L 83.92 38.600937 
" style="fill: none; stroke: #0072bd; stroke-width: 2; stroke-linecap: square"/>
    </g>
    <g id="text_13">
     <!-- Momentum(β) = 0.2 -->
     <g transform="translate(91.92 42.100937) scale(0.1 -0.1)">
      <defs>
       <path id="DejaVuSans-3b2" d="M 1178 216 
L 1178 -1331 
L 600 -1331 
L 600 3478 
Q 600 4903 1931 4903 
Q 3288 4903 3288 3700 
Q 3288 2844 2750 2531 
Q 3625 2250 3625 1416 
Q 3625 -66 2119 -66 
Q 1456 -66 1178 216 
z
M 1178 966 
Q 1525 425 2141 425 
Q 3041 425 3041 1406 
Q 3041 2288 1591 2219 
L 1591 2750 
Q 2725 2750 2725 3750 
Q 2725 4434 1994 4434 
Q 1178 4434 1178 3459 
L 1178 966 
z
" transform="scale(0.015625)"/>
       <path id="DejaVuSans-3d" d="M 678 2906 
L 4684 2906 
L 4684 2381 
L 678 2381 
L 678 2906 
z
M 678 1631 
L 4684 1631 
L 4684 1100 
L 678 1100 
L 678 1631 
z
" transform="scale(0.015625)"/>
      </defs>
      <use xlink:href="#DejaVuSans-4d"/>
      <use xlink:href="#DejaVuSans-6f" x="86.279297"/>
      <use xlink:href="#DejaVuSans-6d" x="147.460938"/>
      <use xlink:href="#DejaVuSans-65" x="244.873047"/>
      <use xlink:href="#DejaVuSans-6e" x="306.396484"/>
      <use xlink:href="#DejaVuSans-74" x="369.775391"/>
      <use xlink:href="#DejaVuSans-75" x="408.984375"/>
      <use xlink:href="#DejaVuSans-6d" x="472.363281"/>
      <use xlink:href="#DejaVuSans-28" x="569.775391"/>
      <use xlink:href="#DejaVuSans-3b2" x="608.789062"/>
      <use xlink:href="#DejaVuSans-29" x="672.607422"/>
      <use xlink:href="#DejaVuSans-20" x="711.621094"/>
      <use xlink:href="#DejaVuSans-3d" x="743.408203"/>
      <use xlink:href="#DejaVuSans-20" x="827.197266"/>
      <use xlink:href="#DejaVuSans-30" x="858.984375"/>
      <use xlink:href="#DejaVuSans-2e" x="922.607422"/>
      <use xlink:href="#DejaVuSans-32" x="954.394531"/>
     </g>
    </g>
    <g id="line2d_28">
     <path d="M 63.92 53.341563 
L 73.92 53.341563 
L 83.92 53.341563 
" style="fill: none; stroke: #d95319; stroke-width: 2; stroke-linecap: square"/>
    </g>
    <g id="text_14">
     <!-- Momentum(β) = 0.3 -->
     <g transform="translate(91.92 56.841563) scale(0.1 -0.1)">
      <defs>
       <path id="DejaVuSans-33" d="M 2597 2516 
Q 3050 2419 3304 2112 
Q 3559 1806 3559 1356 
Q 3559 666 3084 287 
Q 2609 -91 1734 -91 
Q 1441 -91 1130 -33 
Q 819 25 488 141 
L 488 750 
Q 750 597 1062 519 
Q 1375 441 1716 441 
Q 2309 441 2620 675 
Q 2931 909 2931 1356 
Q 2931 1769 2642 2001 
Q 2353 2234 1838 2234 
L 1294 2234 
L 1294 2753 
L 1863 2753 
Q 2328 2753 2575 2939 
Q 2822 3125 2822 3475 
Q 2822 3834 2567 4026 
Q 2313 4219 1838 4219 
Q 1578 4219 1281 4162 
Q 984 4106 628 3988 
L 628 4550 
Q 988 4650 1302 4700 
Q 1616 4750 1894 4750 
Q 2613 4750 3031 4423 
Q 3450 4097 3450 3541 
Q 3450 3153 3228 2886 
Q 3006 2619 2597 2516 
z
" transform="scale(0.015625)"/>
      </defs>
      <use xlink:href="#DejaVuSans-4d"/>
      <use xlink:href="#DejaVuSans-6f" x="86.279297"/>
      <use xlink:href="#DejaVuSans-6d" x="147.460938"/>
      <use xlink:href="#DejaVuSans-65" x="244.873047"/>
      <use xlink:href="#DejaVuSans-6e" x="306.396484"/>
      <use xlink:href="#DejaVuSans-74" x="369.775391"/>
      <use xlink:href="#DejaVuSans-75" x="408.984375"/>
      <use xlink:href="#DejaVuSans-6d" x="472.363281"/>
      <use xlink:href="#DejaVuSans-28" x="569.775391"/>
      <use xlink:href="#DejaVuSans-3b2" x="608.789062"/>
      <use xlink:href="#DejaVuSans-29" x="672.607422"/>
      <use xlink:href="#DejaVuSans-20" x="711.621094"/>
      <use xlink:href="#DejaVuSans-3d" x="743.408203"/>
      <use xlink:href="#DejaVuSans-20" x="827.197266"/>
      <use xlink:href="#DejaVuSans-30" x="858.984375"/>
      <use xlink:href="#DejaVuSans-2e" x="922.607422"/>
      <use xlink:href="#DejaVuSans-33" x="954.394531"/>
     </g>
    </g>
    <g id="line2d_29">
     <path d="M 63.92 68.082187 
L 73.92 68.082187 
L 83.92 68.082187 
" style="fill: none; stroke: #77ac30; stroke-width: 2; stroke-linecap: square"/>
    </g>
    <g id="text_15">
     <!-- Momentum(β) = 0.5 -->
     <g transform="translate(91.92 71.582187) scale(0.1 -0.1)">
      <defs>
       <path id="DejaVuSans-35" d="M 691 4666 
L 3169 4666 
L 3169 4134 
L 1269 4134 
L 1269 2991 
Q 1406 3038 1543 3061 
Q 1681 3084 1819 3084 
Q 2600 3084 3056 2656 
Q 3513 2228 3513 1497 
Q 3513 744 3044 326 
Q 2575 -91 1722 -91 
Q 1428 -91 1123 -41 
Q 819 9 494 109 
L 494 744 
Q 775 591 1075 516 
Q 1375 441 1709 441 
Q 2250 441 2565 725 
Q 2881 1009 2881 1497 
Q 2881 1984 2565 2268 
Q 2250 2553 1709 2553 
Q 1456 2553 1204 2497 
Q 953 2441 691 2322 
L 691 4666 
z
" transform="scale(0.015625)"/>
      </defs>
      <use xlink:href="#DejaVuSans-4d"/>
      <use xlink:href="#DejaVuSans-6f" x="86.279297"/>
      <use xlink:href="#DejaVuSans-6d" x="147.460938"/>
      <use xlink:href="#DejaVuSans-65" x="244.873047"/>
      <use xlink:href="#DejaVuSans-6e" x="306.396484"/>
      <use xlink:href="#DejaVuSans-74" x="369.775391"/>
      <use xlink:href="#DejaVuSans-75" x="408.984375"/>
      <use xlink:href="#DejaVuSans-6d" x="472.363281"/>
      <use xlink:href="#DejaVuSans-28" x="569.775391"/>
      <use xlink:href="#DejaVuSans-3b2" x="608.789062"/>
      <use xlink:href="#DejaVuSans-29" x="672.607422"/>
      <use xlink:href="#DejaVuSans-20" x="711.621094"/>
      <use xlink:href="#DejaVuSans-3d" x="743.408203"/>
      <use xlink:href="#DejaVuSans-20" x="827.197266"/>
      <use xlink:href="#DejaVuSans-30" x="858.984375"/>
      <use xlink:href="#DejaVuSans-2e" x="922.607422"/>
      <use xlink:href="#DejaVuSans-35" x="954.394531"/>
     </g>
    </g>
    <g id="line2d_30">
     <path d="M 63.92 82.822812 
L 73.92 82.822812 
L 83.92 82.822812 
" style="fill: none; stroke: #88543c; stroke-width: 2; stroke-linecap: square"/>
    </g>
    <g id="text_16">
     <!-- Momentum(β) = 0.8 -->
     <g transform="translate(91.92 86.322812) scale(0.1 -0.1)">
      <use xlink:href="#DejaVuSans-4d"/>
      <use xlink:href="#DejaVuSans-6f" x="86.279297"/>
      <use xlink:href="#DejaVuSans-6d" x="147.460938"/>
      <use xlink:href="#DejaVuSans-65" x="244.873047"/>
      <use xlink:href="#DejaVuSans-6e" x="306.396484"/>
      <use xlink:href="#DejaVuSans-74" x="369.775391"/>
      <use xlink:href="#DejaVuSans-75" x="408.984375"/>
      <use xlink:href="#DejaVuSans-6d" x="472.363281"/>
      <use xlink:href="#DejaVuSans-28" x="569.775391"/>
      <use xlink:href="#DejaVuSans-3b2" x="608.789062"/>
      <use xlink:href="#DejaVuSans-29" x="672.607422"/>
      <use xlink:href="#DejaVuSans-20" x="711.621094"/>
      <use xlink:href="#DejaVuSans-3d" x="743.408203"/>
      <use xlink:href="#DejaVuSans-20" x="827.197266"/>
      <use xlink:href="#DejaVuSans-30" x="858.984375"/>
      <use xlink:href="#DejaVuSans-2e" x="922.607422"/>
      <use xlink:href="#DejaVuSans-38" x="954.394531"/>
     </g>
    </g>
   </g>
  </g>
 </g>
 <defs>
  <clipPath id="p447c82911f">
   <rect x="54.92" y="25.44" width="654.28" height="363.88"/>
  </clipPath>
 </defs>
</svg>
